<svg width="16" height="17" viewBox="0 0 16 17" fill="none" xmlns="http://www.w3.org/2000/svg">
<path d="M6.34417 9.43364L1.81068 7.05021C1.46136 6.87064 1.05769 6.88697 0.731652 7.09919C0.397851 7.31958 0.203781 7.68688 0.203781 8.09501V12.5925C0.203781 13.3679 0.61521 14.0699 1.27505 14.4209L5.80077 16.8043C5.95603 16.8859 6.12681 16.9268 6.29759 16.9268C6.49942 16.9268 6.70126 16.8696 6.8798 16.7553C7.2136 16.5431 7.40767 16.1677 7.40767 15.7595V11.262C7.41543 10.4784 7.004 9.77647 6.34417 9.43364Z" fill="#6865FF"/>
<path d="M15.3848 7.10243C15.051 6.89028 14.6473 6.8658 14.3057 7.05348L9.77995 9.43612C9.1201 9.78699 8.70866 10.4806 8.70866 11.2639V15.7599C8.70866 16.1679 8.90274 16.5433 9.23654 16.7554C9.41509 16.8696 9.61693 16.9268 9.81876 16.9268C9.98955 16.9268 10.1603 16.886 10.3156 16.8044L14.8414 14.4217C15.5012 14.0708 15.9127 13.3773 15.9127 12.5939V8.09792C15.9127 7.68994 15.7186 7.32275 15.3848 7.10243Z" fill="#6865FF"/>
<path d="M13.9153 3.18802L8.86233 0.445629C8.33044 0.15354 7.68572 0.15354 7.15383 0.445629L2.10084 3.18802C1.73012 3.39086 1.50447 3.78032 1.50447 4.22656C1.50447 4.6647 1.73012 5.06226 2.10084 5.2651L7.15383 8.0075C7.41977 8.15354 7.71796 8.22656 8.00808 8.22656C8.2982 8.22656 8.59639 8.15354 8.86233 8.0075L13.9153 5.2651C14.286 5.06226 14.5117 4.67281 14.5117 4.22656C14.5117 3.78032 14.286 3.39086 13.9153 3.18802Z" fill="#FF94BA"/>
</svg>
