<svg width="20" height="20" viewBox="0 0 20 20" fill="none" xmlns="http://www.w3.org/2000/svg">
<path opacity="0.5" d="M3.70007 6.86317C3.70007 3.62503 6.52068 1 10.0001 1C13.4795 1 16.3001 3.62503 16.3001 6.86317C16.3001 10.0759 14.2893 13.8249 11.1521 15.1656C10.4208 15.4781 9.57935 15.4781 8.84801 15.1656C5.71082 13.8249 3.70007 10.0759 3.70007 6.86317Z" stroke="#FF3C82" stroke-width="1.5"/>
<path d="M11.8001 7.3C11.8001 8.29411 10.9942 9.1 10.0001 9.1C9.00596 9.1 8.20007 8.29411 8.20007 7.3C8.20007 6.30589 9.00596 5.5 10.0001 5.5C10.9942 5.5 11.8001 6.30589 11.8001 7.3Z" stroke="#FF3C82" stroke-width="1.5"/>
<path d="M18.0645 13.1504C18.6633 13.6926 19 14.3038 19 14.9504C19 17.1871 14.9706 19.0004 10 19.0004C5.02944 19.0004 1 17.1871 1 14.9504C1 14.3038 1.33671 13.6926 1.93552 13.1504" stroke="#FF3C82" stroke-width="1.5" stroke-linecap="round"/>
</svg>
