<svg width="136" height="26" viewBox="0 0 136 26" fill="none" xmlns="http://www.w3.org/2000/svg">
<path d="M8.94177 21.9629C13.322 21.9629 17.0981 19.7335 17.0981 15.817C17.0981 7.14024 4.89377 11.2978 4.89377 4.82043C4.89377 3.10321 6.01152 1.71733 8.30749 1.71733C12.7178 1.71733 11.6002 7.08003 14.8626 7.08003C16.1616 7.08003 16.796 6.35694 16.796 5.21209C16.8262 2.71156 13.473 0 8.39793 0C3.41361 0 0.392811 2.65125 0.392811 6.26652C0.422995 15.1842 12.6271 10.7857 12.6271 17.2028C12.6271 19.0406 11.2376 20.2457 9.12298 20.2457C4.01781 20.2457 4.8334 14.7624 1.81261 14.7022C0.574018 14.7022 0 15.4855 0 16.54C0 18.9502 3.20211 21.9629 8.94177 21.9629ZM32.3267 18.5886V7.56199C32.3267 7.04993 31.9642 6.92941 31.1789 7.01972L27.3121 7.59209C26.9495 7.6524 26.7079 7.92354 26.7079 8.22488V8.31519C26.7079 8.97808 27.9163 9.27921 27.9163 10.6049V16.7207C27.9163 18.8598 26.7683 20.2457 25.3184 20.2457C23.6569 20.2457 22.811 18.9502 22.811 16.1483L22.9017 7.56199C22.9017 7.04993 22.4486 6.92941 21.6632 7.01972L17.8569 7.59209C17.4642 7.6524 17.2225 7.92354 17.2225 8.22488V8.31519C17.2225 8.97808 18.4006 9.27921 18.4006 10.6049V15.6965C18.4006 19.8239 20.9078 21.9629 24.0194 21.9629C26.1038 21.9629 27.584 21.2098 28.3996 19.8842C28.4902 21.3604 29.3664 21.8425 31.0882 21.8425C32.7799 21.8425 33.7767 21.6616 33.7767 20.9687C33.7767 19.854 32.3267 20.9687 32.3267 18.5886ZM47.1277 7.20055C44.0464 7.20055 43.0495 6.8992 41.1162 6.8992C36.8869 6.8992 33.9567 9.46004 33.9567 13.2259C33.9567 16.6605 36.9776 19.1912 41.0255 19.1912C41.4182 19.1912 41.811 19.1611 42.2037 19.1309C43.3818 19.3719 44.0766 20.3963 44.0766 21.9027C44.0766 23.5899 42.8985 24.7346 41.0255 24.7346C37.4911 24.6744 38.1557 20.1552 35.6786 20.1552C34.4401 20.1552 33.8963 20.9988 33.8963 21.8425C33.8963 24.1924 36.4942 26 40.9348 26C45.2245 26 48.5172 24.343 48.5172 21.7822C48.5172 20.1853 47.5808 18.9502 44.8922 18.3476C46.9766 17.3535 48.2755 15.4855 48.2755 13.1054C48.2755 11.6593 47.5506 10.2433 46.5838 9.24911C47.5204 8.97808 48.6683 9.09849 48.8797 8.10426C49.061 7.56199 48.7589 7.20055 47.1277 7.20055ZM38.2162 11.2376C38.2162 9.39973 39.062 8.22488 40.4516 8.22488C42.5661 8.22488 43.986 11.9305 43.986 14.8227C43.986 16.6002 43.1401 17.8355 41.6902 17.8355C39.787 17.8355 38.2162 14.4311 38.2162 11.2376ZM63.0135 18.6488L62.3489 13.0753C61.926 9.27921 59.2676 6.8992 55.3406 6.8992C52.1988 6.8992 49.5405 8.16457 49.5405 10.3338C49.5405 11.3581 50.2655 12.0209 51.353 12.0209C53.6186 12.0209 52.9239 8.16457 55.3406 8.16457C57.1833 8.16457 57.6666 9.85169 58.0291 13.3765L58.0593 13.7381C57.2739 13.1958 56.1562 12.8343 54.7665 12.8343C51.8061 12.8343 49.2687 14.401 49.2989 17.4137C49.2989 20.4264 51.7156 21.9629 54.978 21.9629C57.0625 21.9629 58.3312 21.2098 58.9959 20.2154C59.177 21.511 59.9625 21.8425 61.6843 21.8425C63.1343 21.8425 64.5844 21.6616 64.5844 20.9687C64.5844 20.1552 63.2551 20.7277 63.0135 18.6488ZM56.3072 20.6373C54.7665 20.6373 53.7696 18.7996 53.7696 16.7207C53.7696 15.1842 54.7062 14.1901 55.975 14.1901C57.2135 14.1901 58.1802 15.0939 58.3614 16.8714L58.452 17.9258C58.5427 19.2816 57.6968 20.6373 56.3072 20.6373ZM73.5603 6.8992C71.5364 6.8992 70.1166 7.95364 69.4519 9.88179V7.6222C69.4519 7.04993 69.18 6.68838 68.4853 7.01972L64.8603 8.70684C64.4676 8.88767 64.2259 9.12859 64.2259 9.42994V9.55045C64.2259 10.3037 65.6154 10.3941 65.6154 11.7196V18.7694C65.6154 20.0348 64.4374 20.2758 64.4374 21.029V21.1495C64.4374 21.4809 64.7093 21.6616 65.132 21.6616H70.7207C71.1134 21.6616 71.3852 21.4809 71.3852 21.1495V21.029C71.3852 20.2758 69.8749 20.0348 69.8749 18.7694V12.744C69.8749 11.0868 70.2978 9.42994 71.4759 9.42994C73.1072 9.42994 72.0499 12.0209 74.406 12.0209C75.8561 12.0209 76.3394 10.9062 76.3394 9.64076C76.3394 8.10426 75.3426 6.8992 73.5603 6.8992ZM83.3737 21.9629C87.3019 21.9629 89.3563 19.5227 89.5369 17.0521C89.5964 16.3895 88.8419 16.2689 88.4794 16.7509C87.846 17.8355 86.6971 18.8598 84.8542 18.8598C81.7732 18.8598 79.7188 16.2387 79.7188 12.2318C79.7188 10.0023 80.8071 8.22488 82.5278 8.22488C85.1571 8.19467 84.9754 12.4728 87.5739 12.6235C88.963 12.6838 89.4466 11.9004 89.4466 11.1171C89.4466 8.76715 86.6674 6.8691 83.192 6.8992C79.1151 6.92941 75.5804 9.76127 75.5804 14.401C75.5804 18.4681 78.8122 21.9629 83.3737 21.9629ZM103.609 18.6488L102.945 13.0753C102.522 9.27921 99.8642 6.8992 95.9371 6.8992C92.7955 6.8992 90.1363 8.16457 90.1363 10.3338C90.1363 11.3581 90.8612 12.0209 91.9495 12.0209C94.2143 12.0209 93.5203 8.16457 95.9371 8.16457C97.78 8.16457 98.2625 9.85169 98.6249 13.3765L98.6558 13.7381C97.8703 13.1958 96.7523 12.8343 95.3632 12.8343C92.4022 12.8343 89.8653 14.401 89.8951 17.4137C89.8951 20.4264 92.3119 21.9629 95.5747 21.9629C97.6578 21.9629 98.9268 21.2098 99.5921 20.2154C99.7728 21.511 100.559 21.8425 102.28 21.8425C103.731 21.8425 105.18 21.6616 105.18 20.9687C105.18 20.1552 103.852 20.7277 103.609 18.6488ZM96.9032 20.6373C95.3632 20.6373 94.3663 18.7996 94.3663 16.7207C94.3663 15.1842 95.3026 14.1901 96.5716 14.1901C97.8098 14.1901 98.7759 15.0939 98.9576 16.8714L99.0479 17.9258C99.1383 19.2816 98.2923 20.6373 96.9032 20.6373ZM120.621 18.7393L120.258 13.3163C119.896 8.52612 117.238 6.8992 114.488 6.8992C112.435 6.8992 110.833 7.80302 110.018 9.33952V7.6524C110.018 7.08003 109.687 6.65817 108.99 7.01972L105.396 8.76715C105.034 8.94787 104.792 9.09849 104.792 9.39973V9.52024C104.792 10.2735 106.272 10.3941 106.272 11.7497V18.7694C106.272 20.0649 104.973 20.3059 104.973 21.0591V21.1796C104.973 21.4809 105.245 21.6918 105.667 21.6918H111.287C111.709 21.6918 111.981 21.4809 111.981 21.1796V21.0591C111.981 20.3059 110.682 20.0649 110.682 18.7694V11.9305C110.682 9.9722 111.619 8.61653 113.25 8.61653C114.852 8.61653 115.729 9.9421 115.878 13.1657L116.18 18.7393C116.241 20.0649 115.093 20.3059 115.093 21.0591V21.1796C115.093 21.4809 115.365 21.6918 115.788 21.6918H121.014C121.437 21.6918 121.709 21.4809 121.709 21.1796V21.0591C121.709 20.3059 120.712 20.0649 120.621 18.7393ZM134.171 17.0822C133.597 18.0163 132.328 18.8297 130.728 18.8297C128.915 18.8297 127.526 17.8656 126.74 16.2086L133.447 13.1657C134.263 12.8042 134.775 12.2017 134.775 11.1773C134.775 9.18891 133.025 6.8992 129.067 6.8992C125.109 6.8992 121.756 9.94211 121.756 14.3106C121.756 18.9502 124.868 21.9629 129.067 21.9629C132.963 21.9629 135.017 19.1611 135.199 17.4137C135.229 16.781 134.534 16.6304 134.171 17.0822ZM128.523 8.22488C130.154 8.22488 130.939 10.3639 130.939 11.4484C130.939 12.0812 130.698 12.5934 130.154 12.8644L126.257 14.8227C126.046 14.0394 125.955 13.1657 125.955 12.2318C125.955 9.9421 126.922 8.22488 128.523 8.22488Z" fill="white"/>
</svg>
