<svg width="34" height="36" viewBox="0 0 34 36" fill="none" xmlns="http://www.w3.org/2000/svg">
<path fill-rule="evenodd" clip-rule="evenodd" d="M20.926 34.9718C18.4966 36.3427 15.5034 36.3427 13.074 34.9718L3.92599 29.8092C1.49659 28.4382 4.03017e-06 25.9045 4.26988e-06 23.1626L5.17253e-06 12.8375C5.41225e-06 10.0954 1.49659 7.56175 3.92599 6.19081L13.074 1.02827C15.5034 -0.342757 18.4966 -0.342756 20.926 1.02827L30.074 6.19081C32.5034 7.56175 34 10.0954 34 12.8375L34 23.1626C34 25.9045 32.5034 28.4382 30.074 29.8092L20.926 34.9718Z" fill="url(#paint0_linear_1_413)"/>
<path fill-rule="evenodd" clip-rule="evenodd" d="M15.2272 16.9218C16.2393 16.333 17.4873 16.3234 18.5084 16.8966L25.3918 20.761C25.9543 21.0768 25.9543 21.8866 25.3918 22.2024L18.5084 26.0668C17.4873 26.64 16.2393 26.6304 15.2273 26.0415L8.61793 22.1961C8.07006 21.8774 8.07006 21.086 8.61793 20.7673L15.2272 16.9218Z" fill="white" fill-opacity="0.3"/>
<path opacity="0.9" fill-rule="evenodd" clip-rule="evenodd" d="M15.2272 16.9218C16.2393 16.333 17.4873 16.3234 18.5084 16.8966L25.3918 20.761C25.9543 21.0768 25.9543 21.8865 25.3918 22.2024L18.5084 26.0668C17.4873 26.64 16.2393 26.6304 15.2273 26.0415L8.61793 22.1961C8.07006 21.8773 8.07006 21.086 8.61793 20.7672L15.2272 16.9218Z" fill="url(#paint1_linear_1_413)" fill-opacity="0.3"/>
<path fill-rule="evenodd" clip-rule="evenodd" d="M15.2272 13.9218C16.2393 13.333 17.4873 13.3234 18.5084 13.8966L25.3918 17.761C25.9543 18.0768 25.9543 18.8865 25.3918 19.2024L18.5084 23.0668C17.4873 23.64 16.2393 23.6304 15.2273 23.0415L8.61793 19.1961C8.07006 18.8773 8.07006 18.086 8.61793 17.7672L15.2272 13.9218Z" fill="white" fill-opacity="0.4"/>
<path fill-rule="evenodd" clip-rule="evenodd" d="M15.2272 13.9219C16.2393 13.333 17.4873 13.3235 18.5084 13.8967L25.3918 17.761C25.9543 18.0768 25.9543 18.8866 25.3918 19.2024L18.5084 23.0668C17.4873 23.64 16.2393 23.6304 15.2273 23.0416L8.61793 19.1961C8.07006 18.8774 8.07006 18.0861 8.61793 17.7673L15.2272 13.9219Z" fill="url(#paint2_linear_1_413)" fill-opacity="0.4"/>
<path fill-rule="evenodd" clip-rule="evenodd" d="M15.0202 10.4485C16.0323 9.8596 17.2803 9.85008 18.3013 10.4233L25.1848 14.2876C25.7473 14.6035 25.7473 15.4132 25.1848 15.729L18.3013 19.5934C17.2803 20.1666 16.0323 20.1571 15.0203 19.5682L8.4109 15.7228C7.86303 15.404 7.86303 14.6127 8.4109 14.2939L15.0202 10.4485Z" fill="white"/>
<defs>
<linearGradient id="paint0_linear_1_413" x1="5" y1="46.9179" x2="38.0204" y2="11.1512" gradientUnits="userSpaceOnUse">
<stop stop-color="#6C26FF"/>
<stop offset="0.322917" stop-color="#D51ABC"/>
<stop offset="1" stop-color="#FFAA12"/>
<stop offset="1" stop-color="#FFC530"/>
</linearGradient>
<linearGradient id="paint1_linear_1_413" x1="18.7076" y1="18.0221" x2="8.74557" y2="23.3646" gradientUnits="userSpaceOnUse">
<stop stop-color="white" stop-opacity="0.475"/>
<stop offset="1" stop-color="white" stop-opacity="0.273"/>
</linearGradient>
<linearGradient id="paint2_linear_1_413" x1="20.6887" y1="16.3783" x2="12.8111" y2="20.9852" gradientUnits="userSpaceOnUse">
<stop stop-color="white" stop-opacity="0.201"/>
<stop offset="1" stop-color="white" stop-opacity="0.698"/>
</linearGradient>
</defs>
</svg>
