<svg width="17" height="17" viewBox="0 0 17 17" fill="none" xmlns="http://www.w3.org/2000/svg">
<path d="M6.56571 9.50689L2.03223 7.12346C1.6829 6.94388 1.27923 6.96021 0.953195 7.17243C0.619394 7.39282 0.425323 7.76013 0.425323 8.16825V12.6657C0.425323 13.4412 0.836753 14.1431 1.49659 14.4941L6.02231 16.8776C6.17757 16.9592 6.34835 17 6.51913 17C6.72096 17 6.9228 16.9429 7.10134 16.8286C7.43514 16.6164 7.62921 16.2409 7.62921 15.8328V11.3353C7.63698 10.5517 7.22555 9.84971 6.56571 9.50689Z" fill="white"/>
<path d="M15.6062 7.17568C15.2724 6.96352 14.8687 6.93904 14.5271 7.12672L10.0013 9.50936C9.34149 9.86023 8.93005 10.5538 8.93005 11.3371V15.8332C8.93005 16.2411 9.12413 16.6165 9.45793 16.8286C9.63648 16.9429 9.83832 17 10.0402 17C10.2109 17 10.3817 16.9592 10.537 16.8776L15.0628 14.495C15.7226 14.1441 16.1341 13.4505 16.1341 12.6672V8.17116C16.1341 7.76318 15.94 7.39599 15.6062 7.17568Z" fill="white"/>
<path d="M14.1367 3.26126L9.08375 0.518872C8.55186 0.226782 7.90714 0.226782 7.37525 0.518872L2.32226 3.26126C1.95154 3.4641 1.72589 3.85356 1.72589 4.2998C1.72589 4.73794 1.95154 5.1355 2.32226 5.33834L7.37525 8.08074C7.64119 8.22678 7.93938 8.2998 8.2295 8.2998C8.51962 8.2998 8.81781 8.22678 9.08375 8.08074L14.1367 5.33834C14.5075 5.1355 14.7331 4.74605 14.7331 4.2998C14.7331 3.85356 14.5075 3.4641 14.1367 3.26126Z" fill="#FF94BA"/>
</svg>
