<svg width="725" height="725" viewBox="0 0 725 725" fill="none" xmlns="http://www.w3.org/2000/svg">
<path d="M534.578 179.153C622.902 258.078 629.246 391.315 548.747 476.747C468.249 562.178 420.172 346.515 243.068 488.528C65.9645 630.541 148.401 276.367 228.899 190.935C309.398 105.504 446.255 100.229 534.578 179.153Z" fill="url(#paint0_linear_1_1261)"/>
<mask id="mask0_1_1261" style="mask-type:alpha" maskUnits="userSpaceOnUse" x="137" y="123" width="469" height="399">
<path d="M534.578 179.153C622.902 258.078 629.246 391.315 548.747 476.747C468.249 562.178 420.172 346.515 243.068 488.528C65.9645 630.541 148.401 276.367 228.899 190.935C309.398 105.504 446.255 100.229 534.578 179.153Z" fill="#F1A0AF"/>
</mask>
<g mask="url(#mask0_1_1261)">
<path opacity="0.2" d="M387.384 10.8506C346.377 -7.22932 266.518 -14.4751 275.142 101.181C285.923 245.75 240.153 232.17 175.207 225.278" stroke="white" stroke-width="20"/>
<path opacity="0.2" d="M475.421 90.1389C436.458 62.5116 354.323 37.9708 337.49 160.826C316.448 314.396 271.483 290.466 204.909 269.461" stroke="white" stroke-width="20"/>
<path opacity="0.2" d="M520.928 137.919C476.777 124.06 388.24 123.934 387.299 234.3C386.122 372.257 336.24 363.129 264.327 362.066" stroke="white" stroke-width="20"/>
<path opacity="0.2" d="M590.309 160.739C531.465 166.434 432.393 210.112 506.851 339.254C599.924 500.683 537.91 514.73 456.783 549.086" stroke="white" stroke-width="20"/>
<path opacity="0.2" d="M277.544 483.51C220.484 458.358 109.36 448.284 121.351 609.201C136.339 810.348 72.6508 791.457 -17.7222 781.873" stroke="white" stroke-width="20"/>
</g>
<defs>
<linearGradient id="paint0_linear_1_1261" x1="202.225" y1="219.244" x2="514.304" y2="513.301" gradientUnits="userSpaceOnUse">
<stop stop-color="#5FC33B"/>
<stop offset="1" stop-color="#5FC33B" stop-opacity="0"/>
</linearGradient>
</defs>
</svg>
