<svg width="46" height="48" viewBox="0 0 46 48" fill="none" xmlns="http://www.w3.org/2000/svg">
<path opacity="0.4" d="M44.2308 47.1649H1.76923C0.802051 47.1649 0 46.3629 0 45.3957C0 44.4285 0.802051 43.6265 1.76923 43.6265H44.2308C45.198 43.6265 46 44.4285 46 45.3957C46 46.3629 45.198 47.1649 44.2308 47.1649Z" fill="#4D9FFF"/>
<path opacity="0.4" d="M39.56 3.47668C34.9836 -1.09973 30.5016 -1.21768 25.8072 3.47668L22.9528 6.33104C22.7169 6.56694 22.6226 6.94437 22.7169 7.27463C24.5098 13.5259 29.5108 18.5269 35.7621 20.3198C35.8564 20.3433 35.9508 20.3669 36.0452 20.3669C36.3046 20.3669 36.5405 20.2726 36.7293 20.0839L39.56 17.2295C41.8954 14.9177 43.0277 12.6767 43.0277 10.4121C43.0513 8.07668 41.919 5.81206 39.56 3.47668Z" fill="#4D9FFF"/>
<path d="M31.5159 22.4662C30.8318 22.136 30.1713 21.8057 29.5344 21.4283C29.0154 21.1216 28.52 20.7914 28.0246 20.4375C27.6236 20.178 27.1518 19.8006 26.7036 19.4232C26.6564 19.3996 26.4913 19.258 26.3026 19.0693C25.5241 18.4088 24.6513 17.5596 23.8729 16.616C23.8021 16.5688 23.6841 16.4037 23.519 16.1914C23.2831 15.9083 22.8821 15.4365 22.5282 14.8939C22.2452 14.5401 21.9149 14.0211 21.6082 13.5021C21.2308 12.8652 20.9005 12.2283 20.5703 11.5678C20.24 10.8601 19.9805 10.176 19.7446 9.53906L4.93029 24.3534C4.62362 24.6601 4.34054 25.2498 4.26977 25.6509L2.99593 34.6857C2.76003 36.2898 3.20824 37.7996 4.199 38.8139C5.04824 39.6396 6.22772 40.0878 7.50157 40.0878C7.78464 40.0878 8.06772 40.0642 8.3508 40.017L17.4093 38.7432C17.8339 38.6724 18.4236 38.3893 18.7067 38.0827L33.5211 23.2683C32.8605 23.0324 32.2236 22.7729 31.5159 22.4662Z" fill="#4D9FFF"/>
</svg>
