<svg width="22" height="23" viewBox="0 0 22 23" fill="none" xmlns="http://www.w3.org/2000/svg">
<path d="M12.111 1C12.111 1 14.5554 1.22222 17.6665 4.33332C20.7776 7.44442 20.9998 9.88886 20.9998 9.88886" stroke="#FF3C82" stroke-width="2" stroke-linecap="round"/>
<path d="M12.3411 4.92773C12.3411 4.92773 13.4411 5.242 15.091 6.89191C16.7409 8.54182 17.0552 9.64176 17.0552 9.64176" stroke="#FF3C82" stroke-width="2" stroke-linecap="round"/>
<path opacity="0.5" d="M7.70841 4.68702L8.42954 5.97916C9.08031 7.14524 8.81907 8.67495 7.7941 9.69992C7.7941 9.69992 7.7941 9.69992 7.7941 9.69993C7.79398 9.70004 6.55095 10.9433 8.80499 13.1973C11.0584 15.4507 12.3016 14.209 12.3024 14.2082C12.3024 14.2082 12.3024 14.2082 12.3024 14.2082C13.3274 13.1833 14.8571 12.922 16.0232 13.5728L17.3153 14.2939C19.0761 15.2766 19.2841 17.7459 17.7364 19.2937C16.8064 20.2237 15.6671 20.9473 14.4076 20.9951C12.2875 21.0754 8.68695 20.5389 5.07521 16.9271C1.46347 13.3154 0.926905 9.71484 1.00728 7.59469C1.05502 6.33527 1.77867 5.19598 2.70867 4.26597C4.25638 2.71826 6.72573 2.92621 7.70841 4.68702Z" stroke="#FF3C82" stroke-width="2" stroke-linecap="round"/>
</svg>
