<svg width="51" height="50" viewBox="0 0 51 50" fill="none" xmlns="http://www.w3.org/2000/svg">
<path d="M44.3203 9.125L28.6453 0.675C26.9953 -0.225 24.9952 -0.225 23.3452 0.675L7.67025 9.125C6.52025 9.75 5.82025 10.95 5.82025 12.325C5.82025 13.675 6.52025 14.9 7.67025 15.525L23.3452 23.975C24.1702 24.425 25.0953 24.65 25.9953 24.65C26.8953 24.65 27.8203 24.425 28.6453 23.975L44.3203 15.525C45.4703 14.9 46.1702 13.7 46.1702 12.325C46.1702 10.95 45.4703 9.75 44.3203 9.125Z" fill="#5956E9"/>
<path opacity="0.4" d="M20.7701 26.8998L6.17012 19.5998C5.04512 19.0498 3.74512 19.0998 2.69512 19.7498C1.62012 20.4248 0.995117 21.5498 0.995117 22.7998V36.5748C0.995117 38.9498 2.32012 41.0998 4.44512 42.1748L19.0201 49.4748C19.5201 49.7248 20.0701 49.8498 20.6201 49.8498C21.2701 49.8498 21.9201 49.6748 22.4951 49.3248C23.5701 48.6748 24.1951 47.5248 24.1951 46.2748V32.4998C24.2201 30.0998 22.8951 27.9498 20.7701 26.8998Z" fill="#5956E9"/>
<path opacity="0.4" d="M49.295 19.7502C48.22 19.1002 46.92 19.0252 45.82 19.6002L31.245 26.9002C29.12 27.9752 27.795 30.1002 27.795 32.5002V46.2752C27.795 47.5252 28.42 48.6752 29.495 49.3252C30.07 49.6752 30.72 49.8502 31.37 49.8502C31.92 49.8502 32.47 49.7252 32.97 49.4752L47.545 42.1752C49.67 41.1002 50.995 38.9752 50.995 36.5752V22.8002C50.995 21.5502 50.37 20.4252 49.295 19.7502Z" fill="#5956E9"/>
</svg>
