<svg width="56" height="55" viewBox="0 0 56 55" fill="none" xmlns="http://www.w3.org/2000/svg">
<path d="M30.2266 11.9389L17.6214 15.3472C13.0279 16.5893 11.1223 19.9177 12.3524 24.5504L15.7248 37.2509C16.9549 41.8836 20.2545 43.8046 24.848 42.5626L37.4532 39.1543C42.0467 37.9123 43.9404 34.587 42.7103 29.9544L39.3378 17.2539C38.1077 12.6212 34.8202 10.6969 30.2266 11.9389Z" fill="url(#paint0_linear_1_1458)"/>
<path d="M30.2266 11.9389L17.6214 15.3472C13.0279 16.5893 11.1223 19.9177 12.3524 24.5504L15.7248 37.2509C16.9549 41.8836 20.2545 43.8046 24.848 42.5626L37.4532 39.1543C42.0467 37.9123 43.9404 34.587 42.7103 29.9544L39.3378 17.2539C38.1077 12.6212 34.8202 10.6969 30.2266 11.9389Z" fill="url(#paint1_linear_1_1458)"/>
<g opacity="0.5" filter="url(#filter0_f_1_1458)">
<path d="M29.4297 17.5655L21.0978 19.8171C18.0615 20.6377 16.7799 22.7536 17.5541 25.6678L19.6767 33.6571C20.4509 36.5712 22.6099 37.7574 25.6462 36.9369L33.9781 34.6853C37.0144 33.8648 38.2881 31.751 37.5138 28.8368L35.3912 20.8476C34.617 17.9334 32.466 16.745 29.4297 17.5655Z" fill="#FFDC60"/>
</g>
<g filter="url(#filter1_b_1_1458)">
<path d="M39.0073 18.626H26.8971C22.162 18.626 18.9773 21.9787 18.9773 26.9656V38.4748C18.9773 43.4476 22.162 46.8003 26.8971 46.8003H39.0073C43.7424 46.8003 46.9131 43.4476 46.9131 38.4748V26.9656C46.9131 21.9787 43.7424 18.626 39.0073 18.626Z" fill="#72DC60"/>
<path d="M39.0073 18.126H26.8971C24.4068 18.126 22.2909 19.0105 20.799 20.5814C19.3092 22.15 18.4773 24.365 18.4773 26.9656V38.4748C18.4773 41.0687 19.3094 43.2802 20.7992 44.8469C22.291 46.4158 24.4068 47.3003 26.8971 47.3003H39.0073C41.4977 47.3003 43.6102 46.4158 45.0987 44.8465C46.5849 43.2795 47.4131 41.0681 47.4131 38.4748V26.9656C47.4131 24.3656 46.5851 22.1507 45.0989 20.5818C43.6104 19.0106 41.4977 18.126 39.0073 18.126Z" stroke="url(#paint2_linear_1_1458)" stroke-linecap="round" stroke-linejoin="round"/>
</g>
<path d="M48.395 16.5557C47.2615 16.5557 46.3426 17.4824 46.3426 18.6256C46.3426 19.7688 47.2615 20.6956 48.395 20.6956C49.5285 20.6956 50.4474 19.7688 50.4474 18.6256C50.4474 18.0766 50.2312 17.5501 49.8463 17.1619C49.4614 16.7737 48.9394 16.5557 48.395 16.5557Z" fill="url(#paint3_linear_1_1458)"/>
<g filter="url(#filter2_bd_1_1458)">
<path d="M40.253 30.217L36.2612 35.412C36.0932 35.6378 35.8414 35.7852 35.5634 35.8201C35.2854 35.8551 35.0053 35.7748 34.7873 35.5976L30.9552 32.5671L27.5038 37.0695C27.2538 37.4698 26.7671 37.6496 26.3194 37.5071C25.8717 37.3646 25.576 36.9356 25.6 36.4634V36.4634C25.5979 36.2298 25.676 36.0026 25.8211 35.8202L29.948 30.452C30.1139 30.228 30.3625 30.0807 30.6375 30.0435C30.9125 30.0063 31.1908 30.0822 31.4096 30.2541L35.2417 33.2969L38.6071 28.9306C38.7689 28.7054 39.0145 28.556 39.2876 28.5164C39.5607 28.4767 39.8382 28.5503 40.0565 28.7203C40.5075 29.0761 40.5947 29.7291 40.253 30.1922V30.217Z" fill="url(#paint4_linear_1_1458)"/>
<path d="M25.7997 36.4735L25.6 36.4634L25.8 36.4616C25.7983 36.2737 25.8611 36.0911 25.9776 35.9447L25.9776 35.9447L25.9796 35.9421L30.1065 30.5739L30.1066 30.5739L30.1087 30.571C30.2427 30.3902 30.443 30.2717 30.6643 30.2417C30.8854 30.2117 31.1094 30.2727 31.2857 30.411C31.2858 30.4111 31.2859 30.4112 31.286 30.4113L35.1174 33.4535L35.2763 33.5797L35.4002 33.419L38.7656 29.0526L38.7656 29.0527L38.7695 29.0473C38.8998 28.866 39.0972 28.7461 39.3163 28.7143C39.5352 28.6825 39.7577 28.7414 39.9331 28.8777C40.2987 29.1665 40.3698 29.6971 40.0921 30.0735L40.053 30.1264V30.149L36.1026 35.2902L36.1026 35.2902L36.1007 35.2927C35.9651 35.475 35.7621 35.5936 35.5384 35.6217C35.3148 35.6499 35.0892 35.5853 34.9135 35.4424L34.9135 35.4424L34.9113 35.4407L31.0792 32.4102L30.92 32.2843L30.7964 32.4454L27.345 36.9478L27.3392 36.9554L27.3341 36.9636C27.1323 37.2868 26.7401 37.4312 26.3801 37.3165C26.0197 37.2018 25.7803 36.8559 25.7997 36.4735Z" stroke="url(#paint5_linear_1_1458)" stroke-width="0.4"/>
</g>
<defs>
<filter id="filter0_f_1_1458" x="0.333374" y="0.311523" width="54.402" height="53.8799" filterUnits="userSpaceOnUse" color-interpolation-filters="sRGB">
<feFlood flood-opacity="0" result="BackgroundImageFix"/>
<feBlend mode="normal" in="SourceGraphic" in2="BackgroundImageFix" result="shape"/>
<feGaussianBlur stdDeviation="8.5" result="effect1_foregroundBlur_1_1458"/>
</filter>
<filter id="filter1_b_1_1458" x="-6.02271" y="-6.37402" width="77.9359" height="78.1748" filterUnits="userSpaceOnUse" color-interpolation-filters="sRGB">
<feFlood flood-opacity="0" result="BackgroundImageFix"/>
<feGaussianBlur in="BackgroundImageFix" stdDeviation="12"/>
<feComposite in2="SourceAlpha" operator="in" result="effect1_backgroundBlur_1_1458"/>
<feBlend mode="normal" in="SourceGraphic" in2="effect1_backgroundBlur_1_1458" result="shape"/>
</filter>
<filter id="filter2_bd_1_1458" x="10.5986" y="13.5059" width="44.8629" height="39.0498" filterUnits="userSpaceOnUse" color-interpolation-filters="sRGB">
<feFlood flood-opacity="0" result="BackgroundImageFix"/>
<feGaussianBlur in="BackgroundImageFix" stdDeviation="7.5"/>
<feComposite in2="SourceAlpha" operator="in" result="effect1_backgroundBlur_1_1458"/>
<feColorMatrix in="SourceAlpha" type="matrix" values="0 0 0 0 0 0 0 0 0 0 0 0 0 0 0 0 0 0 127 0" result="hardAlpha"/>
<feOffset dx="5" dy="5"/>
<feGaussianBlur stdDeviation="5"/>
<feColorMatrix type="matrix" values="0 0 0 0 1 0 0 0 0 0.321569 0 0 0 0 0.54902 0 0 0 0.5 0"/>
<feBlend mode="normal" in2="effect1_backgroundBlur_1_1458" result="effect2_dropShadow_1_1458"/>
<feBlend mode="normal" in="SourceGraphic" in2="effect2_dropShadow_1_1458" result="shape"/>
</filter>
<linearGradient id="paint0_linear_1_1458" x1="30.0019" y1="28.5377" x2="9.22543" y2="46.3996" gradientUnits="userSpaceOnUse">
<stop stop-color="#FAB8C4"/>
<stop offset="1" stop-color="#F1A0AF"/>
</linearGradient>
<linearGradient id="paint1_linear_1_1458" x1="37.4108" y1="9.99644" x2="24.1647" y2="37.4982" gradientUnits="userSpaceOnUse">
<stop stop-color="#9BF763"/>
<stop offset="1" stop-color="#26AB5B"/>
</linearGradient>
<linearGradient id="paint2_linear_1_1458" x1="23.4242" y1="21.9083" x2="41.4281" y2="44.0177" gradientUnits="userSpaceOnUse">
<stop stop-color="white" stop-opacity="0.25"/>
<stop offset="1" stop-color="white" stop-opacity="0"/>
</linearGradient>
<linearGradient id="paint3_linear_1_1458" x1="50.4474" y1="16.5557" x2="47.5247" y2="19.945" gradientUnits="userSpaceOnUse">
<stop stop-color="#9BF763"/>
<stop offset="1" stop-color="#26AB5B"/>
</linearGradient>
<linearGradient id="paint4_linear_1_1458" x1="39.4077" y1="30.14" x2="22.8817" y2="31.025" gradientUnits="userSpaceOnUse">
<stop stop-color="white"/>
<stop offset="1" stop-color="white" stop-opacity="0.2"/>
</linearGradient>
<linearGradient id="paint5_linear_1_1458" x1="27.9646" y1="29.5602" x2="32.6407" y2="39.0719" gradientUnits="userSpaceOnUse">
<stop stop-color="white" stop-opacity="0.25"/>
<stop offset="1" stop-color="white" stop-opacity="0"/>
</linearGradient>
</defs>
</svg>
