<svg width="50" height="52" viewBox="0 0 50 52" fill="none" xmlns="http://www.w3.org/2000/svg">
<path d="M50.0009 10.0002V16.0502C50.0009 20.0002 47.5009 22.5002 43.5509 22.5002H35.0009V5.0252C35.0009 2.2502 37.2759 -0.0247959 40.0509 0.000204094C42.7759 0.0252041 45.2759 1.1252 47.0759 2.9252C48.8759 4.7502 50.0009 7.2502 50.0009 10.0002Z" fill="#5FC33B"/>
<path opacity="0.4" d="M0.000915527 12.5V47.5C0.000915527 49.575 2.35092 50.75 4.00092 49.5L8.27592 46.3C9.27592 45.55 10.6759 45.65 11.5759 46.55L15.7259 50.725C16.7009 51.7 18.3009 51.7 19.2759 50.725L23.4759 46.525C24.3509 45.65 25.7509 45.55 26.7259 46.3L31.0009 49.5C32.6509 50.725 35.0009 49.55 35.0009 47.5V5C35.0009 2.25 37.2509 0 40.0009 0H12.5009H10.0009C2.50092 0 0.000915527 4.475 0.000915527 10V12.5Z" fill="#5FC33B"/>
<path d="M25.0009 25.6504H17.5009C16.4759 25.6504 15.6259 26.5004 15.6259 27.5254C15.6259 28.5504 16.4759 29.4004 17.5009 29.4004H25.0009C26.0259 29.4004 26.8759 28.5504 26.8759 27.5254C26.8759 26.5004 26.0259 25.6504 25.0009 25.6504Z" fill="#5FC33B"/>
<path d="M17.5009 19.4004H25.0009C26.0259 19.4004 26.8759 18.5504 26.8759 17.5254C26.8759 16.5004 26.0259 15.6504 25.0009 15.6504H17.5009C16.4759 15.6504 15.6259 16.5004 15.6259 17.5254C15.6259 18.5504 16.4759 19.4004 17.5009 19.4004Z" fill="#5FC33B"/>
<path d="M9.92584 15.0254C8.52584 15.0254 7.42584 16.1504 7.42584 17.5254C7.42584 18.9004 8.55084 20.0254 9.92584 20.0254C11.3008 20.0254 12.4258 18.9004 12.4258 17.5254C12.4258 16.1504 11.3008 15.0254 9.92584 15.0254Z" fill="#5FC33B"/>
<path d="M9.92584 25.0254C8.52584 25.0254 7.42584 26.1504 7.42584 27.5254C7.42584 28.9004 8.55084 30.0254 9.92584 30.0254C11.3008 30.0254 12.4258 28.9004 12.4258 27.5254C12.4258 26.1504 11.3008 25.0254 9.92584 25.0254Z" fill="#5FC33B"/>
</svg>
