<svg width="50" height="50" viewBox="0 0 50 50" fill="none" xmlns="http://www.w3.org/2000/svg">
<path opacity="0.3" d="M45.931 1.74438V29.8839C45.931 34.3025 43.6055 36.6281 39.1869 36.6281H10.8148C6.39616 36.6281 4.07059 34.3025 4.07059 29.8839V1.74438H45.931Z" fill="#FFAF37"/>
<path d="M48.2567 3.48837H1.74504C0.791552 3.48837 0.000854492 2.69767 0.000854492 1.74419C0.000854492 0.790698 0.791552 0 1.74504 0H48.2567C49.2102 0 50.0009 0.790698 50.0009 1.74419C50.0009 2.69767 49.2102 3.48837 48.2567 3.48837Z" fill="#FFAF37"/>
<path d="M35.8613 49.0465C35.559 49.6512 34.931 50 34.3031 50C34.0473 50 33.7683 49.9303 33.5357 49.814L25.0008 45.5582L16.4659 49.814C16.2333 49.9303 15.9543 50 15.6985 50C15.0706 50 14.4426 49.6512 14.1403 49.0465C13.6984 48.1628 14.0473 47.1163 14.9311 46.6977L23.2566 42.5349V36.6279H26.745V42.5349L35.0705 46.6977C35.9543 47.1163 36.3032 48.1628 35.8613 49.0465Z" fill="#FFAF37"/>
<path d="M14.5357 24.4182C14.0473 24.4182 13.5357 24.2089 13.1869 23.7903C12.559 23.0461 12.6752 21.9531 13.4194 21.3252L20.745 15.2089C21.4194 14.6508 22.2798 14.4182 23.0938 14.5578C23.931 14.6973 24.652 15.2089 25.0938 15.953L27.5357 20.0228L34.3496 14.3485C35.0938 13.7206 36.1868 13.8368 36.8147 14.581C37.4426 15.3251 37.3264 16.4182 36.5822 17.0461L29.2566 23.1624C28.5822 23.7205 27.7217 23.9531 26.9078 23.8135C26.0706 23.674 25.3496 23.1624 24.9078 22.4182L22.4659 18.3485L15.652 24.0228C15.3264 24.2786 14.931 24.4182 14.5357 24.4182Z" fill="#FFAF37"/>
</svg>
