<svg width="46" height="44" viewBox="0 0 46 44" fill="none" xmlns="http://www.w3.org/2000/svg">
<path opacity="0.3" d="M45.281 18.2711L43.0255 27.8916C41.0922 36.2003 37.2716 39.5606 30.0907 38.8701C28.9399 38.778 27.6971 38.5709 26.3621 38.2487L22.4955 37.3281C12.898 35.0495 9.92896 30.3083 12.1845 20.6877L14.44 11.0442C14.9003 9.08784 15.4527 7.38468 16.1432 5.98072C18.836 0.410929 23.4161 -1.08509 31.1034 0.733149L34.947 1.63076C44.5905 3.8863 47.5366 8.65054 45.281 18.2711Z" fill="#5FC33B"/>
<path d="M30.0907 38.8703C28.6637 39.837 26.8685 40.6425 24.682 41.356L21.0456 42.5528C11.9083 45.4989 7.09806 43.0362 4.12904 33.899L1.18304 24.8078C-1.76297 15.6706 0.67669 10.8373 9.81391 7.89126L13.4504 6.69444C14.394 6.39524 15.2916 6.14207 16.1432 5.98096C15.4527 7.38491 14.9004 9.08807 14.4401 11.0444L12.1845 20.688C9.92899 30.3085 12.898 35.0497 22.4955 37.3283L26.3622 38.2489C27.6971 38.5711 28.9399 38.7783 30.0907 38.8703Z" fill="#5FC33B"/>
<path d="M35.6835 18.4324C35.5454 18.4324 35.4073 18.4094 35.2462 18.3864L24.0836 15.5555C23.163 15.3253 22.6106 14.3817 22.8408 13.461C23.0709 12.5404 24.0146 11.988 24.9352 12.2182L36.0978 15.0491C37.0184 15.2793 37.5708 16.2229 37.3406 17.1435C37.1565 17.9031 36.443 18.4324 35.6835 18.4324Z" fill="#5FC33B"/>
<path d="M28.9399 26.2114C28.8018 26.2114 28.6637 26.1884 28.5026 26.1654L21.8051 24.4622C20.8844 24.232 20.3321 23.2884 20.5622 22.3678C20.7924 21.4471 21.736 20.8948 22.6567 21.1249L29.3542 22.8281C30.2748 23.0582 30.8272 24.0019 30.5971 24.9225C30.4129 25.705 29.7225 26.2114 28.9399 26.2114Z" fill="#5FC33B"/>
</svg>
