<svg width="80" height="25" viewBox="0 0 80 25" fill="none" xmlns="http://www.w3.org/2000/svg">
<path d="M59.5644 23.2196L66.2443 15.85L59.5644 8.47949H66.6124L69.9209 12.0596L73.1068 8.47949H79.9089L73.2607 15.8196L80.0002 23.2196H72.9232L69.6447 19.61L66.3972 23.2196H59.5644Z" fill="#FF6600"/>
<path d="M59.5647 5.17529H51.9991V8.47948H59.5647V13.4592H51.9991V18.0299H59.5647V23.2196H46.4385V0H59.5647V5.17529Z" fill="#FF6600"/>
<path d="M40.9015 0V9.50257H40.8406C39.6147 8.11907 38.0831 7.6383 36.3059 7.6383C32.6656 7.6383 29.9234 10.0681 28.9608 13.2807C27.8631 9.7409 25.0321 7.57196 20.8342 7.57196C17.4251 7.57196 14.7331 9.07446 13.3282 11.5228V8.47982H6.28153V5.17598H13.9714V0H0V23.2199H6.28153V13.4592H12.5425C12.3559 14.1762 12.2562 14.9439 12.2562 15.754C12.2562 20.5976 16.0248 23.9961 20.8342 23.9961C24.8785 23.9961 27.5437 22.1319 28.9535 18.733H23.5705C22.8423 19.754 22.2899 20.0573 20.8342 20.0573C19.1462 20.0573 17.6908 18.6112 17.6908 16.8971H28.6519C29.1273 20.7443 32.1794 24.0621 36.3679 24.0621C38.1747 24.0621 39.8289 23.1895 40.8406 21.7161H40.9015V23.2192H46.4388V0H40.9015ZM17.8656 13.5286C18.2149 12.0538 19.3799 11.0899 20.8342 11.0899C22.4351 11.0899 23.5409 12.024 23.8317 13.5286C23.9542 13.5286 17.8656 13.5286 17.8656 13.5286ZM37.5412 19.6842C35.5 19.6842 34.2317 17.8169 34.2317 15.8671C34.2317 13.783 35.335 11.7789 37.5412 11.7789C39.8289 11.7789 40.7403 13.783 40.7403 15.8671C40.7399 17.8436 39.7742 19.6842 37.5412 19.6842Z" fill="#652C8F"/>
</svg>
