<svg width="34" height="37" viewBox="0 0 34 37" fill="none" xmlns="http://www.w3.org/2000/svg">
<path fill-rule="evenodd" clip-rule="evenodd" d="M20.926 35.4718C18.4966 36.8427 15.5034 36.8427 13.074 35.4718L3.92599 30.3092C1.49659 28.9382 4.03017e-06 26.4045 4.26988e-06 23.6626L5.17253e-06 13.3375C5.41225e-06 10.5954 1.49659 8.06175 3.92599 6.69081L13.074 1.52827C15.5034 0.157243 18.4966 0.157244 20.926 1.52827L30.074 6.69081C32.5034 8.06175 34 10.5954 34 13.3375L34 23.6626C34 26.4045 32.5034 28.9382 30.074 30.3092L20.926 35.4718Z" fill="url(#paint0_linear_1_1556)"/>
<path fill-rule="evenodd" clip-rule="evenodd" d="M15.2272 17.4221C16.2393 16.8333 17.4873 16.8237 18.5084 17.3969L25.3918 21.2612C25.9543 21.5771 25.9543 22.3869 25.3918 22.7026L18.5084 26.5671C17.4873 27.1403 16.2393 27.1307 15.2273 26.5418L8.61793 22.6964C8.07006 22.3777 8.07006 21.5863 8.61793 21.2676L15.2272 17.4221Z" fill="white" fill-opacity="0.3"/>
<path opacity="0.9" fill-rule="evenodd" clip-rule="evenodd" d="M15.2272 17.4221C16.2393 16.8333 17.4873 16.8237 18.5084 17.3969L25.3918 21.2612C25.9543 21.5771 25.9543 22.3868 25.3918 22.7026L18.5084 26.5671C17.4873 27.1403 16.2393 27.1307 15.2273 26.5418L8.61793 22.6964C8.07006 22.3776 8.07006 21.5863 8.61793 21.2675L15.2272 17.4221Z" fill="url(#paint1_linear_1_1556)" fill-opacity="0.3"/>
<path fill-rule="evenodd" clip-rule="evenodd" d="M15.2272 14.4221C16.2393 13.8333 17.4873 13.8237 18.5084 14.3969L25.3918 18.2612C25.9543 18.5771 25.9543 19.3868 25.3918 19.7026L18.5084 23.5671C17.4873 24.1403 16.2393 24.1307 15.2273 23.5418L8.61793 19.6964C8.07006 19.3776 8.07006 18.5863 8.61793 18.2675L15.2272 14.4221Z" fill="white" fill-opacity="0.4"/>
<path fill-rule="evenodd" clip-rule="evenodd" d="M15.2272 14.4221C16.2393 13.8332 17.4873 13.8237 18.5084 14.3969L25.3918 18.2612C25.9543 18.5771 25.9543 19.3868 25.3918 19.7027L18.5084 23.567C17.4873 24.1402 16.2393 24.1307 15.2273 23.5418L8.61793 19.6964C8.07006 19.3776 8.07006 18.5863 8.61793 18.2675L15.2272 14.4221Z" fill="url(#paint2_linear_1_1556)" fill-opacity="0.4"/>
<path fill-rule="evenodd" clip-rule="evenodd" d="M15.0202 10.9485C16.0323 10.3596 17.2803 10.3501 18.3013 10.9233L25.1848 14.7876C25.7473 15.1035 25.7473 15.9132 25.1848 16.229L18.3013 20.0934C17.2803 20.6666 16.0323 20.6571 15.0203 20.0682L8.4109 16.2228C7.86303 15.904 7.86303 15.1127 8.4109 14.7939L15.0202 10.9485Z" fill="white"/>
<defs>
<linearGradient id="paint0_linear_1_1556" x1="5" y1="47.4179" x2="38.0204" y2="11.6512" gradientUnits="userSpaceOnUse">
<stop stop-color="#6C26FF"/>
<stop offset="0.322917" stop-color="#D51ABC"/>
<stop offset="1" stop-color="#FFAA12"/>
<stop offset="1" stop-color="#FFC530"/>
</linearGradient>
<linearGradient id="paint1_linear_1_1556" x1="18.7076" y1="18.5223" x2="8.74557" y2="23.8648" gradientUnits="userSpaceOnUse">
<stop stop-color="white" stop-opacity="0.475"/>
<stop offset="1" stop-color="white" stop-opacity="0.273"/>
</linearGradient>
<linearGradient id="paint2_linear_1_1556" x1="20.6887" y1="16.8786" x2="12.8111" y2="21.4854" gradientUnits="userSpaceOnUse">
<stop stop-color="white" stop-opacity="0.201"/>
<stop offset="1" stop-color="white" stop-opacity="0.698"/>
</linearGradient>
</defs>
</svg>
