<svg width="16" height="18" viewBox="0 0 16 18" fill="none" xmlns="http://www.w3.org/2000/svg">
<path d="M6.34417 9.73345L1.81068 7.35002C1.46136 7.17045 1.05769 7.18677 0.731652 7.39899C0.397851 7.61938 0.203781 7.98669 0.203781 8.39481V12.8923C0.203781 13.6677 0.61521 14.3697 1.27505 14.7207L5.80077 17.1041C5.95603 17.1858 6.12681 17.2266 6.29759 17.2266C6.49942 17.2266 6.70126 17.1694 6.8798 17.0552C7.2136 16.8429 7.40767 16.4675 7.40767 16.0593V11.5618C7.41543 10.7782 7.004 10.0763 6.34417 9.73345Z" fill="#D9DADC"/>
<path d="M15.3848 7.40224C15.051 7.19009 14.6473 7.16561 14.3057 7.35328L9.77995 9.73592C9.1201 10.0868 8.70866 10.7804 8.70866 11.5637V16.0597C8.70866 16.4677 8.90274 16.8431 9.23654 17.0552C9.41509 17.1694 9.61693 17.2266 9.81876 17.2266C9.98955 17.2266 10.1603 17.1858 10.3156 17.1042L14.8414 14.7215C15.5012 14.3707 15.9127 13.6771 15.9127 12.8937V8.39773C15.9127 7.98974 15.7186 7.62255 15.3848 7.40224Z" fill="#D9DADC"/>
<path d="M14.1156 3.48783L9.06264 0.745434C8.53074 0.453345 7.88602 0.453345 7.35413 0.745434L2.30114 3.48783C1.93042 3.69067 1.70477 4.08012 1.70477 4.52637C1.70477 4.9645 1.93042 5.36207 2.30114 5.56491L7.35413 8.3073C7.62008 8.45334 7.91826 8.52637 8.20838 8.52637C8.49851 8.52637 8.79669 8.45334 9.06264 8.3073L14.1156 5.56491C14.4863 5.36207 14.712 4.97261 14.712 4.52637C14.712 4.08012 14.4863 3.69067 14.1156 3.48783Z" fill="#D9DADC"/>
</svg>
