<svg width="17" height="17" viewBox="0 0 17 17" fill="none" xmlns="http://www.w3.org/2000/svg">
<path d="M6.78833 9.20708L2.25485 6.82365C1.90552 6.64408 1.50186 6.6604 1.17582 6.87263C0.84202 7.09301 0.647949 7.46032 0.647949 7.86844V12.3659C0.647949 13.1414 1.05938 13.8433 1.71922 14.1943L6.24494 16.5778C6.40019 16.6594 6.57098 16.7002 6.74176 16.7002C6.94359 16.7002 7.14542 16.6431 7.32397 16.5288C7.65777 16.3166 7.85184 15.9411 7.85184 15.533V11.0355C7.8596 10.2519 7.44817 9.5499 6.78833 9.20708Z" fill="#6865FF"/>
<path d="M15.8288 6.87587C15.495 6.66372 15.0914 6.63924 14.7498 6.82691L10.224 9.20956C9.56415 9.56043 9.15271 10.254 9.15271 11.0373V15.5334C9.15271 15.9413 9.34678 16.3167 9.68059 16.5288C9.85914 16.6431 10.061 16.7002 10.2628 16.7002C10.4336 16.7002 10.6044 16.6594 10.7596 16.5778L15.2854 14.1952C15.9453 13.8443 16.3567 13.1507 16.3567 12.3674V7.87136C16.3567 7.46337 16.1626 7.09619 15.8288 6.87587Z" fill="#6865FF"/>
<path d="M14.3593 2.96146L9.30635 0.219067C8.77446 -0.0730223 8.12974 -0.0730223 7.59784 0.219067L2.54485 2.96146C2.17414 3.1643 1.94849 3.55375 1.94849 4C1.94849 4.43813 2.17414 4.8357 2.54485 5.03854L7.59784 7.78093C7.86379 7.92698 8.16197 8 8.4521 8C8.74222 8 9.0404 7.92698 9.30635 7.78093L14.3593 5.03854C14.7301 4.8357 14.9557 4.44625 14.9557 4C14.9557 3.55375 14.7301 3.1643 14.3593 2.96146Z" fill="#FF94BA"/>
</svg>
