<svg width="60" height="50" viewBox="0 0 60 50" fill="none" xmlns="http://www.w3.org/2000/svg">
<path d="M31.7001 35.1851C31.564 35.2637 31.41 35.3112 31.2507 35.3189L26.1171 35.5673C24.6601 35.6372 23.4068 35.4952 22.2841 35.1349C19.8276 34.3477 17.7664 32.7067 16.4814 30.5117L12.2494 23.289C11.7608 22.4555 11.8705 21.3909 12.5194 20.6391L18.3323 13.9248C18.6754 13.5225 19.1555 13.2425 19.6801 13.1367L28.3795 11.358C29.3526 11.1576 30.3352 11.5845 30.8221 12.4175L35.0571 19.6456C36.3414 21.8367 36.7656 24.4343 36.2529 26.96C36.0175 28.1187 35.5271 29.2803 34.7553 30.5115L32.0354 34.8587C31.9514 34.9943 31.8356 35.1054 31.7001 35.1851" fill="#FF3C82"/>
<g filter="url(#filter0_f_1_1498)">
<path d="M29.4358 30.8824C29.3435 30.9357 29.2405 30.9706 29.1356 30.9812L25.7546 31.3244C24.795 31.4214 23.977 31.3809 23.253 31.2016C21.6689 30.8098 20.376 29.8796 19.6136 28.5807L17.1026 24.3065C16.8126 23.8133 16.9243 23.156 17.3784 22.6707L21.4461 18.3351C21.6864 18.0755 22.0121 17.8859 22.3606 17.8015L28.1407 16.3869C28.7873 16.2278 29.4168 16.4532 29.7056 16.9462L32.2185 21.2235C32.9805 22.5201 33.1626 24.0981 32.7319 25.6668C32.5342 26.3864 32.169 27.1174 31.6163 27.9014L29.6681 30.6697C29.6079 30.756 29.5277 30.8285 29.4358 30.8824" fill="#1EA51F" fill-opacity="0.5"/>
</g>
<g filter="url(#filter1_b_1_1498)">
<mask id="path-3-outside-1_1_1498" maskUnits="userSpaceOnUse" x="19.0024" y="11.14" width="36.1154" height="40.2909" fill="black">
<rect fill="white" x="19.0024" y="11.14" width="36.1154" height="40.2909"/>
<path d="M34.5064 47.8265C34.2999 47.7947 34.1006 47.7155 33.929 47.5904L28.4001 43.5592C26.8314 42.4144 25.6504 41.2187 24.7868 39.9044C22.8963 37.0299 22.1269 33.5947 22.624 30.2303L24.2559 19.1564C24.444 17.8782 25.4449 16.8589 26.744 16.6168L38.3657 14.4687C39.0566 14.3356 39.7876 14.4446 40.4196 14.7727L50.9205 20.1874C52.0963 20.7915 52.7592 22.0582 52.5697 23.3344L50.9366 34.4165C50.4419 37.7763 48.717 40.8415 46.0807 43.0486C44.8711 44.0609 43.3947 44.8632 41.5685 45.503L35.126 47.7661C34.9259 47.8374 34.7133 47.8566 34.5064 47.8265"/>
</mask>
<path d="M34.5064 47.8265C34.2999 47.7947 34.1006 47.7155 33.929 47.5904L28.4001 43.5592C26.8314 42.4144 25.6504 41.2187 24.7868 39.9044C22.8963 37.0299 22.1269 33.5947 22.624 30.2303L24.2559 19.1564C24.444 17.8782 25.4449 16.8589 26.744 16.6168L38.3657 14.4687C39.0566 14.3356 39.7876 14.4446 40.4196 14.7727L50.9205 20.1874C52.0963 20.7915 52.7592 22.0582 52.5697 23.3344L50.9366 34.4165C50.4419 37.7763 48.717 40.8415 46.0807 43.0486C44.8711 44.0609 43.3947 44.8632 41.5685 45.503L35.126 47.7661C34.9259 47.8374 34.7133 47.8566 34.5064 47.8265" fill="#FF3C82" fill-opacity="0.35"/>
<path d="M34.3544 48.8148C34.9002 48.8987 35.4108 48.5242 35.4948 47.9784C35.5788 47.4325 35.2044 46.922 34.6585 46.8381L34.3544 48.8148ZM33.929 47.5904L34.5184 46.7825L34.5183 46.7824L33.929 47.5904ZM28.4001 43.5592L27.8105 44.367L27.8108 44.3672L28.4001 43.5592ZM24.7868 39.9044L25.6226 39.3552L25.6223 39.3549L24.7868 39.9044ZM22.624 30.2303L23.6133 30.3763L23.6134 30.376L22.624 30.2303ZM24.2559 19.1564L25.2452 19.302L25.2453 19.3018L24.2559 19.1564ZM26.744 16.6168L26.5624 15.6335L26.5609 15.6338L26.744 16.6168ZM38.3657 14.4687L38.5473 15.452L38.5547 15.4506L38.3657 14.4687ZM40.4196 14.7727L39.9587 15.6602L39.9612 15.6615L40.4196 14.7727ZM50.9205 20.1874L50.4621 21.0761L50.4634 21.0768L50.9205 20.1874ZM52.5697 23.3344L51.5805 23.1877L51.5803 23.1888L52.5697 23.3344ZM50.9366 34.4165L49.9472 34.2709L49.9472 34.271L50.9366 34.4165ZM46.0807 43.0486L46.7224 43.8154L46.7226 43.8153L46.0807 43.0486ZM41.5685 45.503L41.238 44.5593L41.2372 44.5595L41.5685 45.503ZM35.126 47.7661L34.7947 46.8226L34.7903 46.8242L35.126 47.7661ZM34.6507 46.8369C34.1042 46.7573 33.5966 47.1359 33.5169 47.6824C33.4372 48.2289 33.8157 48.7364 34.3622 48.816L34.6507 46.8369ZM34.6585 46.8381C34.6021 46.8294 34.5544 46.8087 34.5184 46.7825L33.3397 48.3984C33.6468 48.6224 33.9976 48.76 34.3544 48.8148L34.6585 46.8381ZM34.5183 46.7824L28.9894 42.7512L27.8108 44.3672L33.3398 48.3985L34.5183 46.7824ZM28.9897 42.7514C27.4964 41.6616 26.4071 40.5491 25.6226 39.3552L23.951 40.4536C24.8937 41.8883 26.1664 43.1671 27.8105 44.367L28.9897 42.7514ZM25.6223 39.3549C23.8647 36.6824 23.1526 33.4943 23.6133 30.3763L21.6347 30.0843C21.1013 33.6951 21.9278 37.3774 23.9512 40.454L25.6223 39.3549ZM23.6134 30.376L25.2452 19.302L23.2665 19.0107L21.6347 30.0847L23.6134 30.376ZM25.2453 19.3018C25.369 18.4612 26.0332 17.7665 26.9271 17.5999L26.5609 15.6338C24.8566 15.9514 23.519 17.2953 23.2665 19.0109L25.2453 19.3018ZM26.9256 17.6001L38.5473 15.452L38.184 13.4854L26.5624 15.6335L26.9256 17.6001ZM38.5547 15.4506C39.0204 15.3609 39.5228 15.4339 39.9587 15.6602L40.8805 13.8852C40.0525 13.4553 39.0928 13.3103 38.1766 13.4868L38.5547 15.4506ZM39.9612 15.6615L50.4621 21.0761L51.379 19.2986L40.8781 13.8839L39.9612 15.6615ZM50.4634 21.0768C51.2701 21.4913 51.7051 22.3484 51.5805 23.1877L53.5589 23.4811C53.8133 21.768 52.9224 20.0916 51.3777 19.2979L50.4634 21.0768ZM51.5803 23.1888L49.9472 34.2709L51.9259 34.5622L53.559 23.48L51.5803 23.1888ZM49.9472 34.271C49.4888 37.3847 47.8898 40.23 45.4388 42.2819L46.7226 43.8153C49.5443 41.453 51.3951 38.1679 51.9259 34.562L49.9472 34.271ZM45.4389 42.2818C44.3401 43.2014 42.9759 43.9504 41.238 44.5593L41.899 46.4467C43.8134 45.7761 45.402 44.9205 46.7224 43.8154L45.4389 42.2818ZM41.2372 44.5595L34.7947 46.8226L35.4573 48.7095L41.8998 46.4464L41.2372 44.5595ZM34.7903 46.8242C34.7486 46.839 34.701 46.8442 34.6507 46.8369L34.3622 48.816C34.7255 48.8689 35.1033 48.8357 35.4617 48.708L34.7903 46.8242Z" fill="url(#paint0_linear_1_1498)" mask="url(#path-3-outside-1_1_1498)"/>
</g>
<g filter="url(#filter2_bd_1_1498)">
<path d="M35.1968 34.8269C34.8741 34.779 34.5695 34.6134 34.3577 34.3365L31.6331 30.7714C31.2128 30.2182 31.327 29.4425 31.8897 29.0369C32.4526 28.6298 33.251 28.7475 33.6733 29.2994L35.6339 31.8633L42.1033 27.1912C42.6679 26.7843 43.4663 26.902 43.8869 27.4536C44.3088 28.0071 44.1944 28.7845 43.632 29.1884L36.1413 34.5989C35.8588 34.8032 35.5195 34.8748 35.1968 34.8269Z" fill="url(#paint1_linear_1_1498)"/>
<path d="M31.9481 29.118L31.9483 29.1179C32.4672 28.7426 33.2045 28.8512 33.5938 29.3601C33.5938 29.3601 33.5938 29.3601 33.5938 29.3601L35.5544 31.9241L35.6135 32.0014L35.6924 31.9444L42.1617 27.2723C42.6826 26.8969 43.4198 27.0059 43.8073 27.5142C44.1954 28.0233 44.0899 28.7364 43.5736 29.1071L43.5734 29.1073L36.0827 34.5178L36.0827 34.5179C35.8226 34.706 35.5098 34.7723 35.2115 34.728C34.9128 34.6836 34.6321 34.5306 34.4371 34.2757C34.4371 34.2757 34.4371 34.2757 34.4371 34.2757L31.7127 30.7109C31.7127 30.7109 31.7127 30.7109 31.7126 30.7108C31.3262 30.2021 31.4314 29.4905 31.9481 29.118Z" stroke="url(#paint2_linear_1_1498)" stroke-opacity="0.5" stroke-width="0.2"/>
</g>
<defs>
<filter id="filter0_f_1_1498" x="0.942688" y="0.336914" width="48.0177" height="47.0391" filterUnits="userSpaceOnUse" color-interpolation-filters="sRGB">
<feFlood flood-opacity="0" result="BackgroundImageFix"/>
<feBlend mode="normal" in="SourceGraphic" in2="BackgroundImageFix" result="shape"/>
<feGaussianBlur stdDeviation="8" result="effect1_foregroundBlur_1_1498"/>
</filter>
<filter id="filter1_b_1_1498" x="-2.52344" y="-10.5869" width="80.1254" height="83.4268" filterUnits="userSpaceOnUse" color-interpolation-filters="sRGB">
<feFlood flood-opacity="0" result="BackgroundImageFix"/>
<feGaussianBlur in="BackgroundImageFix" stdDeviation="12"/>
<feComposite in2="SourceAlpha" operator="in" result="effect1_backgroundBlur_1_1498"/>
<feBlend mode="normal" in="SourceGraphic" in2="effect1_backgroundBlur_1_1498" result="shape"/>
</filter>
<filter id="filter2_bd_1_1498" x="16.3797" y="11.9492" width="42.7618" height="37.8916" filterUnits="userSpaceOnUse" color-interpolation-filters="sRGB">
<feFlood flood-opacity="0" result="BackgroundImageFix"/>
<feGaussianBlur in="BackgroundImageFix" stdDeviation="7.5"/>
<feComposite in2="SourceAlpha" operator="in" result="effect1_backgroundBlur_1_1498"/>
<feColorMatrix in="SourceAlpha" type="matrix" values="0 0 0 0 0 0 0 0 0 0 0 0 0 0 0 0 0 0 127 0" result="hardAlpha"/>
<feOffset dx="5" dy="5"/>
<feGaussianBlur stdDeviation="5"/>
<feColorMatrix type="matrix" values="0 0 0 0 0.454902 0 0 0 0 0.870588 0 0 0 0 0.376471 0 0 0 0.5 0"/>
<feBlend mode="normal" in2="effect1_backgroundBlur_1_1498" result="effect2_dropShadow_1_1498"/>
<feBlend mode="normal" in="SourceGraphic" in2="effect2_dropShadow_1_1498" result="shape"/>
</filter>
<linearGradient id="paint0_linear_1_1498" x1="29.2303" y1="16.8588" x2="47.4387" y2="43.0865" gradientUnits="userSpaceOnUse">
<stop stop-color="white" stop-opacity="0.25"/>
<stop offset="1" stop-color="white" stop-opacity="0"/>
</linearGradient>
<linearGradient id="paint1_linear_1_1498" x1="43.2036" y1="28.6247" x2="29.5105" y2="27.1435" gradientUnits="userSpaceOnUse">
<stop stop-color="white"/>
<stop offset="1" stop-color="white" stop-opacity="0.2"/>
</linearGradient>
<linearGradient id="paint2_linear_1_1498" x1="32.9549" y1="28.4542" x2="43.3189" y2="30.1299" gradientUnits="userSpaceOnUse">
<stop stop-color="white"/>
<stop offset="1" stop-color="white" stop-opacity="0"/>
</linearGradient>
</defs>
</svg>
