<svg width="37" height="46" viewBox="0 0 37 46" fill="none" xmlns="http://www.w3.org/2000/svg">
<path opacity="0.3" d="M35.0564 10.0237C32.6641 5.19307 28.0406 1.62762 22.6809 0.454467C17.0682 -0.78769 11.3174 0.546479 6.92388 4.08893C2.50732 7.60837 0 12.876 0 18.5118C0 24.4695 3.56545 30.7033 8.94814 34.3148V36.224C8.92513 36.8681 8.90213 37.8572 9.68423 38.6623C10.4893 39.4904 11.6855 39.5824 12.6286 39.5824H24.4291C25.6713 39.5824 26.6144 39.2374 27.2585 38.5933C28.1326 37.6962 28.1096 36.546 28.0866 35.925V34.3148C35.2175 29.5072 39.703 19.3629 35.0564 10.0237Z" fill="#FFAB0A"/>
<path d="M25.9703 45.9997C25.8323 45.9997 25.6713 45.9767 25.5333 45.9307C20.9097 44.6195 16.0561 44.6195 11.4325 45.9307C10.5814 46.1607 9.68426 45.6776 9.45423 44.8265C9.2012 43.9754 9.70727 43.0783 10.5584 42.8483C15.757 41.3761 21.2317 41.3761 26.4304 42.8483C27.2815 43.1013 27.7876 43.9754 27.5345 44.8265C27.3045 45.5396 26.6604 45.9997 25.9703 45.9997Z" fill="#FFAB0A"/>
<path d="M18.4714 27.2527C18.1724 27.2527 17.8733 27.1837 17.6203 27.0227C16.7922 26.5396 16.5161 25.4815 16.9762 24.6764L18.9315 21.272H16.9992C15.8491 21.272 14.9059 20.7659 14.3999 19.9148C13.8938 19.0407 13.9398 17.9826 14.5149 16.9704L16.9762 12.6919C17.4593 11.8638 18.5174 11.5877 19.3225 12.0478C20.1506 12.5309 20.4266 13.589 19.9666 14.3941L18.0113 17.8215H19.9436C21.0937 17.8215 22.0368 18.3276 22.5429 19.1787C23.049 20.0528 23.003 21.1109 22.4279 22.1231L19.9666 26.4016C19.6445 26.9537 19.0695 27.2527 18.4714 27.2527Z" fill="#FFAB0A"/>
</svg>
