<svg width="56" height="59" viewBox="0 0 56 59" fill="none" xmlns="http://www.w3.org/2000/svg">
<path d="M36.8179 43.2521C35.6908 43.9074 34.3514 44.082 33.0953 43.7373L16.5044 39.2314C13.8845 38.5199 12.328 35.7968 13.0279 33.1494L16.242 20.9912C16.5417 19.9552 17.2873 19.1114 18.2718 18.694L29.1458 13.834C31.0486 12.9005 33.3416 13.4784 34.5917 15.2065L41.794 25.0824C42.3989 25.9522 42.5916 27.0477 42.3204 28.0738L39.103 40.2444C38.7672 41.5146 37.9451 42.5968 36.8179 43.2521Z" fill="url(#paint0_linear_1_1418)"/>
<g opacity="0.5" filter="url(#filter0_f_1_1418)">
<path d="M33.5809 37.13C32.892 37.5306 32.0734 37.6373 31.3057 37.4266L21.1655 34.6726C19.5642 34.2377 18.6129 32.5734 19.0407 30.9553L21.0051 23.5244C21.1883 22.8912 21.644 22.3754 22.2457 22.1204L28.8918 19.1499C30.0547 18.5794 31.4562 18.9326 32.2203 19.9888L36.6223 26.0249C36.9919 26.5565 37.1098 27.2261 36.944 27.8532L34.9775 35.2917C34.7723 36.0681 34.2698 36.7295 33.5809 37.13Z" fill="#5956E9"/>
</g>
<g filter="url(#filter1_b_1_1418)">
<path d="M33.5319 44.6327C32.5107 45.6576 31.1261 46.2314 29.6838 46.2277H10.6469C7.64076 46.2277 5.20378 43.7755 5.20378 40.7507V26.8596C5.23142 25.6684 5.79081 24.5531 6.72673 23.8231L16.9926 15.4942C18.7655 13.9482 21.3838 13.9004 23.2113 15.3806L33.7168 23.8231C34.6105 24.5753 35.1269 25.6873 35.127 26.8596V40.7649C35.127 42.2162 34.5531 43.6078 33.5319 44.6327Z" fill="#5956E9" fill-opacity="0.35"/>
<path d="M34.0389 23.4405L34.0388 23.4406C35.0458 24.2881 35.6269 25.5404 35.627 26.8596V40.7649C35.627 42.348 35.0009 43.8667 33.886 44.9856C32.7714 46.1043 31.2595 46.7314 29.6838 46.7277C29.6834 46.7277 29.683 46.7277 29.6825 46.7277M34.0389 23.4405L29.6838 46.2277L29.6825 46.7277M34.0389 23.4405L34.03 23.4334L23.526 14.9921C23.5257 14.9919 23.5255 14.9917 23.5252 14.9915C21.5113 13.3608 18.6264 13.4118 16.6708 15.1113L6.41534 23.4319M34.0389 23.4405L6.41534 23.4319M29.6825 46.7277L10.6469 46.7277C7.3617 46.7277 4.70378 44.0488 4.70378 40.7507V26.8596V26.848L4.70392 26.848C4.73498 25.5092 5.36296 24.2546 6.41534 23.4319M29.6825 46.7277L6.41534 23.4319" stroke="url(#paint1_linear_1_1418)" stroke-linecap="round" stroke-linejoin="round"/>
</g>
<g filter="url(#filter2_bd_1_1418)">
<rect x="13.3036" y="38.1475" width="13.1135" height="3.12744" rx="1.56372" fill="url(#paint2_linear_1_1418)"/>
<rect x="13.4036" y="38.2475" width="12.9135" height="2.92744" rx="1.46372" stroke="url(#paint3_linear_1_1418)" stroke-opacity="0.5" stroke-width="0.2"/>
</g>
<defs>
<filter id="filter0_f_1_1418" x="0.93824" y="0.878906" width="54.0792" height="54.6533" filterUnits="userSpaceOnUse" color-interpolation-filters="sRGB">
<feFlood flood-opacity="0" result="BackgroundImageFix"/>
<feBlend mode="normal" in="SourceGraphic" in2="BackgroundImageFix" result="shape"/>
<feGaussianBlur stdDeviation="9" result="effect1_foregroundBlur_1_1418"/>
</filter>
<filter id="filter1_b_1_1418" x="-19.7962" y="-10.6982" width="79.9232" height="81.9258" filterUnits="userSpaceOnUse" color-interpolation-filters="sRGB">
<feFlood flood-opacity="0" result="BackgroundImageFix"/>
<feGaussianBlur in="BackgroundImageFix" stdDeviation="12"/>
<feComposite in2="SourceAlpha" operator="in" result="effect1_backgroundBlur_1_1418"/>
<feBlend mode="normal" in="SourceGraphic" in2="effect1_backgroundBlur_1_1418" result="shape"/>
</filter>
<filter id="filter2_bd_1_1418" x="-1.69635" y="23.1475" width="45.1135" height="35.127" filterUnits="userSpaceOnUse" color-interpolation-filters="sRGB">
<feFlood flood-opacity="0" result="BackgroundImageFix"/>
<feGaussianBlur in="BackgroundImageFix" stdDeviation="7.5"/>
<feComposite in2="SourceAlpha" operator="in" result="effect1_backgroundBlur_1_1418"/>
<feColorMatrix in="SourceAlpha" type="matrix" values="0 0 0 0 0 0 0 0 0 0 0 0 0 0 0 0 0 0 127 0" result="hardAlpha"/>
<feOffset dx="5" dy="5"/>
<feGaussianBlur stdDeviation="6"/>
<feColorMatrix type="matrix" values="0 0 0 0 0.15375 0 0 0 0 0.522433 0 0 0 0 0.9 0 0 0 0.28 0"/>
<feBlend mode="normal" in2="effect1_backgroundBlur_1_1418" result="effect2_dropShadow_1_1418"/>
<feBlend mode="normal" in="SourceGraphic" in2="effect2_dropShadow_1_1418" result="shape"/>
</filter>
<linearGradient id="paint0_linear_1_1418" x1="45.3325" y1="17.1115" x2="9.16567" y2="31.9169" gradientUnits="userSpaceOnUse">
<stop stop-color="#5350FF"/>
<stop offset="1" stop-color="#605CFF"/>
</linearGradient>
<linearGradient id="paint1_linear_1_1418" x1="9.96706" y1="18.0212" x2="36.687" y2="42.4677" gradientUnits="userSpaceOnUse">
<stop stop-color="white" stop-opacity="0.25"/>
<stop offset="1" stop-color="white" stop-opacity="0"/>
</linearGradient>
<linearGradient id="paint2_linear_1_1418" x1="25.4874" y1="38.7122" x2="11.133" y2="40.6746" gradientUnits="userSpaceOnUse">
<stop stop-color="white"/>
<stop offset="1" stop-color="white" stop-opacity="0.2"/>
</linearGradient>
<linearGradient id="paint3_linear_1_1418" x1="14.7163" y1="39.1966" x2="25.8458" y2="39.4542" gradientUnits="userSpaceOnUse">
<stop stop-color="white"/>
<stop offset="1" stop-color="white" stop-opacity="0"/>
</linearGradient>
</defs>
</svg>
