<svg width="46" height="46" viewBox="0 0 46 46" fill="none" xmlns="http://www.w3.org/2000/svg">
<path opacity="0.3" d="M42.2557 1.60498V27.4934C42.2557 31.5585 40.1162 33.698 36.0511 33.698H9.94876C5.88365 33.698 3.74413 31.5585 3.74413 27.4934V1.60498H42.2557Z" fill="#FF7A41"/>
<path d="M44.3954 3.2093H1.60465C0.727442 3.2093 0 2.48186 0 1.60465C0 0.727442 0.727442 0 1.60465 0H44.3954C45.2726 0 46 0.727442 46 1.60465C46 2.48186 45.2726 3.2093 44.3954 3.2093Z" fill="#FF7A41"/>
<path d="M32.9916 45.1229C32.7134 45.6791 32.1357 46.0001 31.5581 46.0001C31.3227 46.0001 31.066 45.9359 30.852 45.8289L22.9999 41.9136L15.1478 45.8289C14.9338 45.9359 14.6771 46.0001 14.4418 46.0001C13.8641 46.0001 13.2864 45.6791 13.0083 45.1229C12.6018 44.3098 12.9227 43.347 13.7358 42.9619L21.3953 39.1322V33.6978H24.6046V39.1322L32.2641 42.9619C33.0771 43.347 33.3981 44.3098 32.9916 45.1229Z" fill="#FF7A41"/>
<path d="M13.372 22.4649C12.9227 22.4649 12.452 22.2723 12.1311 21.8872C11.5534 21.2026 11.6604 20.197 12.345 19.6193L19.0846 13.9923C19.7051 13.4788 20.4966 13.2649 21.2455 13.3932C22.0157 13.5216 22.679 13.9923 23.0855 14.6769L25.332 18.4211L31.6008 13.2007C32.2855 12.623 33.291 12.7299 33.8687 13.4146C34.4464 14.0993 34.3395 15.1048 33.6548 15.6825L26.9152 21.3095C26.2948 21.823 25.5032 22.0369 24.7543 21.9086C23.9841 21.7802 23.3208 21.3095 22.9143 20.6249L20.6678 16.8807L14.399 22.1011C14.0995 22.3365 13.7357 22.4649 13.372 22.4649Z" fill="#FF7A41"/>
</svg>
