<svg width="30" height="30" viewBox="0 0 30 30" fill="none" xmlns="http://www.w3.org/2000/svg">
<circle cx="15.0002" cy="15" r="14" fill="white" stroke="#9491FC" stroke-width="2"/>
<path opacity="0.3" d="M19.3207 21.3233H18.6005V21.1432C18.6005 20.351 17.9524 19.7029 17.1602 19.7029H15.5398V18.0537C15.3598 18.0753 15.1798 18.0825 14.9997 18.0825C14.8197 18.0825 14.6396 18.0753 14.4596 18.0537V19.7029H12.8392C12.047 19.7029 11.3989 20.351 11.3989 21.1432V21.3233H10.6787C10.3835 21.3233 10.1386 21.5681 10.1386 21.8634C10.1386 22.1586 10.3835 22.4035 10.6787 22.4035H19.3207C19.616 22.4035 19.8608 22.1586 19.8608 21.8634C19.8608 21.5681 19.616 21.3233 19.3207 21.3233Z" fill="#5956E9"/>
<path opacity="0.3" d="M10.3331 14.9426C9.85778 14.7626 9.44009 14.4673 9.10881 14.136C8.43906 13.3943 7.99976 12.5085 7.99976 11.4714C7.99976 10.4344 8.81354 9.62061 9.85058 9.62061H10.2539C10.0666 10.0023 9.9586 10.4272 9.9586 10.8809V13.0414C9.9586 13.7183 10.0882 14.3593 10.3331 14.9426Z" fill="#5956E9"/>
<path opacity="0.3" d="M21.9998 11.4714C21.9998 12.5085 21.5605 13.3943 20.8907 14.136C20.5594 14.4673 20.1418 14.7626 19.6664 14.9426C19.9113 14.3593 20.0409 13.7183 20.0409 13.0414V10.8809C20.0409 10.4272 19.9329 10.0023 19.7457 9.62061H20.149C21.186 9.62061 21.9998 10.4344 21.9998 11.4714Z" fill="#5956E9"/>
<path d="M17.1602 8H12.8392C11.2477 8 9.95856 9.28909 9.95856 10.8807V13.0412C9.95856 15.8282 12.2127 18.0823 14.9997 18.0823C17.7867 18.0823 20.0409 15.8282 20.0409 13.0412V10.8807C20.0409 9.28909 18.7518 8 17.1602 8ZM17.045 12.6451L16.5985 13.1924C16.5265 13.2716 16.476 13.43 16.4832 13.5381L16.5265 14.2438C16.5553 14.6759 16.2456 14.8992 15.8423 14.7407L15.187 14.4815C15.0861 14.4455 14.9133 14.4455 14.8125 14.4815L14.1571 14.7407C13.7538 14.8992 13.4442 14.6759 13.473 14.2438L13.5162 13.5381C13.5234 13.43 13.473 13.2716 13.4009 13.1924L12.9544 12.6451C12.6736 12.3138 12.796 11.9465 13.2137 11.8385L13.8979 11.6656C14.0059 11.6368 14.1355 11.536 14.1931 11.4424L14.5748 10.8519C14.8125 10.4846 15.187 10.4846 15.4246 10.8519L15.8063 11.4424C15.8639 11.536 15.9935 11.6368 16.1016 11.6656L16.7857 11.8385C17.2034 11.9465 17.3258 12.3138 17.045 12.6451Z" fill="#5956E9"/>
<path opacity="0.4" d="M17.0451 12.6453L16.5986 13.1927C16.5265 13.2719 16.4761 13.4303 16.4833 13.5383L16.5265 14.2441C16.5554 14.6762 16.2457 14.8994 15.8424 14.741L15.187 14.4818C15.0862 14.4457 14.9134 14.4457 14.8126 14.4818L14.1572 14.741C13.7539 14.8994 13.4442 14.6762 13.4731 14.2441L13.5163 13.5383C13.5235 13.4303 13.4731 13.2719 13.401 13.1927L12.9545 12.6453C12.6737 12.3141 12.7961 11.9468 13.2138 11.8387L13.8979 11.6659C14.006 11.6371 14.1356 11.5363 14.1932 11.4427L14.5749 10.8521C14.8126 10.4848 15.187 10.4848 15.4247 10.8521L15.8064 11.4427C15.864 11.5363 15.9936 11.6371 16.1017 11.6659L16.7858 11.8387C17.2035 11.9468 17.3259 12.3141 17.0451 12.6453Z" fill="white"/>
</svg>
