<svg width="80" height="25" viewBox="0 0 80 25" fill="none" xmlns="http://www.w3.org/2000/svg">
<path d="M59.5644 23.7196L66.2443 16.35L59.5644 8.97949H66.6124L69.9209 12.5596L73.1068 8.97949H79.9089L73.2607 16.3196L80.0002 23.7196H72.9232L69.6447 20.11L66.3972 23.7196H59.5644Z" fill="#FF6600"/>
<path d="M59.5647 5.67529H51.9991V8.97948H59.5647V13.9592H51.9991V18.5299H59.5647V23.7196H46.4385V0.5H59.5647V5.67529Z" fill="#FF6600"/>
<path d="M40.9015 0.5V10.0026H40.8406C39.6147 8.61907 38.0831 8.1383 36.3059 8.1383C32.6656 8.1383 29.9234 10.5681 28.9608 13.7807C27.8631 10.2409 25.0321 8.07196 20.8342 8.07196C17.4251 8.07196 14.7331 9.57446 13.3282 12.0228V8.97982H6.28153V5.67598H13.9714V0.5H0V23.7199H6.28153V13.9592H12.5425C12.3559 14.6762 12.2562 15.4439 12.2562 16.254C12.2562 21.0976 16.0248 24.4961 20.8342 24.4961C24.8785 24.4961 27.5437 22.6319 28.9535 19.233H23.5705C22.8423 20.254 22.2899 20.5573 20.8342 20.5573C19.1462 20.5573 17.6908 19.1112 17.6908 17.3971H28.6519C29.1273 21.2443 32.1794 24.5621 36.3679 24.5621C38.1747 24.5621 39.8289 23.6895 40.8406 22.2161H40.9015V23.7192H46.4388V0.5H40.9015ZM17.8656 14.0286C18.2149 12.5538 19.3799 11.5899 20.8342 11.5899C22.4351 11.5899 23.5409 12.524 23.8317 14.0286C23.9542 14.0286 17.8656 14.0286 17.8656 14.0286ZM37.5412 20.1842C35.5 20.1842 34.2317 18.3169 34.2317 16.3671C34.2317 14.283 35.335 12.2789 37.5412 12.2789C39.8289 12.2789 40.7403 14.283 40.7403 16.3671C40.7399 18.3436 39.7742 20.1842 37.5412 20.1842Z" fill="#652C8F"/>
</svg>
