<svg width="680" height="24" viewBox="0 0 680 24" fill="none" xmlns="http://www.w3.org/2000/svg">
<path d="M152.232 20.2734C156.264 20.2734 159.741 18.2155 159.741 14.6003C159.741 6.59099 148.505 10.4287 148.505 4.44963C148.505 2.8645 149.534 1.58523 151.648 1.58523C155.708 1.58523 154.679 6.53541 157.683 6.53541C158.878 6.53541 159.462 5.86794 159.462 4.81116C159.49 2.50298 156.403 0 151.731 0C147.143 0 144.362 2.44731 144.362 5.78448C144.389 14.0162 155.625 9.95605 155.625 15.8795C155.625 17.5759 154.345 18.6883 152.399 18.6883C147.699 18.6883 148.45 13.6269 145.669 13.5713C144.528 13.5713 144 14.2943 144 15.2677C144 17.4925 146.948 20.2734 152.232 20.2734ZM173.76 17.1587V6.9803C173.76 6.50763 173.426 6.39638 172.703 6.47974L169.143 7.00808C168.81 7.06376 168.587 7.31403 168.587 7.5922V7.67556C168.587 8.28746 169.7 8.56543 169.7 9.78913V15.4345C169.7 17.409 168.643 18.6883 167.308 18.6883C165.779 18.6883 165 17.4925 165 14.9061L165.083 6.9803C165.083 6.50763 164.666 6.39638 163.943 6.47974L160.439 7.00808C160.077 7.06376 159.855 7.31403 159.855 7.5922V7.67556C159.855 8.28746 160.94 8.56543 160.94 9.78913V14.489C160.94 18.299 163.248 20.2734 166.112 20.2734C168.031 20.2734 169.394 19.5783 170.145 18.3547C170.228 19.7173 171.035 20.1623 172.62 20.1623C174.177 20.1623 175.095 19.9954 175.095 19.3558C175.095 18.3268 173.76 19.3558 173.76 17.1587ZM187.386 6.64666C184.549 6.64666 183.631 6.36849 181.852 6.36849C177.958 6.36849 175.261 8.73234 175.261 12.2086C175.261 15.3789 178.042 17.715 181.768 17.715C182.13 17.715 182.491 17.6872 182.853 17.6593C183.937 17.8818 184.577 18.8273 184.577 20.2178C184.577 21.7753 183.492 22.832 181.768 22.832C178.514 22.7764 179.126 18.6048 176.846 18.6048C175.706 18.6048 175.205 19.3836 175.205 20.1623C175.205 22.3314 177.597 24 181.685 24C185.634 24 188.665 22.4704 188.665 20.1066C188.665 18.6326 187.803 17.4925 185.328 16.9362C187.247 16.0186 188.442 14.2943 188.442 12.0973C188.442 10.7625 187.775 9.45539 186.885 8.53764C187.747 8.28746 188.804 8.39861 188.999 7.48085C189.166 6.9803 188.887 6.64666 187.386 6.64666ZM179.182 10.3731C179.182 8.67667 179.96 7.5922 181.24 7.5922C183.186 7.5922 184.494 11.0127 184.494 13.6825C184.494 15.3232 183.715 16.4636 182.38 16.4636C180.628 16.4636 179.182 13.321 179.182 10.3731ZM202.01 17.2143L201.398 12.0695C201.009 8.56543 198.562 6.36849 194.946 6.36849C192.054 6.36849 189.607 7.53652 189.607 9.53885C189.607 10.4844 190.274 11.0962 191.276 11.0962C193.361 11.0962 192.722 7.53653 194.946 7.53653C196.643 7.53653 197.088 9.09387 197.422 12.3476L197.449 12.6813C196.726 12.1808 195.697 11.847 194.418 11.847C191.693 11.847 189.357 13.2932 189.385 16.0742C189.385 18.8551 191.609 20.2734 194.613 20.2734C196.532 20.2734 197.7 19.5783 198.312 18.6604C198.478 19.8563 199.201 20.1623 200.787 20.1623C202.121 20.1623 203.456 19.9954 203.456 19.3558C203.456 18.6048 202.233 19.1333 202.01 17.2143ZM195.836 19.0498C194.418 19.0498 193.5 17.3534 193.5 15.4345C193.5 14.0162 194.362 13.0985 195.531 13.0985C196.671 13.0985 197.561 13.9328 197.727 15.5736L197.811 16.5469C197.894 17.7984 197.116 19.0498 195.836 19.0498ZM211.72 6.36849C209.856 6.36849 208.549 7.34182 207.937 9.12165V7.03587C207.937 6.50763 207.687 6.17389 207.048 6.47974L203.71 8.03708C203.349 8.204 203.126 8.42639 203.126 8.70455V8.8158C203.126 9.51106 204.406 9.59452 204.406 10.8181V17.3256C204.406 18.4937 203.321 18.7161 203.321 19.4113V19.5226C203.321 19.8285 203.571 19.9954 203.961 19.9954H209.105C209.467 19.9954 209.717 19.8285 209.717 19.5226V19.4113C209.717 18.7161 208.327 18.4937 208.327 17.3256V11.7637C208.327 10.234 208.716 8.70455 209.801 8.70455C211.302 8.70455 210.329 11.0962 212.498 11.0962C213.833 11.0962 214.278 10.0673 214.278 8.89916C214.278 7.48085 213.36 6.36849 211.72 6.36849ZM220.754 20.2734C224.37 20.2734 226.261 18.0209 226.428 15.7404C226.482 15.1287 225.788 15.0175 225.454 15.4624C224.871 16.4636 223.813 17.409 222.117 17.409C219.28 17.409 217.389 14.9896 217.389 11.2909C217.389 9.2329 218.391 7.5922 219.975 7.5922C222.396 7.56431 222.228 11.5134 224.621 11.6524C225.899 11.7081 226.344 10.9849 226.344 10.2619C226.344 8.09275 223.786 6.34071 220.587 6.36849C216.833 6.39638 213.579 9.01041 213.579 13.2932C213.579 17.0475 216.554 20.2734 220.754 20.2734ZM239.383 17.2143L238.771 12.0695C238.382 8.56543 235.935 6.36849 232.32 6.36849C229.427 6.36849 226.979 7.53652 226.979 9.53885C226.979 10.4844 227.647 11.0962 228.649 11.0962C230.734 11.0962 230.095 7.53653 232.32 7.53653C234.016 7.53653 234.46 9.09387 234.794 12.3476L234.822 12.6813C234.099 12.1808 233.07 11.847 231.791 11.847C229.065 11.847 226.73 13.2932 226.757 16.0742C226.757 18.8551 228.982 20.2734 231.986 20.2734C233.904 20.2734 235.072 19.5783 235.684 18.6604C235.851 19.8563 236.575 20.1623 238.159 20.1623C239.494 20.1623 240.829 19.9954 240.829 19.3558C240.829 18.6048 239.606 19.1333 239.383 17.2143ZM233.209 19.0498C231.791 19.0498 230.874 17.3534 230.874 15.4345C230.874 14.0162 231.736 13.0985 232.904 13.0985C234.044 13.0985 234.933 13.9328 235.1 15.5736L235.183 16.5469C235.267 17.7984 234.488 19.0498 233.209 19.0498ZM255.043 17.2978L254.71 12.292C254.376 7.87026 251.929 6.36849 249.398 6.36849C247.508 6.36849 246.033 7.20279 245.283 8.6211V7.06376C245.283 6.53541 244.977 6.146 244.337 6.47974L241.028 8.09275C240.694 8.25957 240.472 8.39861 240.472 8.67667V8.78792C240.472 9.48328 241.834 9.59452 241.834 10.8459V17.3256C241.834 18.5215 240.638 18.7439 240.638 19.4391V19.5504C240.638 19.8285 240.889 20.0232 241.277 20.0232H246.451C246.839 20.0232 247.09 19.8285 247.09 19.5504V19.4391C247.09 18.7439 245.894 18.5215 245.894 17.3256V11.0127C245.894 9.20511 246.756 7.95372 248.258 7.95372C249.732 7.95372 250.54 9.17733 250.678 12.153L250.956 17.2978C251.011 18.5215 249.955 18.7439 249.955 19.4391V19.5504C249.955 19.8285 250.205 20.0232 250.594 20.0232H255.405C255.795 20.0232 256.045 19.8285 256.045 19.5504V19.4391C256.045 18.7439 255.127 18.5215 255.043 17.2978ZM267.518 15.7682C266.99 16.6304 265.822 17.3812 264.348 17.3812C262.679 17.3812 261.4 16.4914 260.677 14.9618L266.851 12.153C267.602 11.8192 268.074 11.2631 268.074 10.3175C268.074 8.48207 266.462 6.36849 262.819 6.36849C259.175 6.36849 256.088 9.17733 256.088 13.2098C256.088 17.4925 258.953 20.2734 262.819 20.2734C266.406 20.2734 268.297 17.6872 268.464 16.0742C268.492 15.4901 267.852 15.3511 267.518 15.7682ZM262.318 7.5922C263.82 7.5922 264.543 9.56664 264.543 10.5677C264.543 11.1519 264.321 11.6246 263.82 11.8748L260.232 13.6825C260.038 12.9595 259.954 12.153 259.954 11.2909C259.954 9.17733 260.844 7.5922 262.318 7.5922Z" fill="#01103D"/>
<path d="M614.323 20.7013C613.193 20.8868 612.063 20.961 610.857 21.1095L607.24 10.6456V21.5547C606.11 21.666 605.093 21.8145 604 22V2H607.014L611.121 13.3544V2H614.323V20.7013ZM620.578 9.34694C621.821 9.34694 623.705 9.27273 624.835 9.27273V12.3896C623.441 12.3896 621.783 12.3896 620.578 12.4638V17.102C622.424 16.9907 624.308 16.8423 626.192 16.7681V19.7737L617.413 20.4416V2H626.192V5.11688H620.578C620.578 5.15399 620.578 9.34694 620.578 9.34694ZM637.947 5.15399H634.669V19.5139C633.614 19.5139 632.521 19.5139 631.504 19.551V5.15399H628.226V2H637.984C637.947 2 637.947 5.15399 637.947 5.15399ZM643.108 9.1243H647.441V12.2412H643.108V19.3284H639.981V2H648.835V5.11688H643.108C643.108 5.15399 643.108 9.1243 643.108 9.1243ZM653.997 16.5826C655.805 16.6197 657.614 16.7681 659.385 16.8423V19.9221C656.559 19.7366 653.733 19.5881 650.832 19.5139V2H653.997V16.5826ZM662.06 20.1447C663.077 20.2189 664.132 20.256 665.187 20.3673V2H662.06V20.1447ZM679.052 2L675.02 11.4991L679.052 21.9629C677.846 21.8145 676.678 21.5918 675.473 21.4063L673.212 15.6178L670.876 20.9239C669.746 20.7384 668.615 20.6642 667.485 20.5158L671.554 11.3878L667.862 2H671.253L673.325 7.23191L675.548 2H679.052Z" fill="#8C87A6"/>
<path d="M342.75 15.26L345.417 14.5317C345.461 15.1189 345.736 15.6648 346.181 16.0508C346.703 16.4833 347.368 16.703 348.045 16.6657C348.55 16.6944 349.05 16.558 349.47 16.2773C349.627 16.1722 349.757 16.0301 349.847 15.8634C349.937 15.6966 349.984 15.5104 349.985 15.321C349.986 15.164 349.952 15.0088 349.886 14.8664C349.82 14.724 349.723 14.5979 349.602 14.4971C349.274 14.2373 348.881 14.0707 348.466 14.0145L346.551 13.5849C345.566 13.4037 344.665 12.9123 343.98 12.1829C343.388 11.5204 343.067 10.6596 343.081 9.77159C343.081 9.21721 343.204 8.66973 343.443 8.16917C343.681 7.66861 344.029 7.2276 344.46 6.87839C345.393 6.06824 346.597 5.63748 347.832 5.67128C348.46 5.66415 349.086 5.75069 349.688 5.92796C350.172 6.06446 350.631 6.27832 351.046 6.56133C351.388 6.8071 351.691 7.10291 351.945 7.43892C352.169 7.72562 352.355 8.03956 352.5 8.37318C352.615 8.64873 352.696 8.93691 352.743 9.23157L350.208 9.95985C350.18 9.75075 350.119 9.54748 350.027 9.35741C349.922 9.1392 349.787 8.93625 349.627 8.75422C349.429 8.53553 349.181 8.36777 348.904 8.26498C348.562 8.13365 348.198 8.06966 347.832 8.07672C347.35 8.05908 346.878 8.21314 346.499 8.51149C346.336 8.63117 346.203 8.78696 346.111 8.96652C346.019 9.14617 345.97 9.34469 345.968 9.54649C345.966 9.70604 345.997 9.86429 346.059 10.0115C346.12 10.1588 346.211 10.2919 346.326 10.4027C346.59 10.6536 346.924 10.8183 347.284 10.875L349.235 11.2759C350.253 11.4428 351.194 11.9195 351.931 12.6412C352.546 13.2785 352.883 14.1334 352.869 15.0186C352.868 15.5519 352.765 16.08 352.563 16.5738C352.354 17.0838 352.056 17.5529 351.683 17.9596C351.261 18.408 350.743 18.756 350.168 18.9778C349.499 19.2435 348.785 19.3753 348.065 19.3654C347.256 19.3781 346.452 19.2367 345.697 18.949C345.072 18.7207 344.508 18.3543 344.045 17.8773C343.675 17.4862 343.366 17.0424 343.126 16.5605C342.926 16.152 342.799 15.712 342.75 15.26Z" fill="#8C87A6"/>
<path d="M352.876 8.77751V6.07488H353.539C353.813 6.09456 354.088 6.05478 354.345 5.95831C354.602 5.86175 354.835 5.71081 355.028 5.51574C355.377 5.10722 355.558 4.58115 355.533 4.04457V2.09229H358.317V6.07488H360.996V8.77751H358.317V14.7919C358.296 15.015 358.32 15.2401 358.388 15.4537C358.456 15.6674 358.566 15.8653 358.711 16.0357C359.063 16.3219 359.512 16.4598 359.963 16.4197C360.32 16.4205 360.675 16.3855 361.025 16.3153V18.8399C360.417 19.0553 359.774 19.1512 359.13 19.1224C358.612 19.1509 358.094 19.075 357.605 18.899C357.117 18.723 356.67 18.4509 356.289 18.0984C355.932 17.7231 355.656 17.2786 355.477 16.7926C355.299 16.3065 355.222 15.7891 355.251 15.2722V8.77751H352.876Z" fill="#8C87A6"/>
<path d="M361.759 15.5087C361.737 15.014 361.821 14.5202 362.006 14.0609C362.192 13.6016 362.474 13.1874 362.833 12.8465C363.624 12.1489 364.609 11.7101 365.656 11.5894L368.971 11.0847C369.609 11.0043 369.928 10.7142 369.928 10.2144C369.935 9.96183 369.883 9.71123 369.777 9.48162C369.671 9.25209 369.514 9.0498 369.318 8.89033C368.788 8.50954 368.14 8.32718 367.488 8.37541C366.807 8.34047 366.139 8.5718 365.625 9.0206C365.163 9.44938 364.878 10.0361 364.827 10.6646L362.028 10.0445C362.087 9.44487 362.263 8.86252 362.547 8.33103C362.831 7.79946 363.217 7.32909 363.683 6.9469C364.738 6.0726 366.078 5.6188 367.448 5.67277C368.315 5.65694 369.178 5.79213 369.999 6.07227C370.659 6.29253 371.256 6.66963 371.738 7.17126C372.158 7.62474 372.481 8.15917 372.687 8.74177C372.897 9.35201 373.001 9.99366 372.995 10.6389V16.8982C372.984 17.5913 373.04 18.2838 373.163 18.966H370.255C370.13 18.4279 370.081 17.8751 370.108 17.3234C369.72 17.9238 369.192 18.4209 368.569 18.7719C367.823 19.1877 366.978 19.3933 366.123 19.3669C364.962 19.4181 363.828 19.0103 362.965 18.2319C362.582 17.89 362.275 17.4702 362.067 17.0005C361.859 16.5308 361.754 16.0222 361.759 15.5087ZM364.827 15.288C364.823 15.5087 364.866 15.7277 364.952 15.9311C365.038 16.1344 365.165 16.3175 365.326 16.4686C365.514 16.6365 365.732 16.7657 365.97 16.8487C366.207 16.9318 366.458 16.9672 366.71 16.9526C367.127 16.9574 367.542 16.8984 367.942 16.7776C368.313 16.6621 368.658 16.4779 368.961 16.2347C369.288 15.9606 369.535 15.6032 369.675 15.2004C369.854 14.6918 369.94 14.1551 369.928 13.616V13.034L366.563 13.549C366.097 13.6093 365.66 13.8044 365.304 14.1103C365.144 14.2602 365.018 14.4429 364.936 14.6458C364.854 14.8487 364.817 15.067 364.827 15.2857V15.288Z" fill="#8C87A6"/>
<path d="M375.07 18.9679V6.07552H378.035V7.68213C378.402 7.04203 378.959 6.53178 379.629 6.22195C380.317 5.87987 381.075 5.70162 381.844 5.70113C382.666 5.6862 383.477 5.88275 384.201 6.27191C384.884 6.64343 385.427 7.22734 385.747 7.93511C386.171 7.21503 386.787 6.62555 387.524 6.23146C388.261 5.83738 389.093 5.65388 389.928 5.70113C390.497 5.69686 391.062 5.7953 391.595 5.99168C392.119 6.18807 392.601 6.48216 393.015 6.85819C393.471 7.28533 393.819 7.81494 394.029 8.40303C394.289 9.10654 394.416 9.85204 394.403 10.6017V18.9679H391.517V11.0674C391.552 10.3684 391.332 9.68019 390.897 9.13123C390.662 8.87849 390.372 8.68177 390.051 8.55569C389.728 8.42969 389.382 8.37751 389.038 8.40303C388.675 8.39064 388.314 8.45815 387.98 8.60072C387.646 8.74338 387.348 8.95773 387.107 9.22835C386.607 9.79052 386.34 10.5229 386.364 11.2748V18.9679H383.296V11.0674C383.329 10.3716 383.112 9.68708 382.682 9.13787C382.448 8.88193 382.157 8.68276 381.834 8.55528C381.511 8.4278 381.163 8.37555 380.817 8.40229C380.453 8.38736 380.091 8.45208 379.755 8.59186C379.419 8.73165 379.118 8.94313 378.873 9.21146C378.374 9.78142 378.113 10.5206 378.143 11.277V18.97L375.07 18.9679Z" fill="#8C87A6"/>
<path d="M396.613 24V6.07536H399.604V7.80263C399.982 7.17435 400.534 6.66911 401.193 6.34828C401.969 5.95617 402.829 5.76044 403.698 5.77824C404.521 5.73862 405.343 5.88726 406.101 6.21284C406.858 6.53835 407.532 7.03227 408.069 7.65694C409.17 9.0259 409.735 10.7476 409.661 12.5017C409.73 14.2774 409.138 16.016 407.998 17.3803C407.455 18.0084 406.776 18.5065 406.014 18.8375C405.251 19.1685 404.424 19.3242 403.593 19.2928C402.78 19.3085 401.974 19.1379 401.237 18.7942C400.616 18.5134 400.08 18.0761 399.68 17.5252V23.9985L396.613 24ZM399.656 12.5039C399.605 13.5762 399.95 14.6298 400.625 15.4648C400.929 15.8282 401.31 16.1183 401.743 16.3132C402.174 16.5082 402.645 16.6028 403.118 16.5903C403.593 16.6037 404.065 16.5101 404.499 16.3164C404.932 16.1227 405.316 15.8339 405.623 15.4713C406.3 14.6349 406.645 13.5785 406.592 12.5039C406.643 11.447 406.3 10.4089 405.629 9.58938C405.32 9.22918 404.933 8.94305 404.498 8.75208C404.063 8.5611 403.591 8.47013 403.116 8.48596C402.643 8.47292 402.173 8.56611 401.742 8.75872C401.31 8.95141 400.927 9.23861 400.622 9.59898C399.952 10.414 399.607 11.4481 399.656 12.5017V12.5039Z" fill="#8C87A6"/>
<path d="M409.884 15.26L412.551 14.5317C412.596 15.1189 412.87 15.6648 413.315 16.0508C413.837 16.4834 414.503 16.7031 415.18 16.6657C415.684 16.6942 416.184 16.5579 416.604 16.2773C416.762 16.1722 416.891 16.0301 416.981 15.8634C417.071 15.6966 417.119 15.5104 417.12 15.321C417.12 15.164 417.086 15.0088 417.02 14.8664C416.954 14.724 416.857 14.5979 416.736 14.4971C416.408 14.2373 416.015 14.0706 415.6 14.0145L413.686 13.5849C412.701 13.4038 411.801 12.9124 411.116 12.1829C410.523 11.5208 410.202 10.6598 410.216 9.77159C410.216 9.21721 410.34 8.66973 410.578 8.16917C410.816 7.66861 411.164 7.2276 411.595 6.87839C412.528 6.06824 413.732 5.63748 414.967 5.67128C415.595 5.66415 416.221 5.75069 416.823 5.92796C417.307 6.0643 417.766 6.27824 418.181 6.56133C418.523 6.80727 418.827 7.10308 419.081 7.43892C419.304 7.72578 419.49 8.03972 419.636 8.37318C419.75 8.64873 419.831 8.93691 419.878 9.23157L417.344 9.95985C417.316 9.75083 417.254 9.54747 417.163 9.35741C417.057 9.13928 416.922 8.93642 416.762 8.75422C416.563 8.53553 416.316 8.36777 416.039 8.26498C415.697 8.13357 415.333 8.06958 414.967 8.07672C414.486 8.05908 414.013 8.21322 413.634 8.51149C413.472 8.63101 413.339 8.78679 413.247 8.96644C413.154 9.14601 413.105 9.34461 413.103 9.54649C413.102 9.70604 413.132 9.86429 413.194 10.0115C413.255 10.1588 413.346 10.2919 413.461 10.4027C413.725 10.6534 414.059 10.8182 414.418 10.875L416.369 11.2759C417.387 11.4426 418.33 11.9194 419.066 12.6412C419.681 13.2787 420.018 14.1336 420.003 15.0186C420.003 15.5519 419.899 16.0802 419.697 16.5738C419.488 17.084 419.19 17.5532 418.818 17.9596C418.395 18.4081 417.878 18.756 417.302 18.9778C416.634 19.2435 415.919 19.3752 415.2 19.3654C414.391 19.3782 413.586 19.2368 412.831 18.949C412.207 18.7206 411.642 18.3541 411.18 17.8773C410.81 17.4862 410.5 17.0424 410.261 16.5605C410.062 16.1519 409.934 15.7119 409.884 15.26Z" fill="#8C87A6"/>
<path d="M320.469 5.83954C320.483 5.80435 320.492 5.76793 320.498 5.73069C320.591 5.0691 320.932 4.46739 321.452 4.04689C321.82 3.75379 322.26 3.56495 322.727 3.50031C322.758 3.49572 322.788 3.48809 322.817 3.47751C322.909 3.46807 323.001 3.46339 323.093 3.46356C323.728 3.45987 324.342 3.68833 324.82 4.10595C325.298 4.52366 325.607 5.10158 325.688 5.73069C325.696 5.83044 325.742 5.9233 325.817 5.9904C325.891 6.05759 325.988 6.09409 326.088 6.09261H326.183C326.284 6.09442 326.381 6.05808 326.455 5.99081C326.53 5.92363 326.576 5.8306 326.584 5.73069C326.661 5.10306 326.966 4.52563 327.441 4.10776C327.916 3.68981 328.529 3.46061 329.162 3.46356C329.797 3.45987 330.411 3.68833 330.889 4.10595C331.367 4.52366 331.676 5.10158 331.756 5.73069C331.765 5.83044 331.811 5.9233 331.885 5.9904C331.96 6.05759 332.057 6.09409 332.157 6.09261H332.231C332.331 6.09442 332.428 6.05808 332.503 5.99081C332.577 5.92363 332.623 5.8306 332.631 5.73069C332.711 5.10437 333.017 4.52875 333.492 4.11145C333.966 3.69415 334.577 3.46381 335.209 3.46356C335.892 3.46348 336.548 3.73066 337.036 4.208C337.515 4.69651 337.783 5.35309 337.782 6.03675C337.782 6.66832 337.552 7.27831 337.134 7.75229C336.716 8.22628 336.139 8.53168 335.512 8.61134C335.412 8.61954 335.319 8.66548 335.251 8.7398C335.184 8.8142 335.147 8.91133 335.149 9.01157V9.08508C335.148 9.18524 335.184 9.28212 335.252 9.35644C335.319 9.43068 335.412 9.4767 335.512 9.48523C336.142 9.56554 336.72 9.87341 337.139 10.3508C337.557 10.828 337.786 11.4418 337.782 12.0761C337.785 12.7085 337.556 13.32 337.137 13.7946C336.719 14.2692 336.14 14.5738 335.512 14.6507C335.412 14.6589 335.319 14.7049 335.251 14.7792C335.184 14.8535 335.147 14.9507 335.149 15.0509V15.1465C335.148 15.2466 335.185 15.3435 335.252 15.4176C335.319 15.4919 335.412 15.538 335.512 15.5467C336.142 15.627 336.72 15.9349 337.139 16.4122C337.557 16.8895 337.786 17.5032 337.782 18.1375C337.782 18.2228 337.778 18.3067 337.77 18.3898C337.756 18.425 337.746 18.4615 337.74 18.4987C337.648 19.1604 337.307 19.7622 336.787 20.1825C336.419 20.4757 335.978 20.6644 335.512 20.7291C335.481 20.7339 335.451 20.7413 335.422 20.7511C335.33 20.7609 335.238 20.7658 335.146 20.7658C334.511 20.7695 333.896 20.541 333.418 20.1233C332.941 19.7057 332.632 19.1278 332.552 18.4987C332.543 18.3989 332.497 18.3062 332.423 18.239C332.348 18.1718 332.251 18.1353 332.151 18.1368H332.055C331.955 18.135 331.858 18.1714 331.783 18.2386C331.709 18.3058 331.663 18.3988 331.655 18.4987C331.578 19.1263 331.273 19.704 330.797 20.1219C330.322 20.5398 329.71 20.7689 329.077 20.7658C328.442 20.7696 327.827 20.5411 327.349 20.1234C326.871 19.7057 326.563 19.1279 326.482 18.4987C326.474 18.3989 326.428 18.3062 326.353 18.239C326.279 18.1718 326.182 18.1353 326.082 18.1368H326.008C325.908 18.135 325.81 18.1714 325.736 18.2386C325.662 18.3058 325.615 18.3988 325.607 18.4987C325.527 19.1252 325.221 19.701 324.747 20.1183C324.272 20.5357 323.662 20.7659 323.029 20.7658C322.345 20.7668 321.687 20.4995 321.198 20.0214C320.719 19.5327 320.452 18.8762 320.452 18.1927C320.452 17.5611 320.683 16.9513 321.101 16.4773C321.519 16.0034 322.095 15.6979 322.722 15.618C322.823 15.61 322.916 15.5642 322.983 15.4898C323.051 15.4154 323.087 15.3182 323.085 15.2179V15.1443C323.087 15.0442 323.05 14.9472 322.983 14.873C322.915 14.7987 322.822 14.7527 322.722 14.7442C322.093 14.6637 321.514 14.3557 321.096 13.8785C320.678 13.4012 320.449 12.7875 320.452 12.1533C320.449 11.5209 320.679 10.9095 321.097 10.4349C321.516 9.96028 322.094 9.65561 322.722 9.57866C322.823 9.57062 322.916 9.52477 322.983 9.45044C323.051 9.37612 323.087 9.27883 323.085 9.17851V9.08286C323.087 8.9827 323.05 8.88574 322.983 8.8115C322.915 8.73726 322.822 8.69124 322.722 8.68271C322.093 8.60223 321.514 8.29428 321.096 7.81702C320.678 7.33975 320.449 6.72607 320.452 6.09188C320.452 6.00656 320.457 5.92273 320.465 5.83954H320.469ZM322.729 2.65956C322.697 2.65128 322.665 2.64561 322.632 2.64258C321.763 2.76349 320.973 3.20721 320.418 3.88504C319.999 4.3838 319.729 4.99067 319.64 5.63578C319.642 5.66383 319.647 5.69164 319.653 5.71896C319.642 5.83011 319.636 5.94184 319.636 6.05365C319.642 6.6739 319.813 7.28151 320.131 7.81398C320.45 8.34637 320.905 8.78443 321.449 9.08286C320.904 9.38146 320.449 9.81959 320.131 10.3521C319.812 10.8847 319.642 11.4925 319.636 12.1129C319.642 12.7331 319.813 13.3408 320.131 13.8731C320.45 14.4056 320.905 14.8437 321.449 15.1421C320.901 15.4368 320.444 15.8741 320.124 16.4075C319.805 16.9409 319.637 17.5506 319.636 18.172C319.636 18.2684 319.641 18.3633 319.648 18.4583C319.638 18.5021 319.634 18.5473 319.638 18.5921C319.739 19.3495 320.088 20.0521 320.631 20.5908C321.17 21.1327 321.873 21.4813 322.632 21.5824C322.677 21.5861 322.722 21.5826 322.767 21.5721C322.861 21.5802 322.957 21.5839 323.053 21.5839C323.675 21.5836 324.285 21.4152 324.82 21.0965C325.353 20.7777 325.791 20.3206 326.086 19.7735C326.385 20.3174 326.823 20.7718 327.356 21.09C327.889 21.4082 328.498 21.5787 329.119 21.5839C329.74 21.5788 330.349 21.4084 330.882 21.0902C331.415 20.772 331.854 20.3174 332.152 19.7735C332.451 20.3174 332.89 20.7718 333.423 21.09C333.956 21.4082 334.564 21.5787 335.185 21.5839C335.295 21.5839 335.406 21.5787 335.511 21.5684C335.543 21.5768 335.576 21.5822 335.609 21.5846C336.476 21.4636 337.265 21.0201 337.818 20.3429C338.238 19.8442 338.508 19.2373 338.597 18.5921C338.595 18.5641 338.59 18.5364 338.584 18.509C338.595 18.3987 338.6 18.2884 338.6 18.1743C338.595 17.5541 338.424 16.9465 338.106 16.4141C337.787 15.8816 337.332 15.4436 336.788 15.1451C337.332 14.8465 337.787 14.4083 338.106 13.8758C338.424 13.3431 338.595 12.7354 338.6 12.1151C338.595 11.4949 338.424 10.8872 338.106 10.3549C337.787 9.82238 337.332 9.38433 336.788 9.08581C337.336 8.79099 337.793 8.35376 338.112 7.8203C338.431 7.28684 338.6 6.67718 338.6 6.05586C338.6 5.95948 338.596 5.86383 338.589 5.76965C338.599 5.72576 338.602 5.68073 338.599 5.63578C338.498 4.87821 338.149 4.17535 337.606 3.63714C337.067 3.09499 336.363 2.74627 335.605 2.64553C335.56 2.64184 335.514 2.64529 335.47 2.65587C335.376 2.64775 335.28 2.64406 335.184 2.64406C334.562 2.6443 333.952 2.81271 333.418 3.13149C332.884 3.45019 332.446 3.90735 332.151 4.45443C331.852 3.91047 331.414 3.45593 330.88 3.13773C330.347 2.81952 329.739 2.64914 329.117 2.64406C328.496 2.64922 327.888 2.81969 327.355 3.13789C326.822 3.45609 326.383 3.91055 326.084 4.45443C325.786 3.91047 325.347 3.45593 324.814 3.13773C324.281 2.81952 323.672 2.64914 323.051 2.64406C322.941 2.64406 322.83 2.64922 322.725 2.65956H322.729Z" fill="#8C87A6"/>
<path d="M335.629 22.2308L335.561 22.2257C335.533 22.2257 335.504 22.2197 335.476 22.2161C335.381 22.2227 335.283 22.2264 335.187 22.2264C334.44 22.2253 333.707 22.0178 333.071 21.6269C332.732 21.4198 332.424 21.1656 332.157 20.8721C331.772 21.2953 331.303 21.6342 330.781 21.8673C330.258 22.1004 329.693 22.2226 329.12 22.2264C328.373 22.2253 327.641 22.0178 327.004 21.6269C326.666 21.4201 326.36 21.1668 326.092 20.8743C325.828 21.1674 325.522 21.4208 325.185 21.6269C324.544 22.0189 323.806 22.2264 323.054 22.2264C322.969 22.2264 322.883 22.2264 322.797 22.2184C322.727 22.2271 322.655 22.2286 322.584 22.2227H322.565H322.547C322.095 22.1622 321.656 22.0272 321.249 21.8233C320.852 21.6245 320.491 21.363 320.178 21.0487C319.864 20.7369 319.602 20.3758 319.404 19.9799C319.199 19.5728 319.063 19.1345 319.003 18.683V18.6645V18.6462C318.998 18.5751 318.999 18.5037 319.007 18.4329C319.002 18.3476 319 18.2614 319 18.1769C319 17.4259 319.207 16.6894 319.6 16.0487C319.806 15.7115 320.06 15.4061 320.354 15.1417C320.06 14.8754 319.806 14.5688 319.6 14.231C319.208 13.5953 319.001 12.8639 319 12.1176C319.004 11.546 319.126 10.9813 319.359 10.4593C319.593 9.93729 319.932 9.46921 320.355 9.08473C320.061 8.81763 319.807 8.51034 319.6 8.17179C319.208 7.53604 319.001 6.80464 319 6.05839C319 5.95618 319.004 5.85314 319.012 5.75093C319.009 5.73034 319.007 5.70975 319.005 5.68916L319 5.62148L319.009 5.55372C319.114 4.79 319.433 4.07148 319.929 3.48085C320.585 2.67702 321.521 2.15135 322.55 2.0096L322.618 2L322.686 2.00517C322.714 2.00517 322.742 2.01108 322.77 2.01477C322.867 2.00812 322.964 2.00443 323.06 2.00443C323.807 2.00574 324.54 2.2132 325.176 2.60401C325.515 2.81114 325.822 3.06527 326.09 3.3587C326.474 2.93558 326.943 2.5967 327.466 2.36357C327.988 2.13051 328.554 2.0082 329.126 2.00443C329.874 2.00574 330.606 2.2132 331.243 2.60401C331.581 2.81081 331.888 3.06412 332.155 3.35649C332.419 3.06355 332.725 2.81015 333.062 2.60401C333.703 2.21189 334.441 2.00435 335.193 2.00443C335.278 2.00443 335.364 2.00443 335.449 2.01255C335.52 2.00369 335.592 2.00221 335.663 2.00812H335.681H335.699C336.151 2.06858 336.59 2.20352 336.998 2.40754C337.395 2.60605 337.756 2.86766 338.069 3.18217C338.384 3.49373 338.645 3.85483 338.844 4.25097C339.048 4.65818 339.183 5.09648 339.243 5.5479V5.56628V5.58465C339.249 5.65577 339.247 5.72722 339.238 5.79802C339.243 5.88333 339.246 5.96865 339.246 6.05396C339.246 6.80505 339.039 7.54153 338.646 8.18212C338.44 8.51928 338.186 8.82477 337.893 9.08907C338.186 9.35527 338.44 9.66199 338.646 9.9998C339.038 10.6355 339.245 11.3669 339.246 12.1132C339.243 12.685 339.12 13.2497 338.887 13.7717C338.654 14.2938 338.314 14.7618 337.89 15.1462C338.184 15.4129 338.439 15.72 338.646 16.0583C339.037 16.6943 339.245 17.4259 339.246 18.1724C339.246 18.2747 339.243 18.3777 339.235 18.4792C339.235 18.4998 339.24 18.5212 339.241 18.5417L339.246 18.6094L339.237 18.6771C339.132 19.4407 338.814 20.1593 338.318 20.7501C337.661 21.554 336.725 22.0797 335.696 22.2212L335.629 22.2308ZM333.192 18.4233C333.254 18.8967 333.487 19.3311 333.847 19.6445C334.208 19.958 334.671 20.1285 335.149 20.124C335.201 20.124 335.252 20.1241 335.304 20.1182C335.339 20.1093 335.373 20.1019 335.409 20.0961H335.428C335.778 20.047 336.109 19.905 336.385 19.6849C336.778 19.368 337.035 18.9138 337.105 18.4144V18.3961C337.112 18.3524 337.122 18.3092 337.133 18.2666C337.133 18.2247 337.138 18.182 337.138 18.1401C337.142 17.6626 336.971 17.2001 336.657 16.84C336.343 16.4799 335.908 16.2471 335.434 16.1855C335.178 16.1589 334.941 16.038 334.769 15.8464C334.598 15.6549 334.503 15.4063 334.505 15.1491V15.0535C334.503 14.8016 334.593 14.5578 334.759 14.3681C334.925 14.1784 335.154 14.0558 335.404 14.0236H335.423H335.442C335.911 13.9624 336.343 13.732 336.654 13.3758C336.966 13.0197 337.137 12.5621 337.136 12.0889C337.14 11.6115 336.969 11.149 336.655 10.7889C336.341 10.4287 335.906 10.1959 335.432 10.1344C335.176 10.1078 334.939 9.98684 334.767 9.79529C334.595 9.60375 334.501 9.35519 334.503 9.09793V9.02443C334.501 8.77259 334.591 8.52879 334.757 8.33905C334.922 8.14923 335.152 8.02675 335.402 7.99451H335.42H335.439C335.907 7.92856 336.336 7.6969 336.647 7.3417C336.957 6.98658 337.13 6.53163 337.133 6.05986C337.135 5.54618 336.934 5.05251 336.576 4.68426C336.207 4.32595 335.713 4.12611 335.199 4.12743C334.725 4.12562 334.267 4.29641 333.91 4.60789C333.554 4.91937 333.323 5.35012 333.262 5.81934V5.83846V5.85683C333.229 6.10654 333.107 6.33582 332.917 6.50136C332.727 6.66682 332.483 6.75714 332.23 6.75501H332.157C331.899 6.75665 331.65 6.66247 331.458 6.49086C331.266 6.31933 331.145 6.08259 331.118 5.82665C331.057 5.35316 330.824 4.91863 330.463 4.6051C330.103 4.29158 329.64 4.12087 329.161 4.12521C328.688 4.12341 328.23 4.2942 327.873 4.60576C327.516 4.91724 327.286 5.34791 327.225 5.81713V5.83625V5.85462C327.192 6.10433 327.07 6.33361 326.88 6.49915C326.69 6.66461 326.445 6.75484 326.193 6.75279H326.098C325.841 6.75443 325.592 6.66026 325.4 6.48865C325.208 6.31712 325.087 6.08037 325.06 5.82451C324.998 5.35094 324.765 4.91642 324.405 4.60289C324.044 4.28944 323.581 4.11865 323.103 4.123C323.051 4.123 322.999 4.123 322.948 4.12964C322.914 4.1385 322.878 4.1458 322.843 4.15171H322.824C322.474 4.20052 322.143 4.34252 321.867 4.56294C321.473 4.87942 321.216 5.3338 321.147 5.83329V5.85167C321.14 5.89531 321.13 5.93854 321.118 5.98119C321.118 6.02311 321.115 6.06577 321.115 6.10769C321.11 6.58504 321.281 7.04745 321.595 7.40757C321.908 7.7677 322.343 8.00059 322.817 8.06219C323.073 8.08885 323.31 8.20977 323.482 8.40132C323.654 8.59294 323.748 8.8415 323.747 9.09867V9.19432C323.749 9.446 323.659 9.68972 323.493 9.87946C323.328 10.0692 323.098 10.1918 322.848 10.2242H322.829H322.81C322.34 10.2853 321.909 10.5155 321.597 10.8717C321.285 11.228 321.114 11.6856 321.116 12.1588C321.111 12.6362 321.282 13.0985 321.596 13.4585C321.91 13.8186 322.345 14.0513 322.819 14.1126C323.075 14.1396 323.312 14.2607 323.484 14.4524C323.655 14.6441 323.75 14.8926 323.748 15.1498V15.2234C323.75 15.475 323.66 15.7188 323.495 15.9085C323.329 16.0982 323.1 16.2209 322.85 16.2532H322.831H322.811C322.344 16.3192 321.915 16.5509 321.604 16.906C321.293 17.2612 321.121 17.7161 321.117 18.1879C321.116 18.7014 321.316 19.1949 321.675 19.5627C322.043 19.9214 322.538 20.1213 323.052 20.1196C323.525 20.1164 323.98 19.9437 324.336 19.6331C324.691 19.3226 324.923 18.8948 324.989 18.4277V18.4086L324.993 18.3894C325.025 18.1399 325.148 17.9108 325.338 17.7454C325.528 17.5801 325.772 17.4899 326.024 17.492H326.098C326.355 17.4904 326.604 17.5846 326.796 17.7562C326.988 17.9277 327.109 18.1645 327.136 18.4203C327.198 18.8937 327.431 19.3283 327.791 19.6416C328.152 19.9551 328.615 20.1256 329.093 20.1211C329.567 20.1231 330.025 19.9523 330.382 19.6407C330.738 19.3293 330.969 18.8984 331.03 18.4292V18.4101L331.034 18.3917C331.066 18.1419 331.189 17.9126 331.379 17.7472C331.569 17.5816 331.813 17.4914 332.065 17.4935H332.161C332.417 17.4936 332.665 17.5887 332.855 17.7604C333.046 17.9322 333.166 18.1683 333.192 18.4233Z" fill="#8C87A6"/>
<path d="M329.129 14.6232C328.664 14.6245 328.203 14.5337 327.773 14.3559C327.343 14.1781 326.953 13.9169 326.625 13.5875C326.295 13.2598 326.034 12.87 325.856 12.4407C325.678 12.0114 325.587 11.551 325.588 11.0864C325.588 10.8781 325.671 10.6785 325.818 10.5311C325.966 10.3838 326.166 10.3009 326.374 10.3008C326.582 10.3009 326.782 10.3838 326.93 10.5311C327.077 10.6785 327.16 10.8781 327.16 11.0864C327.161 11.6078 327.368 12.1075 327.737 12.4762C328.107 12.8448 328.607 13.0521 329.129 13.0527C329.651 13.0521 330.152 12.8448 330.521 12.4762C330.89 12.1075 331.098 11.6078 331.099 11.0864C331.099 10.9833 331.119 10.8812 331.158 10.7858C331.198 10.6905 331.256 10.6039 331.328 10.5309C331.401 10.458 331.488 10.4 331.584 10.3606C331.679 10.3211 331.781 10.3008 331.884 10.3008C332.093 10.3009 332.293 10.3838 332.44 10.5311C332.587 10.6785 332.67 10.8781 332.67 11.0864C332.672 11.551 332.581 12.0113 332.403 12.4407C332.225 12.87 331.963 13.2598 331.633 13.5875C331.305 13.9169 330.915 14.178 330.485 14.3559C330.055 14.5337 329.594 14.6245 329.129 14.6232Z" fill="#8C87A6"/>
<path d="M24.4177 19.3778V19.5511H17.0234V19.3778C17.8544 19.2336 18.1816 19.0313 18.2704 18.3962V8.81004C18.2704 7.04762 17.6175 6.18131 16.2811 6.18131C15.8393 6.19003 15.4116 6.3344 15.0594 6.59379C14.707 6.85309 14.448 7.21425 14.3193 7.62546C14.3799 7.95927 14.4099 8.2977 14.4087 8.63678V17.6489C14.4087 18.7176 14.7352 19.1512 15.7428 19.3817V19.5549H8.67563V19.3778C9.68482 19.1489 10.0096 18.7138 10.0096 17.6451V8.80622C10.0096 7.0438 9.32618 6.17749 8.01963 6.17749C7.60418 6.18122 7.20045 6.31132 6.86491 6.54973C6.52936 6.78804 6.279 7.12258 6.14891 7.50635V17.6451C6.14891 18.7138 6.47536 19.1473 7.48291 19.3778V19.5511H0V19.3778C1.15736 19.1184 1.75145 18.6267 1.75145 17.4696V8.26127C1.75145 6.73008 1.33627 6.26753 0 6.15223V5.97897L6.14655 4.33257V7.04762C6.40555 6.21919 6.93945 5.49771 7.66482 4.99591C8.39027 4.49421 9.26627 4.24045 10.1556 4.27452C12.3826 4.27452 13.7786 5.37215 14.2235 7.16364C14.513 6.3046 15.0798 5.5594 15.8395 5.03889C16.5994 4.51838 17.5116 4.25026 18.4406 4.27452C21.2028 4.27452 22.6576 6.00795 22.6576 8.63678V17.4757C22.6655 18.6305 23.2595 19.1222 24.4177 19.3778Z" fill="#8C87A6"/>
<path d="M40.1282 16.4066C39.6237 18.7728 38.0495 19.9887 35.9692 19.9887C35.5943 20.022 35.2162 19.9825 34.8571 19.8723C34.498 19.7622 34.1651 19.5836 33.8777 19.3471C33.5902 19.1105 33.354 18.8206 33.1828 18.4945C33.0117 18.1682 32.9089 17.8121 32.8806 17.447L32.8218 17.2179C32.5503 18.0556 32.0008 18.7821 31.2594 19.2835C30.518 19.7849 29.6267 20.0329 28.7248 19.9887C28.2148 20.0273 27.7019 19.9624 27.219 19.7982C26.7361 19.6338 26.2935 19.3737 25.9194 19.0342C25.5453 18.6948 25.2478 18.2834 25.0457 17.8262C24.8437 17.369 24.7414 16.876 24.7456 16.3783C24.7456 13.8076 26.8838 12.1321 30.2989 11.4383L32.7637 10.9475V10.3369C32.7637 8.11265 31.9319 6.58219 29.4373 6.58219C27.5078 6.58219 26.1416 7.47757 25.4879 9.73079L25.2525 9.67283C25.7233 6.35096 27.984 4.271 31.4886 4.271C35.4379 4.271 37.1604 6.72647 37.1604 10.4238V16.2295C37.1604 17.2408 37.6649 17.7606 38.3187 17.7606C38.8828 17.7606 39.5358 17.4432 39.8622 16.3745L40.1282 16.4066ZM32.7637 16.7249V11.6688L31.6055 11.8711C29.289 12.3336 28.8441 13.7488 28.8441 15.164C28.8441 16.6371 29.5864 17.7927 31.0115 17.7927C31.3825 17.82 31.7528 17.7312 32.068 17.539C32.3834 17.3469 32.6271 17.0616 32.7637 16.7249Z" fill="#8C87A6"/>
<path d="M56.2542 19.3778V19.5511H48.7712V19.3778C49.7513 19.1488 50.1052 18.7137 50.1052 17.6451V8.83897C50.1052 7.07655 49.4225 6.18117 48.0265 6.18117C47.5532 6.17726 47.0893 6.30946 46.6931 6.56122C46.2968 6.81307 45.986 7.17323 45.7995 7.59634V17.6489C45.7995 18.7175 46.126 19.1511 47.1336 19.3816V19.5549H39.6513V19.3778C40.8096 19.1183 41.4036 18.6267 41.4036 17.4695V8.26113C41.4036 6.73003 40.9877 6.26739 39.6513 6.15219V5.97893L45.7988 4.33253V7.16505C46.0999 6.28384 46.6906 5.52347 47.4799 5.00105C48.2692 4.47872 49.2132 4.22341 50.1664 4.27447C52.9914 4.27447 54.502 5.95376 54.502 8.66499V17.4756C54.5028 18.6305 55.0968 19.1221 56.2542 19.3778Z" fill="#8C87A6"/>
<path d="M66.3514 16.1467C65.6987 18.2549 64.095 19.9884 61.5114 19.9884C59.0168 19.9884 57.8287 18.4573 57.8287 16.2048V5.34304H56.1068V5.19877C58.4732 3.90153 60.5277 2.12939 62.135 0H62.2541V4.76602H65.2532V5.34304H62.2505V15.5399C62.2505 16.8688 62.815 17.7641 63.9132 17.7641C64.4241 17.7633 64.9187 17.5944 65.3178 17.2849C65.7168 16.9754 65.9959 16.5435 66.1105 16.0597L66.3514 16.1467Z" fill="#8C87A6"/>
<path d="M78.6769 14.3265C77.9342 18.4857 75.2323 19.9879 72.6487 19.9879C69.2032 19.9879 66.0569 17.388 66.0569 12.4198C66.0569 7.68274 68.7596 4.27393 72.8278 4.27393C75.7078 4.27393 78.6778 6.03634 78.6478 10.8024H69.5014C69.7987 14.4997 71.7587 16.5507 74.6396 16.5507C75.4451 16.6229 76.2542 16.4396 76.9442 16.0283C77.6342 15.617 78.1696 14.9997 78.4696 14.2685L78.6769 14.3265ZM69.4705 9.75971V10.0772H74.6078C74.6378 6.37987 73.6578 5.08 72.1751 5.08C70.5105 5.083 69.4705 6.87367 69.4705 9.75971Z" fill="#8C87A6"/>
<path d="M90.0514 4.27393V8.43385H89.9032C89.4178 8.22642 88.8878 8.13702 88.3587 8.17355C86.4287 8.17355 85.1514 9.18495 85.1514 13.0266V17.4751C85.1514 18.7727 85.8942 19.1787 87.4969 19.3833V19.5566H79.0042V19.3772C80.1623 19.1177 80.7569 18.6261 80.7569 17.469V8.52016C80.7569 6.87367 80.3105 6.29592 79.0042 6.18062V6.00736L84.9732 4.33198V10.8024H85.1223C85.3578 6.15164 87.1414 4.27393 89.7251 4.27393H90.0514Z" fill="#8C87A6"/>
<path d="M88.745 17.562C88.755 16.9321 89.0196 16.3313 89.4805 15.8888C89.9414 15.4464 90.5623 15.1975 91.2096 15.1958C91.8523 15.2041 92.4659 15.456 92.9205 15.898C93.375 16.3399 93.6341 16.937 93.6423 17.562C93.6459 18.1934 93.3914 18.8004 92.935 19.2498C92.4796 19.6992 91.8587 19.9545 91.2096 19.9595C90.8859 19.9603 90.565 19.8989 90.265 19.7787C89.9659 19.6585 89.6941 19.4818 89.465 19.2591C89.2359 19.0363 89.0541 18.7717 88.9305 18.4804C88.8068 18.1892 88.7441 17.877 88.745 17.562Z" fill="#8C87A6"/>
<path fill-rule="evenodd" clip-rule="evenodd" d="M510.176 16.1579C513.601 17.684 517.153 18.3607 521.025 18.3822C525.093 18.4072 528.166 17.7678 532.07 16.2849L532.048 20.4879C528.553 22.2166 524.775 23.0212 520.999 22.9996C516.882 22.9755 513.916 22.1319 510.15 20.36L510.176 16.1579ZM546.832 7.8739C552.873 7.90794 552.81 10.4105 552.796 12.84L552.765 18.0153C552.761 18.9635 552.802 20.0337 553.333 20.8375L548.412 20.8092C548.294 20.468 548.223 19.9573 548.25 19.6186L548.2 19.6177C547.171 20.7768 545.685 21.1098 544.126 21.1007C541.688 21.0849 539.674 19.9075 539.69 17.2597C539.714 13.2742 544.388 13.4486 546.851 13.001C547.509 12.8823 548.168 12.6922 548.173 11.8909C548.178 11.0399 547.378 10.7185 546.596 10.7144C545.11 10.7069 544.814 11.4575 544.788 11.9914L540.304 11.9665C540.471 8.41941 543.836 7.8548 546.832 7.8739ZM494.864 3.14447L499.686 3.17187L499.651 9.29621H499.699C500.435 8.23093 501.73 7.60654 503.168 7.61401C507.404 7.63892 508.529 11.2416 508.512 14.2058C508.492 17.3643 506.743 20.8765 503.163 20.8575C500.8 20.8424 500.075 19.9391 499.47 19.1337H499.422L499.413 20.5203L494.762 20.4921L494.864 3.14447ZM534.642 3.38277L539.465 3.40934L539.363 20.7586L534.541 20.7304L534.642 3.38277ZM488.22 7.52683C494.26 7.56253 494.197 10.0651 494.182 12.4945L494.154 17.6707C494.147 18.6181 494.19 19.6875 494.72 20.4921L489.801 20.463C489.681 20.1226 489.61 19.6119 489.637 19.2723H489.588C488.559 20.4314 487.071 20.7636 485.511 20.7544C483.076 20.7395 481.062 19.5621 481.076 16.9143C481.1 12.9288 485.777 13.1023 488.238 12.6556C488.897 12.5369 489.555 12.3468 489.56 11.5455C489.565 10.6944 488.764 10.3731 487.984 10.369C486.499 10.3615 486.201 11.1121 486.175 11.6468L481.692 11.6211C481.859 8.074 485.222 7.51022 488.22 7.52683ZM470.025 3L485.127 3.08718L485.101 7.5343L480.228 7.50524L480.154 20.4082L474.795 20.3766L474.871 7.47452L470 7.44629L470.025 3ZM548.153 15.1465C547.567 15.4338 546.908 15.6007 546.251 15.7419C545.175 15.9802 544.617 16.2442 544.611 17.0936C544.608 17.6773 545.238 18.2635 546.113 18.2685C547.21 18.2743 548.066 17.6242 548.147 16.3115L548.153 15.1465ZM489.541 14.8003C488.955 15.0893 488.295 15.2553 487.638 15.3973C486.564 15.6348 486.002 15.8971 485.998 16.7474C485.995 17.3319 486.625 17.9181 487.501 17.9239C488.597 17.9297 489.453 17.2788 489.534 15.9669L489.541 14.8003ZM501.587 11.1046C499.858 11.0947 499.459 12.7204 499.45 14.2017C499.442 15.7078 499.822 17.3394 501.55 17.3494C503.281 17.3577 503.68 15.7336 503.689 14.2266C503.697 12.7445 503.317 11.1137 501.587 11.1046ZM515.299 3.00083C518.29 3.01704 520.24 4.26153 521.269 6.05471C522.318 4.27758 524.281 3.05947 527.267 3.07722C532.017 3.10545 534.143 6.2274 534.123 9.72548C534.102 13.2252 531.94 16.3455 527.19 16.3198C524.2 16.302 522.25 15.0477 521.221 13.248C520.171 15.0313 518.208 16.2589 515.221 16.2417C510.472 16.2143 508.346 13.0675 508.368 9.56855C508.388 6.06881 510.548 2.9726 515.299 3.00083ZM527.247 6.57608C525.42 6.56533 525.167 8.33721 525.16 9.674C525.151 11.0108 525.383 12.8092 527.211 12.8201C529.036 12.8317 529.291 11.034 529.299 9.69808C529.307 8.36129 529.074 6.58526 527.247 6.57608ZM515.279 6.49886C513.451 6.48811 513.198 8.26082 513.189 9.59595C513.182 10.9319 513.414 12.7328 515.242 12.7429C517.068 12.7536 517.323 10.9577 517.331 9.62003C517.339 8.28324 517.106 6.50887 515.279 6.49886Z" fill="#8C87A6" stroke="white"/>
</svg>
