<svg width="37" height="36" viewBox="0 0 37 36" fill="none" xmlns="http://www.w3.org/2000/svg">
<circle cx="18.9955" cy="18" r="18" fill="white"/>
<circle cx="18.9955" cy="18" r="17.5" stroke="#01103D" stroke-opacity="0.1"/>
<path fill-rule="evenodd" clip-rule="evenodd" d="M16.9509 15.2829C16.9401 15.2829 16.9193 15.2829 16.9085 15.2829C16.7294 15.2611 16.5819 15.0969 16.5819 14.911C16.5711 14.7359 16.4761 10.6439 18.7845 9.71399C19.3642 9.48421 19.9023 9.52795 20.3555 9.86718C20.9137 10.272 21.3143 11.0816 21.5568 12.2632C21.7251 13.0947 21.7567 13.8168 21.7567 13.8497C21.7675 14.0247 21.6309 14.156 21.451 14.1232C21.2719 14.1013 21.1245 13.9372 21.1245 13.7621C21.0928 13.0182 20.8504 10.9722 20.0498 10.3814C19.7966 10.1954 19.4801 10.1735 19.101 10.3267C17.1192 11.1253 17.2142 14.9657 17.2142 15.0094C17.2142 15.1626 17.1092 15.2829 16.9509 15.2829Z" fill="#595961"/>
<path opacity="0.46" fill-rule="evenodd" clip-rule="evenodd" d="M20.2389 9.88942C19.8174 9.58304 19.3225 9.5393 18.7844 9.74718C17.8464 10.1301 17.1825 11.1367 16.8559 12.6684C16.6135 13.7953 16.6452 14.8129 16.6452 14.8566C16.6452 14.9113 16.666 14.9661 16.7085 15.0098C16.7502 15.0535 16.7926 15.0864 16.8451 15.0864C16.8559 15.0864 16.8667 15.0864 16.8768 15.0864C16.9717 15.0864 17.0458 15.0098 17.0458 14.9113C17.0458 14.8676 16.9509 10.9616 18.9852 10.141C19.3959 9.97697 19.7541 9.9988 20.0498 10.2176C20.9029 10.8413 21.1561 12.9529 21.1877 13.7078C21.1877 13.8172 21.2827 13.9267 21.3985 13.9376C21.5042 13.9485 21.5884 13.8719 21.5884 13.7625C21.5776 13.6312 21.4618 10.7866 20.2389 9.88942Z" fill="#B2B2C2"/>
<path opacity="0.46" fill-rule="evenodd" clip-rule="evenodd" d="M16.8557 14.9551C16.8449 14.9551 16.845 14.9551 16.8349 14.9551C16.7716 14.9441 16.7183 14.8785 16.7083 14.8129C16.7083 14.769 16.6766 13.7735 16.919 12.6465C17.2348 11.1476 17.8995 10.152 18.8159 9.77995C19.3324 9.57207 19.7964 9.61588 20.197 9.90035C21.3774 10.7647 21.4933 13.5656 21.4933 13.6859C21.4933 13.7516 21.4407 13.7953 21.3774 13.7844C21.3141 13.7735 21.2616 13.7188 21.2508 13.6422C21.2508 13.6093 21.135 10.8632 20.0704 10.0754C19.7539 9.84566 19.364 9.81281 18.9217 9.98783C16.8557 10.8522 16.9507 14.8129 16.9507 14.8566C16.9608 14.9113 16.919 14.9551 16.8557 14.9551Z" fill="#B2B2C2"/>
<path opacity="0.62" fill-rule="evenodd" clip-rule="evenodd" d="M17.7097 11.8255C17.7939 11.6614 17.878 11.4973 17.9521 11.3223C17.9205 11.377 17.7097 11.9459 17.0666 11.8584C17.0558 11.8584 17.4457 11.9787 17.7097 11.8255Z" fill="#595961"/>
<path opacity="0.62" fill-rule="evenodd" clip-rule="evenodd" d="M17.4773 12.5263C17.5406 12.3512 17.6039 12.1653 17.6463 11.9902C17.6255 12.0559 17.5197 12.6467 16.845 12.6467C16.845 12.6467 17.2349 12.7233 17.4773 12.5263Z" fill="#595961"/>
<path opacity="0.62" fill-rule="evenodd" clip-rule="evenodd" d="M21.177 11.1146C21.0928 10.9176 20.9978 10.7316 20.9029 10.5347C20.9345 10.6003 21.251 11.2239 20.8928 11.6725C20.8928 11.6725 21.1669 11.4537 21.177 11.1146Z" fill="#595961"/>
<path opacity="0.62" fill-rule="evenodd" clip-rule="evenodd" d="M20.5977 10.1302C20.4287 9.98795 20.2604 9.85666 20.0913 9.73633C20.1546 9.79102 20.7135 10.1958 20.6819 10.8086C20.6711 10.8086 20.7661 10.4475 20.5977 10.1302Z" fill="#595961"/>
<path opacity="0.62" fill-rule="evenodd" clip-rule="evenodd" d="M18.0154 11.2241C18.142 11.0928 18.247 10.9506 18.3628 10.7974C18.3211 10.8411 17.9729 11.2897 17.3514 11.1256C17.3514 11.1256 17.7096 11.3226 18.0154 11.2241Z" fill="#595961"/>
<path opacity="0.62" fill-rule="evenodd" clip-rule="evenodd" d="M18.4053 10.7205C18.5527 10.6111 18.6894 10.5017 18.8268 10.3813C18.7743 10.4142 18.342 10.7752 17.7413 10.5126C17.7413 10.5126 18.0887 10.7642 18.4053 10.7205Z" fill="#595961"/>
<path opacity="0.62" fill-rule="evenodd" clip-rule="evenodd" d="M18.9742 10.3595C19.1534 10.3048 19.3224 10.2392 19.4907 10.1736C19.4274 10.1954 18.8901 10.3923 18.3628 9.97656C18.3736 9.97656 18.6477 10.3048 18.9742 10.3595Z" fill="#595961"/>
<path opacity="0.62" fill-rule="evenodd" clip-rule="evenodd" d="M19.4907 10.1628C19.6382 10.1847 19.7856 10.1956 19.9331 10.2066C19.8806 10.1956 19.4166 10.1628 19.1533 9.7251C19.1533 9.7251 19.2591 10.0205 19.4907 10.1628Z" fill="#595961"/>
<path opacity="0.62" fill-rule="evenodd" clip-rule="evenodd" d="M20.1022 10.4031C20.2072 10.5235 20.3237 10.6439 20.4496 10.7533C20.4079 10.7095 20.0497 10.3484 20.1339 9.8999C20.1231 9.8999 20.0072 10.1515 20.1022 10.4031Z" fill="#595961"/>
<path opacity="0.74" fill-rule="evenodd" clip-rule="evenodd" d="M21.3774 13.6313C21.3774 13.5109 21.2616 10.7428 20.1129 9.9004C19.8913 9.73626 19.6489 9.65967 19.3957 9.65967C19.2058 9.65967 19.0058 9.70341 18.795 9.79095C17.8779 10.152 17.2348 11.1258 16.919 12.6137C16.6766 13.7297 16.7083 14.7254 16.7083 14.7691C16.7083 14.802 16.7399 14.8347 16.7716 14.8347H16.7816C16.8133 14.8347 16.8349 14.8129 16.8349 14.7801C16.8349 14.7363 16.7291 10.7428 18.8475 9.88945C19.3115 9.70341 19.7122 9.73626 20.0496 9.98788C21.1451 10.7866 21.2616 13.5766 21.2616 13.6094C21.2616 13.6422 21.2933 13.675 21.3249 13.675C21.3249 13.675 21.3249 13.675 21.335 13.675C21.3566 13.686 21.3774 13.6641 21.3774 13.6313Z" fill="url(#paint0_linear_1_1279)"/>
<path fill-rule="evenodd" clip-rule="evenodd" d="M21.5566 12.2633C21.3142 11.0817 20.9136 10.283 20.3554 9.86719C20.0496 9.64843 19.7224 9.54993 19.3641 9.57184C19.649 9.59367 19.9123 9.69217 20.1547 9.86719C20.7136 10.2721 21.1143 11.0817 21.3567 12.2633C21.525 13.0948 21.5566 13.8169 21.5566 13.8498C21.5566 13.981 21.4933 14.0795 21.3876 14.1123C21.4092 14.1233 21.4301 14.1233 21.4409 14.1233C21.62 14.1452 21.7566 14.0248 21.7466 13.8498C21.7566 13.8169 21.725 13.1058 21.5566 12.2633Z" fill="url(#paint1_linear_1_1279)"/>
<path fill-rule="evenodd" clip-rule="evenodd" d="M18.9008 10.3271C16.9191 11.1257 17.014 14.966 17.014 15.0098C17.014 15.1411 16.9507 15.2396 16.845 15.2724C16.8666 15.2833 16.8766 15.2833 16.8982 15.2833C16.9083 15.2833 16.9299 15.2833 16.9399 15.2833C17.0982 15.2833 17.2032 15.163 17.2032 15.0098C17.2032 14.966 17.109 11.1367 19.09 10.338C19.2274 10.2833 19.354 10.2505 19.4698 10.2395C19.3007 10.2067 19.1116 10.2395 18.9008 10.3271Z" fill="url(#paint2_linear_1_1279)"/>
<path fill-rule="evenodd" clip-rule="evenodd" d="M21.9041 11.2786L12.9665 14.1451C12.9665 14.1451 12.5874 14.2546 12.4924 14.3749C12.3975 14.4952 12.3766 14.8344 12.3766 14.8344L10.9955 25.8849L21.3668 27.898L22.1681 11.2677C22.0523 11.2458 21.9358 11.2677 21.9041 11.2786Z" fill="url(#paint3_linear_1_1279)"/>
<path fill-rule="evenodd" clip-rule="evenodd" d="M24.9929 12.7008C24.9929 12.7008 24.9821 12.6133 24.9296 12.5805C24.8871 12.5476 24.8346 12.5476 24.8346 12.5476L23.3694 12.4383L22.2947 11.3332C22.2522 11.3004 22.2098 11.2785 22.1573 11.2676L21.3567 27.8979L26.9739 26.6397L24.9929 12.7008Z" fill="url(#paint4_linear_1_1279)"/>
<path fill-rule="evenodd" clip-rule="evenodd" d="M18.2154 20.5127C18.0572 20.2939 17.868 20.097 17.6781 19.9219C17.4882 19.7469 17.2882 19.6046 17.0875 19.4733C16.9509 19.3858 16.8243 19.2983 16.7185 19.2107C16.6135 19.1232 16.5293 19.0357 16.466 18.9591C16.4027 18.8715 16.3502 18.795 16.3186 18.7075C16.2869 18.6199 16.2761 18.5324 16.2761 18.4448C16.2761 18.3245 16.3078 18.2042 16.3502 18.1057C16.3919 18.0072 16.466 17.9197 16.5394 17.8431C16.6243 17.7665 16.7185 17.7118 16.835 17.6681C16.9509 17.6243 17.0875 17.6024 17.235 17.5915C17.3932 17.5805 17.5515 17.5915 17.6989 17.6024C17.8464 17.6133 17.9838 17.6462 18.1205 17.679C18.2471 17.7118 18.3737 17.7556 18.4787 17.7994C18.5844 17.8431 18.6894 17.8868 18.7635 17.9307L19.4592 15.7862C19.3541 15.7315 19.2275 15.6768 19.0901 15.644C18.9427 15.6002 18.7844 15.5674 18.6053 15.5455C18.4262 15.5236 18.2363 15.5127 18.0363 15.5127C17.8363 15.5127 17.6256 15.5236 17.404 15.5564C16.93 15.6221 16.5078 15.7534 16.1287 15.9503C15.7704 16.1363 15.4539 16.377 15.1907 16.6724C14.9374 16.9569 14.7375 17.2851 14.59 17.6571C14.4526 18.0182 14.3685 18.423 14.3476 18.8606C14.3368 19.1232 14.3577 19.3639 14.421 19.5827C14.4735 19.8016 14.5583 20.0094 14.6742 20.2064C14.7792 20.4033 14.9166 20.5784 15.064 20.7425C15.2115 20.9066 15.3906 21.0598 15.5697 21.202C15.7172 21.3114 15.8438 21.4208 15.9495 21.5193C16.0546 21.6178 16.1394 21.7162 16.202 21.8257C16.2653 21.9241 16.3078 22.0226 16.3394 22.132C16.3711 22.2305 16.3819 22.3398 16.3711 22.4493C16.3711 22.5587 16.3394 22.6681 16.297 22.7556C16.2553 22.8432 16.202 22.9307 16.1179 22.9963C16.0445 23.062 15.9496 23.1057 15.8438 23.1276C15.7388 23.1495 15.6122 23.1604 15.4748 23.1386C15.3173 23.1167 15.159 23.0729 15.0115 23.0072C14.8641 22.9525 14.7159 22.8759 14.5792 22.7993C14.4426 22.7228 14.316 22.6353 14.2102 22.5587C14.0944 22.4821 13.9994 22.3945 13.9261 22.3289L13.4513 23.9591C13.5254 24.0685 13.6304 24.167 13.7462 24.2655C13.8628 24.364 13.9995 24.4624 14.1577 24.5609C14.316 24.6484 14.4843 24.7359 14.6634 24.8125C14.8425 24.8891 15.0432 24.9547 15.2432 25.0095H15.254H15.264H15.2748H15.2856C15.7172 25.1079 16.1287 25.1298 16.5185 25.0751C16.9192 25.0204 17.2882 24.8781 17.604 24.6594C17.9306 24.4296 18.1945 24.1232 18.3945 23.7184C18.5952 23.3136 18.711 22.8212 18.7319 22.2633C18.7427 21.9131 18.7003 21.6068 18.6053 21.3224C18.5104 20.9941 18.3737 20.7425 18.2154 20.5127Z" fill="url(#paint5_linear_1_1279)"/>
<path opacity="0.226763" fill-rule="evenodd" clip-rule="evenodd" d="M13.5196 24.0483C13.4951 24.0193 13.4721 23.9896 13.4512 23.9592L13.926 22.329C13.9325 22.3351 13.9397 22.3414 13.9468 22.3478C14.0173 22.4108 14.1051 22.4893 14.2101 22.5588C14.3159 22.6354 14.4425 22.7229 14.5792 22.7995C14.7158 22.876 14.864 22.9526 15.0114 23.0074C15.1589 23.073 15.3172 23.1168 15.4747 23.1387C15.6121 23.1605 15.7387 23.1496 15.8437 23.1277C15.9495 23.1058 16.0444 23.0621 16.1178 22.9964C16.2019 22.9308 16.2552 22.8432 16.2969 22.7557C16.3394 22.6681 16.371 22.5588 16.371 22.4494C16.3818 22.3399 16.371 22.2305 16.3393 22.132C16.3077 22.0227 16.2652 21.9242 16.2019 21.8257C16.1422 21.7217 16.0631 21.6277 15.9646 21.534C16.0163 21.5925 16.0602 21.6526 16.0969 21.7163C16.1602 21.8148 16.202 21.9132 16.2336 22.0227C16.2653 22.1211 16.276 22.2305 16.2653 22.3399C16.2653 22.4494 16.2336 22.5588 16.1919 22.6463C16.1495 22.7339 16.0969 22.8213 16.0128 22.887C15.9387 22.9526 15.8437 22.9964 15.7387 23.0183C15.633 23.0402 15.5064 23.0511 15.3697 23.0292C15.2114 23.0074 15.0532 22.9636 14.9057 22.8979C14.7583 22.8432 14.6108 22.7666 14.4734 22.69C14.3367 22.6134 14.2101 22.526 14.1051 22.4494C13.9994 22.3799 13.9116 22.3014 13.8411 22.2384C13.8339 22.232 13.8274 22.2257 13.8202 22.2196L13.3462 23.8498C13.3929 23.9194 13.4527 23.9846 13.5196 24.0483ZM15.0726 20.7525C15.033 20.7133 14.9949 20.6736 14.9582 20.6332C14.8108 20.469 14.6741 20.294 14.5684 20.0971C14.4525 19.9001 14.3684 19.6922 14.3159 19.4734C14.2526 19.2546 14.231 19.0139 14.2418 18.7513C14.2626 18.3136 14.3475 17.9088 14.4842 17.5478C14.6317 17.1758 14.8324 16.8476 15.0848 16.5631C15.3488 16.2677 15.6646 16.027 16.0228 15.841C16.4026 15.6441 16.8242 15.5128 17.2982 15.4471C17.5197 15.4143 17.7305 15.4033 17.9305 15.4033C18.1312 15.4033 18.3211 15.4143 18.5002 15.4362C18.6793 15.4581 18.8376 15.4909 18.985 15.5347C19.1217 15.5675 19.2483 15.6222 19.3541 15.6768L19.3375 15.728C19.2613 15.6949 19.1778 15.665 19.0901 15.6441C18.9426 15.6003 18.7843 15.5675 18.6052 15.5456C18.4261 15.5237 18.2362 15.5128 18.0362 15.5128C17.8363 15.5128 17.6255 15.5237 17.404 15.5565C16.9299 15.6222 16.5077 15.7534 16.1286 15.9504C15.7704 16.1364 15.4538 16.3771 15.1906 16.6725C14.9374 16.957 14.7374 17.2852 14.5899 17.6572C14.4525 18.0183 14.3684 18.4231 14.3475 18.8607C14.3367 19.1233 14.3576 19.364 14.4209 19.5828C14.4734 19.8016 14.5583 20.0095 14.6741 20.2064C14.7791 20.4034 14.9165 20.5785 15.0639 20.7425C15.0668 20.7458 15.0697 20.7492 15.0726 20.7525ZM16.5041 19.004C16.5616 19.0691 16.6336 19.1399 16.7184 19.2108C16.8242 19.2983 16.9508 19.3859 17.0875 19.4734C17.2881 19.6047 17.4881 19.747 17.678 19.922C17.7334 19.9729 17.7881 20.0257 17.8427 20.0804C17.755 19.986 17.6636 19.8968 17.5722 19.8126C17.3831 19.6375 17.1824 19.4953 16.9824 19.364C16.845 19.2764 16.7184 19.189 16.6134 19.1014C16.5739 19.0688 16.5379 19.0361 16.5041 19.004Z" fill="black"/>
<path opacity="0.41" fill-rule="evenodd" clip-rule="evenodd" d="M23.7275 24.8019L23.3693 12.4385L23.306 12.3729L23.4751 24.6268C23.4751 24.6268 21.9889 26.9682 21.7674 26.9025C21.4408 26.8041 22.4104 11.4538 22.4104 11.4538L22.3047 11.3445C22.263 11.3116 22.2098 11.2898 22.168 11.2788L21.3775 27.6794L21.3667 27.9091L21.6407 27.5481L23.7275 24.8019Z" fill="url(#paint6_linear_1_1279)"/>
<path fill-rule="evenodd" clip-rule="evenodd" d="M19.6907 11.9903C19.5648 12.5045 19.4066 12.9859 19.2908 13.2813C19.2167 13.4564 19.3008 13.6205 19.4591 13.6424C19.6281 13.6643 19.8173 13.5439 19.8806 13.3689C19.8914 13.336 20.1755 12.6249 20.3554 11.7824V11.7715L19.6907 11.9903Z" fill="url(#paint7_linear_1_1279)"/>
<path fill-rule="evenodd" clip-rule="evenodd" d="M14.9374 13.5217C14.7899 13.8499 14.6425 14.1344 14.5367 14.3313C14.4425 14.4955 14.495 14.6705 14.6532 14.7142C14.8108 14.769 15.0215 14.6705 15.1165 14.5063C15.1273 14.4845 15.433 13.9484 15.7071 13.27L14.9374 13.5217Z" fill="url(#paint8_linear_1_1279)"/>
<path opacity="0.32" fill-rule="evenodd" clip-rule="evenodd" d="M21.3667 27.8981L23.7275 24.8018L26.9954 26.6399L21.3667 27.8981Z" fill="url(#paint9_linear_1_1279)"/>
<path opacity="0.19" fill-rule="evenodd" clip-rule="evenodd" d="M21.3667 27.8981L23.7067 24.8018L26.9954 26.6399L21.3667 27.8981Z" fill="url(#paint10_linear_1_1279)"/>
<path opacity="0.19" fill-rule="evenodd" clip-rule="evenodd" d="M21.3667 27.8981L23.7067 24.8018L26.9954 26.6399L21.3667 27.8981Z" fill="url(#paint11_linear_1_1279)"/>
<path opacity="0.6" fill-rule="evenodd" clip-rule="evenodd" d="M19.0693 19.2329C20.2922 20.9506 21.1143 22.8106 21.5251 24.6159L22.1682 11.2569C22.0524 11.2351 21.9358 11.2569 21.9042 11.2679L12.9665 14.1454C12.9665 14.1454 12.8824 14.1672 12.7766 14.211C15.0432 15.0206 17.3091 16.7603 19.0693 19.2329Z" fill="url(#paint12_linear_1_1279)"/>
<path fill-rule="evenodd" clip-rule="evenodd" d="M24.9395 12.5918C24.9928 12.6356 24.9928 12.7013 24.9928 12.7013L26.953 26.6291L23.7275 24.791L23.3693 12.4277L24.8137 12.5371C24.8237 12.5481 24.887 12.5481 24.9395 12.5918Z" fill="url(#paint13_linear_1_1279)"/>
<path fill-rule="evenodd" clip-rule="evenodd" d="M24.708 12.6247C24.708 12.6247 24.7713 12.6247 24.8238 12.6794C24.8763 12.7232 24.8871 12.7889 24.8871 12.7889L26.8163 26.5636L26.9638 26.6511L25.0029 12.7123C25.0029 12.7123 24.9928 12.6466 24.9504 12.6029C24.8979 12.5591 24.8238 12.5591 24.8238 12.5591L23.3801 12.4497L24.708 12.6247Z" fill="url(#paint14_linear_1_1279)"/>
<path fill-rule="evenodd" clip-rule="evenodd" d="M10.9955 25.8845L21.3668 27.8976L21.8732 16.4971L12.2852 16.7696L10.9955 25.8845Z" fill="url(#paint15_linear_1_1279)"/>
<path opacity="0.3" fill-rule="evenodd" clip-rule="evenodd" d="M14.4 14.3048C14.3057 14.5707 14.3985 14.8501 14.6086 14.929C14.8179 15.0078 15.0639 14.8562 15.1589 14.5903C15.2531 14.3245 15.1596 14.045 14.9503 13.9662C14.7409 13.8873 14.4942 14.0389 14.4 14.3048Z" fill="white"/>
<path opacity="0.89" fill-rule="evenodd" clip-rule="evenodd" d="M14.3885 14.1784C14.2943 14.4442 14.3878 14.7237 14.5971 14.8025C14.8064 14.8814 15.0532 14.7298 15.1474 14.4639C15.2416 14.198 15.1488 13.9185 14.9388 13.8397C14.7295 13.7608 14.4835 13.9124 14.3885 14.1784Z" fill="black"/>
<path fill-rule="evenodd" clip-rule="evenodd" d="M23.3801 12.4383L22.3047 11.3332C22.263 11.3004 22.2098 11.2785 22.168 11.2676L21.3667 27.8979L23.7383 24.7906L23.3801 12.4383Z" fill="url(#paint16_linear_1_1279)"/>
<path fill-rule="evenodd" clip-rule="evenodd" d="M21.9041 11.2786L12.9665 14.1451C12.9665 14.1451 12.5874 14.2545 12.4925 14.3749C12.4817 14.3858 12.4816 14.3968 12.4716 14.4077L21.4826 11.8256C21.5567 11.8037 21.7358 11.7381 21.715 12.2742L21.1668 27.8761L21.3567 27.9089L22.1573 11.2786C22.0523 11.2457 21.9358 11.2676 21.9041 11.2786Z" fill="url(#paint17_linear_1_1279)"/>
<path fill-rule="evenodd" clip-rule="evenodd" d="M21.9041 11.2786L12.9665 14.1451C12.9665 14.1451 12.5874 14.2545 12.4925 14.3749C12.4817 14.3858 12.4816 14.3968 12.4716 14.4077L14.5583 13.8059L21.7358 11.4974C21.7675 11.4865 21.8833 11.4646 21.9991 11.4865L21.2086 27.8761L21.3567 27.9089L22.1573 11.2786C22.0523 11.2457 21.9358 11.2676 21.9041 11.2786Z" fill="url(#paint18_linear_1_1279)"/>
<path opacity="0.32" fill-rule="evenodd" clip-rule="evenodd" d="M24.2023 25.0645L23.7276 24.791L21.3567 27.8983L21.4826 27.8654C21.4826 27.8654 23.57 25.0755 23.7592 24.9879C23.8966 24.9333 24.2023 25.0645 24.2023 25.0645Z" fill="url(#paint19_linear_1_1279)"/>
<path opacity="0.57" fill-rule="evenodd" clip-rule="evenodd" d="M21.3667 27.8983L23.7383 24.791C23.7275 24.802 22.2313 26.4978 21.3667 27.8983Z" fill="url(#paint20_linear_1_1279)"/>
<path opacity="0.46" fill-rule="evenodd" clip-rule="evenodd" d="M26.9955 26.6399L23.7384 24.8018C23.7276 24.8018 24.1074 24.8674 26.9955 26.6399Z" fill="url(#paint21_linear_1_1279)"/>
<path opacity="0.3" fill-rule="evenodd" clip-rule="evenodd" d="M19.2189 13.2139C19.1239 13.4799 19.2175 13.7593 19.4268 13.8382C19.6368 13.9171 19.8828 13.7655 19.9771 13.4996C20.072 13.2337 19.9785 12.9542 19.7692 12.8753C19.5599 12.7965 19.3131 12.9481 19.2189 13.2139Z" fill="white"/>
<path opacity="0.89" fill-rule="evenodd" clip-rule="evenodd" d="M19.2073 13.088C19.1131 13.3539 19.2067 13.6334 19.416 13.7123C19.6253 13.7911 19.872 13.6395 19.9662 13.3736C20.0605 13.1077 19.9677 12.8283 19.7583 12.7494C19.5483 12.6705 19.3023 12.8221 19.2073 13.088Z" fill="black"/>
<path fill-rule="evenodd" clip-rule="evenodd" d="M14.7691 14.7141C14.7583 14.7141 14.7374 14.7141 14.7266 14.7141C14.5583 14.6922 14.4425 14.5281 14.4634 14.3421C14.4842 14.167 15.0848 10.0751 17.5514 9.14514C18.1729 8.91536 18.7002 8.9591 19.1008 9.29833C19.5857 9.70314 19.8489 10.5128 19.8914 11.6944C19.923 12.5259 19.8281 13.248 19.8281 13.2808C19.8073 13.4558 19.649 13.5872 19.48 13.5543C19.3116 13.5324 19.185 13.3684 19.2167 13.1933C19.3116 12.4493 19.4166 10.4034 18.711 9.81252C18.4894 9.62655 18.1837 9.60464 17.773 9.75783C15.6546 10.5565 15.0956 14.3968 15.0956 14.4296C15.0532 14.5937 14.9273 14.7141 14.7691 14.7141Z" fill="#595961"/>
<path opacity="0.46" fill-rule="evenodd" clip-rule="evenodd" d="M18.9743 9.3205C18.6053 9.0142 18.1204 8.97046 17.5407 9.17834C16.5394 9.56124 15.6963 10.5678 15.1165 12.0886C14.6849 13.2155 14.5367 14.233 14.5367 14.2768C14.5267 14.3315 14.5475 14.3862 14.5792 14.43C14.6108 14.4737 14.6533 14.5066 14.7058 14.5066C14.7158 14.5066 14.7266 14.5066 14.7374 14.5066C14.8324 14.5066 14.9165 14.43 14.9273 14.3315C14.9374 14.2878 15.4963 10.3818 17.678 9.56124C18.1204 9.3971 18.4786 9.41901 18.7318 9.63784C19.4799 10.2615 19.3749 12.3731 19.28 13.128C19.2692 13.2374 19.3433 13.3468 19.4483 13.3578C19.554 13.3687 19.6591 13.2921 19.6698 13.1827C19.6806 13.0623 20.0497 10.2177 18.9743 9.3205Z" fill="#B2B2C2"/>
<path opacity="0.81" fill-rule="evenodd" clip-rule="evenodd" d="M14.7266 14.3862C14.7158 14.3862 14.7158 14.3862 14.7058 14.3862C14.6425 14.3753 14.6 14.3097 14.6108 14.244C14.6216 14.2002 14.7583 13.2046 15.1906 12.0777C15.7704 10.5788 16.5926 9.58312 17.5723 9.2111C18.1312 9.00322 18.5844 9.04703 18.9318 9.33151C19.9648 10.1958 19.6066 12.9967 19.5857 13.1171C19.5749 13.1827 19.5224 13.2264 19.4483 13.2156C19.3857 13.2046 19.3433 13.1499 19.3433 13.0733C19.3433 13.0405 19.7015 10.2943 18.7743 9.50653C18.5002 9.29865 18.1204 9.27682 17.6572 9.45184C15.433 10.2943 14.8532 14.244 14.8532 14.2877C14.8425 14.3424 14.7899 14.3862 14.7266 14.3862Z" fill="#B2B2C2"/>
<path opacity="0.42" fill-rule="evenodd" clip-rule="evenodd" d="M16.1178 11.2567C16.2336 11.0926 16.3393 10.9284 16.4443 10.7534C16.4026 10.8081 16.0969 11.3771 15.4646 11.2895C15.4538 11.2895 15.8228 11.4098 16.1178 11.2567Z" fill="#595961"/>
<path opacity="0.42" fill-rule="evenodd" clip-rule="evenodd" d="M15.7597 11.957C15.8546 11.7819 15.9496 11.5959 16.0229 11.4209C15.9913 11.4865 15.7805 12.0773 15.1166 12.0773C15.1166 12.0773 15.4856 12.1539 15.7597 11.957Z" fill="#595961"/>
<path opacity="0.42" fill-rule="evenodd" clip-rule="evenodd" d="M15.4855 12.6796C15.5697 12.4935 15.633 12.3076 15.6963 12.1216C15.6647 12.1872 15.5489 12.789 14.8533 12.8656C14.8533 12.8546 15.2323 12.8984 15.4855 12.6796Z" fill="#595961"/>
<path opacity="0.62" fill-rule="evenodd" clip-rule="evenodd" d="M19.7015 10.5457C19.6489 10.3487 19.5964 10.1627 19.5223 9.96582C19.5432 10.0315 19.754 10.6551 19.3224 11.1036C19.3224 11.1036 19.6382 10.8849 19.7015 10.5457Z" fill="#595961"/>
<path opacity="0.62" fill-rule="evenodd" clip-rule="evenodd" d="M19.2908 9.56084C19.1433 9.41861 18.9951 9.28732 18.8477 9.16699C18.9009 9.22168 19.3958 9.62649 19.2591 10.2392C19.2483 10.2392 19.4066 9.8781 19.2908 9.56084Z" fill="#595961"/>
<path opacity="0.62" fill-rule="evenodd" clip-rule="evenodd" d="M19.8073 11.552C19.7965 11.3551 19.7648 11.1472 19.7332 10.9502C19.7332 11.0268 19.8389 11.6723 19.3325 12.0224C19.3325 12.0224 19.6807 11.8693 19.8073 11.552Z" fill="#595961"/>
<path opacity="0.62" fill-rule="evenodd" clip-rule="evenodd" d="M19.8598 12.5807C19.8706 12.3838 19.8706 12.1759 19.8598 11.979C19.8598 12.0556 19.8706 12.7011 19.3325 12.9965C19.3325 12.9856 19.7016 12.8762 19.8598 12.5807Z" fill="#595961"/>
<path opacity="0.42" fill-rule="evenodd" clip-rule="evenodd" d="M15.2431 13.4778C15.3064 13.2809 15.3489 13.084 15.3906 12.8979C15.3697 12.9636 15.2748 13.5872 14.6317 13.7404C14.6425 13.7404 15.0216 13.7295 15.2431 13.4778Z" fill="#595961"/>
<path opacity="0.42" fill-rule="evenodd" clip-rule="evenodd" d="M16.5185 10.6547C16.666 10.5235 16.8033 10.3812 16.9299 10.228C16.8767 10.2718 16.4552 10.7204 15.8654 10.5562C15.8754 10.5562 16.202 10.7532 16.5185 10.6547Z" fill="#595961"/>
<path opacity="0.42" fill-rule="evenodd" clip-rule="evenodd" d="M16.9925 10.1517C17.1615 10.0423 17.3198 9.93283 17.4773 9.8125C17.4147 9.84536 16.9299 10.2064 16.371 9.94378C16.371 9.94378 16.6659 10.1954 16.9925 10.1517Z" fill="#595961"/>
<path opacity="0.62" fill-rule="evenodd" clip-rule="evenodd" d="M17.6355 9.79069C17.8254 9.73593 18.0045 9.67028 18.1836 9.60464C18.1203 9.62655 17.5514 9.82347 17.0874 9.40771C17.0874 9.40771 17.3089 9.73593 17.6355 9.79069Z" fill="#595961"/>
<path opacity="0.62" fill-rule="evenodd" clip-rule="evenodd" d="M18.173 9.59391C18.3211 9.61582 18.4686 9.62677 18.6161 9.63772C18.5636 9.62677 18.1104 9.59391 17.9097 9.15625C17.9205 9.15625 17.973 9.45167 18.173 9.59391Z" fill="#595961"/>
<path opacity="0.62" fill-rule="evenodd" clip-rule="evenodd" d="M18.7426 9.83436C18.8376 9.95469 18.9318 10.075 19.0267 10.1845C18.9951 10.1407 18.7002 9.77967 18.8476 9.33105C18.8584 9.33105 18.7002 9.58274 18.7426 9.83436Z" fill="#595961"/>
<path fill-rule="evenodd" clip-rule="evenodd" d="M19.4698 13.0619C19.4799 12.9415 19.8388 10.1735 18.8375 9.331C18.6476 9.16693 18.416 9.09033 18.1628 9.09033C17.9729 9.09033 17.7621 9.13407 17.5406 9.22162C16.5709 9.58268 15.7595 10.5564 15.1905 12.0444C14.7582 13.1604 14.6215 14.156 14.6107 14.1998C14.6107 14.2325 14.6316 14.2654 14.6633 14.2654H14.674C14.7057 14.2654 14.7265 14.2435 14.7265 14.2107C14.7373 14.1669 15.3063 10.1735 17.5722 9.32004C18.057 9.13407 18.4685 9.16693 18.7634 9.41854C19.7223 10.2172 19.3641 13.0072 19.354 13.04C19.354 13.0728 19.3749 13.1057 19.4065 13.1057C19.4065 13.1057 19.4065 13.1057 19.4166 13.1057C19.4482 13.1166 19.4698 13.0947 19.4698 13.0619Z" fill="url(#paint22_linear_1_1279)"/>
<path fill-rule="evenodd" clip-rule="evenodd" d="M19.8915 11.6945C19.849 10.5128 19.5858 9.7141 19.1009 9.29834C18.8377 9.07958 18.5212 8.98108 18.163 9.00299C18.437 9.02482 18.6895 9.12332 18.901 9.29834C19.3858 9.70322 19.6491 10.5128 19.6908 11.6945C19.7224 12.526 19.6282 13.248 19.6282 13.2809C19.6066 13.4122 19.5225 13.5107 19.4167 13.5435C19.4383 13.5544 19.4484 13.5544 19.47 13.5544C19.6383 13.5763 19.7965 13.4559 19.8174 13.2809C19.8282 13.248 19.9231 12.5369 19.8915 11.6945Z" fill="url(#paint23_linear_1_1279)"/>
<path fill-rule="evenodd" clip-rule="evenodd" d="M17.5622 9.75778C15.4438 10.5564 14.8849 14.3968 14.8849 14.4405C14.864 14.5718 14.7791 14.6703 14.6741 14.7031C14.6949 14.714 14.7057 14.714 14.7266 14.714C14.7374 14.714 14.7582 14.714 14.769 14.714C14.9273 14.714 15.0532 14.5937 15.0747 14.4405C15.0848 14.3968 15.6329 10.5674 17.7514 9.76866C17.8996 9.71397 18.0255 9.68119 18.142 9.67024C17.9837 9.64833 17.783 9.68119 17.5622 9.75778Z" fill="url(#paint24_linear_1_1279)"/>
<defs>
<linearGradient id="paint0_linear_1_1279" x1="17.2578" y1="9.68436" x2="16.9273" y2="14.1849" gradientUnits="userSpaceOnUse">
<stop stop-color="white" stop-opacity="0.65"/>
<stop offset="1" stop-color="white" stop-opacity="0.01"/>
</linearGradient>
<linearGradient id="paint1_linear_1_1279" x1="19.6734" y1="12.26" x2="22.0007" y2="14.2984" gradientUnits="userSpaceOnUse">
<stop stop-opacity="0.01"/>
<stop offset="1" stop-opacity="0.4"/>
</linearGradient>
<linearGradient id="paint2_linear_1_1279" x1="18.7404" y1="14.6184" x2="21.2038" y2="12.324" gradientUnits="userSpaceOnUse">
<stop stop-opacity="0.01"/>
<stop offset="1" stop-opacity="0.4"/>
</linearGradient>
<linearGradient id="paint3_linear_1_1279" x1="15.605" y1="7.92242" x2="6.03707" y2="18.9467" gradientUnits="userSpaceOnUse">
<stop stop-color="#B8D26E"/>
<stop offset="1" stop-color="#7FB525"/>
</linearGradient>
<linearGradient id="paint4_linear_1_1279" x1="28.6931" y1="10.6823" x2="23.442" y2="10.7798" gradientUnits="userSpaceOnUse">
<stop stop-color="#B4E034"/>
<stop offset="1" stop-color="#60A927"/>
</linearGradient>
<linearGradient id="paint5_linear_1_1279" x1="13.0744" y1="18.0334" x2="8.7692" y2="28.5173" gradientUnits="userSpaceOnUse">
<stop stop-color="white"/>
<stop offset="1" stop-color="#CECEEB"/>
</linearGradient>
<linearGradient id="paint6_linear_1_1279" x1="19.2469" y1="43.8522" x2="26.0653" y2="43.8384" gradientUnits="userSpaceOnUse">
<stop stop-color="#1D1D1B" stop-opacity="0.5"/>
<stop offset="0.038033" stop-color="#1D1D1B" stop-opacity="0.4837"/>
<stop offset="0.4243" stop-color="#1D1D1B" stop-opacity="0.3185"/>
<stop offset="1" stop-color="#1D1D1B" stop-opacity="0.01"/>
</linearGradient>
<linearGradient id="paint7_linear_1_1279" x1="20.0389" y1="11.0372" x2="18.9077" y2="11.646" gradientUnits="userSpaceOnUse">
<stop stop-opacity="0.01"/>
<stop offset="1" stop-opacity="0.4"/>
</linearGradient>
<linearGradient id="paint8_linear_1_1279" x1="15.2963" y1="12.8426" x2="14.5012" y2="13.526" gradientUnits="userSpaceOnUse">
<stop stop-opacity="0.01"/>
<stop offset="1" stop-opacity="0.4"/>
</linearGradient>
<linearGradient id="paint9_linear_1_1279" x1="23.0528" y1="26.648" x2="23.1333" y2="27.7093" gradientUnits="userSpaceOnUse">
<stop stop-opacity="0.01"/>
<stop offset="1" stop-opacity="0.4"/>
</linearGradient>
<linearGradient id="paint10_linear_1_1279" x1="21.1732" y1="25.0945" x2="21.3598" y2="27.8536" gradientUnits="userSpaceOnUse">
<stop stop-color="white" stop-opacity="0.5"/>
<stop offset="0.0896271" stop-color="white" stop-opacity="0.4552"/>
<stop offset="1" stop-color="white" stop-opacity="0.01"/>
</linearGradient>
<linearGradient id="paint11_linear_1_1279" x1="20.8143" y1="25.5236" x2="21.1463" y2="28.4709" gradientUnits="userSpaceOnUse">
<stop stop-opacity="0.01"/>
<stop offset="1" stop-opacity="0.4"/>
</linearGradient>
<linearGradient id="paint12_linear_1_1279" x1="19.5117" y1="8.5665" x2="10.9969" y2="13.4911" gradientUnits="userSpaceOnUse">
<stop stop-color="white" stop-opacity="0.5"/>
<stop offset="1" stop-color="white" stop-opacity="0.01"/>
</linearGradient>
<linearGradient id="paint13_linear_1_1279" x1="21.1545" y1="34.3045" x2="28.67" y2="34.3197" gradientUnits="userSpaceOnUse">
<stop stop-color="#1D1D1B" stop-opacity="0.5"/>
<stop offset="0.0896271" stop-color="#1D1D1B" stop-opacity="0.4552"/>
<stop offset="1" stop-color="#1D1D1B" stop-opacity="0.01"/>
</linearGradient>
<linearGradient id="paint14_linear_1_1279" x1="26.5365" y1="12.0351" x2="25.4689" y2="12.2967" gradientUnits="userSpaceOnUse">
<stop stop-color="white" stop-opacity="0.4"/>
<stop offset="1" stop-color="white" stop-opacity="0.01"/>
</linearGradient>
<linearGradient id="paint15_linear_1_1279" x1="16.958" y1="28.0194" x2="17.5132" y2="25.343" gradientUnits="userSpaceOnUse">
<stop stop-color="#1D1D1B" stop-opacity="0.5"/>
<stop offset="0.0896271" stop-color="#1D1D1B" stop-opacity="0.4552"/>
<stop offset="1" stop-color="#1D1D1B" stop-opacity="0.01"/>
</linearGradient>
<linearGradient id="paint16_linear_1_1279" x1="20.1676" y1="43.5113" x2="27.0105" y2="43.5172" gradientUnits="userSpaceOnUse">
<stop stop-color="#1D1D1B" stop-opacity="0.5"/>
<stop offset="1" stop-color="#1D1D1B" stop-opacity="0.01"/>
</linearGradient>
<linearGradient id="paint17_linear_1_1279" x1="13.9145" y1="10.3144" x2="10.5957" y2="23.0652" gradientUnits="userSpaceOnUse">
<stop stop-color="white" stop-opacity="0.5"/>
<stop offset="1" stop-color="white" stop-opacity="0.01"/>
</linearGradient>
<linearGradient id="paint18_linear_1_1279" x1="13.9145" y1="10.3144" x2="10.5957" y2="23.0652" gradientUnits="userSpaceOnUse">
<stop stop-color="white" stop-opacity="0.5"/>
<stop offset="1" stop-color="white" stop-opacity="0.01"/>
</linearGradient>
<linearGradient id="paint19_linear_1_1279" x1="21.9688" y1="23.681" x2="19.3456" y2="27.2916" gradientUnits="userSpaceOnUse">
<stop stop-color="white" stop-opacity="0.5"/>
<stop offset="0.0896271" stop-color="white" stop-opacity="0.4552"/>
<stop offset="1" stop-color="white" stop-opacity="0.01"/>
</linearGradient>
<linearGradient id="paint20_linear_1_1279" x1="22.76" y1="24.5111" x2="22.5003" y2="25.0933" gradientUnits="userSpaceOnUse">
<stop stop-opacity="0.01"/>
<stop offset="1" stop-opacity="0.4"/>
</linearGradient>
<linearGradient id="paint21_linear_1_1279" x1="25.336" y1="25.2808" x2="25.3232" y2="25.4373" gradientUnits="userSpaceOnUse">
<stop stop-opacity="0.01"/>
<stop offset="1" stop-opacity="0.4"/>
</linearGradient>
<linearGradient id="paint22_linear_1_1279" x1="15.8897" y1="8.72203" x2="14.7557" y2="13.202" gradientUnits="userSpaceOnUse">
<stop stop-color="white" stop-opacity="0.65"/>
<stop offset="1" stop-color="white" stop-opacity="0.01"/>
</linearGradient>
<linearGradient id="paint23_linear_1_1279" x1="18.4277" y1="11.3066" x2="20.4004" y2="13.3122" gradientUnits="userSpaceOnUse">
<stop stop-opacity="0.01"/>
<stop offset="1" stop-opacity="0.4"/>
</linearGradient>
<linearGradient id="paint24_linear_1_1279" x1="17.1666" y1="14.2599" x2="19.8922" y2="11.4607" gradientUnits="userSpaceOnUse">
<stop stop-opacity="0.01"/>
<stop offset="1" stop-opacity="0.4"/>
</linearGradient>
</defs>
</svg>
