<svg width="1800" height="910" viewBox="0 0 1800 910" fill="none" xmlns="http://www.w3.org/2000/svg">
<path d="M0 30C0 13.4315 13.4315 0 30 0H1770C1786.57 0 1800 13.4315 1800 30V715.514C1800 731.008 1788.2 743.953 1772.77 745.385L32.7738 906.957C15.1854 908.59 0 894.749 0 877.085V30Z" fill="#F1F5FF"/>
<mask id="mask0_1_9" style="mask-type:alpha" maskUnits="userSpaceOnUse" x="0" y="0" width="1800" height="908">
<path d="M0 30C0 13.4315 13.4315 0 30 0H1770C1786.57 0 1800 13.4315 1800 30V715.514C1800 731.008 1788.2 743.953 1772.77 745.385L32.7738 906.957C15.1854 908.59 0 894.749 0 877.085V30Z" fill="#5C58E1"/>
</mask>
<g mask="url(#mask0_1_9)">
<mask id="mask1_1_9" style="mask-type:alpha" maskUnits="userSpaceOnUse" x="0" y="0" width="1800" height="908">
<path d="M0 30C0 13.4315 13.4315 0 30 0H1770C1786.57 0 1800 13.4315 1800 30V715.514C1800 731.008 1788.2 743.953 1772.77 745.385L32.7738 906.957C15.1854 908.59 0 894.749 0 877.085V30Z" fill="#5C58E1"/>
</mask>
<g mask="url(#mask1_1_9)">
<g opacity="0.9">
<path d="M0 -106.651C0 -157.528 0 -182.966 10.2181 -202.399C19.2063 -219.492 33.5482 -233.389 51.1884 -242.099C71.2426 -252 97.4951 -252 150 -252H1650C1702.5 -252 1728.76 -252 1748.81 -242.099C1766.45 -233.389 1780.79 -219.492 1789.78 -202.399C1800 -182.966 1800 -157.528 1800 -106.651V852.651C1800 903.528 1800 928.966 1789.78 948.399C1780.79 965.492 1766.45 979.389 1748.81 988.099C1728.76 998 1702.5 998 1650 998H150C97.4951 998 71.2426 998 51.1884 988.099C33.5482 979.389 19.2063 965.492 10.2181 948.399C0 928.966 0 903.528 0 852.651V-106.651Z" fill="url(#paint0_linear_1_9)"/>
<path d="M0 -106.651C0 -157.528 0 -182.966 10.2181 -202.399C19.2063 -219.492 33.5482 -233.389 51.1884 -242.099C71.2426 -252 97.4951 -252 150 -252H1650C1702.5 -252 1728.76 -252 1748.81 -242.099C1766.45 -233.389 1780.79 -219.492 1789.78 -202.399C1800 -182.966 1800 -157.528 1800 -106.651V852.651C1800 903.528 1800 928.966 1789.78 948.399C1780.79 965.492 1766.45 979.389 1748.81 988.099C1728.76 998 1702.5 998 1650 998H150C97.4951 998 71.2426 998 51.1884 988.099C33.5482 979.389 19.2063 965.492 10.2181 948.399C0 928.966 0 903.528 0 852.651V-106.651Z" fill="url(#paint1_linear_1_9)"/>
</g>
</g>
<g style="mix-blend-mode:lighten" opacity="0.6" filter="url(#filter0_b_1_9)">
<path d="M-0.999878 329C358.184 25.2107 1442.28 -110.472 1801 149.919" stroke="url(#paint2_linear_1_9)" stroke-width="2"/>
<path d="M485.343 -2.2343C254.489 -46.3674 5.201 64.9007 -63.9224 262.665" stroke="white" stroke-width="2"/>
<path d="M1709 131C1709 178.742 1670.27 222.234 1607.04 253.849C1543.87 285.435 1456.53 305 1360 305C1263.47 305 1176.13 285.435 1112.96 253.849C1049.73 222.234 1011 178.742 1011 131C1011 83.2579 1049.73 39.7664 1112.96 8.15074C1176.13 -23.435 1263.47 -43 1360 -43C1456.53 -43 1543.87 -23.435 1607.04 8.15074C1670.27 39.7664 1709 83.2579 1709 131Z" stroke="url(#paint3_linear_1_9)" stroke-width="2"/>
</g>
<mask id="mask2_1_9" style="mask-type:alpha" maskUnits="userSpaceOnUse" x="200" y="154" width="1400" height="622">
<ellipse cx="900" cy="465" rx="700" ry="311" fill="url(#paint4_radial_1_9)"/>
</mask>
<g mask="url(#mask2_1_9)">
<g opacity="0.24">
<rect x="490" width="1" height="1040" fill="white"/>
<rect x="429" width="1" height="1040" fill="white"/>
<rect x="368" width="1" height="1040" fill="white"/>
<rect x="550" width="1" height="1040" fill="white"/>
<rect x="610" width="1" height="1040" fill="white"/>
<rect x="670" width="1" height="1040" fill="white"/>
<rect x="730" width="1" height="1040" fill="white"/>
<rect x="790" width="1" height="1040" fill="white"/>
<rect x="850" width="1" height="1040" fill="white"/>
<rect x="910" width="1" height="1040" fill="white"/>
<rect x="970" width="1" height="1040" fill="white"/>
<rect x="1030" width="1" height="1040" fill="white"/>
<rect x="1090" width="1" height="1040" fill="white"/>
<rect x="1150" width="1" height="1040" fill="white"/>
<rect x="1210" width="1" height="1040" fill="white"/>
<rect x="1270" width="1" height="1040" fill="white"/>
<rect x="1330" width="1" height="1040" fill="white"/>
<rect x="1390" width="1" height="1040" fill="white"/>
<rect x="1450" width="1" height="1040" fill="white"/>
</g>
<g opacity="0.24">
<rect x="300" y="250" width="1200" height="1" fill="white"/>
<rect x="300" y="311" width="1200" height="1" fill="white"/>
<rect x="300" y="372" width="1200" height="1" fill="white"/>
<rect x="300" y="433" width="1200" height="1" fill="white"/>
<rect x="300" y="495" width="1200" height="1" fill="white"/>
<rect x="300" y="557" width="1200" height="1" fill="white"/>
<rect x="300" y="619" width="1200" height="1" fill="white"/>
<rect x="300" y="681" width="1200" height="1" fill="white"/>
<rect x="300" y="742" width="1200" height="1" fill="white"/>
</g>
<g opacity="0.24">
<circle cx="368.5" cy="743.5" r="2.5" fill="white"/>
<circle cx="429.5" cy="743.5" r="2.5" fill="white"/>
<circle cx="490.5" cy="743.5" r="2.5" fill="white"/>
<circle cx="550.5" cy="743.5" r="2.5" fill="white"/>
<circle cx="610.5" cy="743.5" r="2.5" fill="white"/>
<circle cx="670.5" cy="743.5" r="2.5" fill="white"/>
<circle cx="730.5" cy="743.5" r="2.5" fill="white"/>
<circle cx="790.5" cy="743.5" r="2.5" fill="white"/>
<circle cx="850.5" cy="743.5" r="2.5" fill="white"/>
<circle cx="910.5" cy="743.5" r="2.5" fill="white"/>
<circle cx="970.5" cy="743.5" r="2.5" fill="white"/>
<circle cx="1030.5" cy="743.5" r="2.5" fill="white"/>
<circle cx="1090.5" cy="743.5" r="2.5" fill="white"/>
<circle cx="1150.5" cy="743.5" r="2.5" fill="white"/>
<circle cx="1210.5" cy="743.5" r="2.5" fill="white"/>
<circle cx="1270.5" cy="743.5" r="2.5" fill="white"/>
<circle cx="1330.5" cy="743.5" r="2.5" fill="white"/>
<circle cx="1390.5" cy="743.5" r="2.5" fill="white"/>
<circle cx="368.5" cy="681.5" r="2.5" fill="white"/>
<circle cx="429.5" cy="681.5" r="2.5" fill="white"/>
<circle cx="490.5" cy="681.5" r="2.5" fill="white"/>
<circle cx="550.5" cy="681.5" r="2.5" fill="white"/>
<circle cx="610.5" cy="681.5" r="2.5" fill="white"/>
<circle cx="670.5" cy="681.5" r="2.5" fill="white"/>
<circle cx="730.5" cy="681.5" r="2.5" fill="white"/>
<circle cx="790.5" cy="681.5" r="2.5" fill="white"/>
<circle cx="850.5" cy="681.5" r="2.5" fill="white"/>
<circle cx="910.5" cy="681.5" r="2.5" fill="white"/>
<circle cx="970.5" cy="681.5" r="2.5" fill="white"/>
<circle cx="1030.5" cy="681.5" r="2.5" fill="white"/>
<circle cx="1090.5" cy="681.5" r="2.5" fill="white"/>
<circle cx="1150.5" cy="681.5" r="2.5" fill="white"/>
<circle cx="1210.5" cy="681.5" r="2.5" fill="white"/>
<circle cx="1270.5" cy="681.5" r="2.5" fill="white"/>
<circle cx="1330.5" cy="681.5" r="2.5" fill="white"/>
<circle cx="1390.5" cy="681.5" r="2.5" fill="white"/>
<circle cx="1450.5" cy="681.5" r="2.5" fill="white"/>
<circle cx="368.5" cy="619.5" r="2.5" fill="white"/>
<circle cx="429.5" cy="619.5" r="2.5" fill="white"/>
<circle cx="490.5" cy="619.5" r="2.5" fill="white"/>
<circle cx="550.5" cy="619.5" r="2.5" fill="white"/>
<circle cx="610.5" cy="619.5" r="2.5" fill="white"/>
<circle cx="670.5" cy="619.5" r="2.5" fill="white"/>
<circle cx="730.5" cy="619.5" r="2.5" fill="white"/>
<circle cx="790.5" cy="619.5" r="2.5" fill="white"/>
<circle cx="850.5" cy="619.5" r="2.5" fill="white"/>
<circle cx="910.5" cy="619.5" r="2.5" fill="white"/>
<circle cx="970.5" cy="619.5" r="2.5" fill="white"/>
<circle cx="1030.5" cy="619.5" r="2.5" fill="white"/>
<circle cx="1090.5" cy="619.5" r="2.5" fill="white"/>
<circle cx="1150.5" cy="619.5" r="2.5" fill="white"/>
<circle cx="1210.5" cy="619.5" r="2.5" fill="white"/>
<circle cx="1270.5" cy="619.5" r="2.5" fill="white"/>
<circle cx="1330.5" cy="619.5" r="2.5" fill="white"/>
<circle cx="1390.5" cy="619.5" r="2.5" fill="white"/>
<circle cx="1450.5" cy="619.5" r="2.5" fill="white"/>
<circle cx="368.5" cy="557.5" r="2.5" fill="white"/>
<circle cx="429.5" cy="557.5" r="2.5" fill="white"/>
<circle cx="490.5" cy="557.5" r="2.5" fill="white"/>
<circle cx="550.5" cy="557.5" r="2.5" fill="white"/>
<circle cx="610.5" cy="557.5" r="2.5" fill="white"/>
<circle cx="670.5" cy="557.5" r="2.5" fill="white"/>
<circle cx="730.5" cy="557.5" r="2.5" fill="white"/>
<circle cx="790.5" cy="557.5" r="2.5" fill="white"/>
<circle cx="850.5" cy="557.5" r="2.5" fill="white"/>
<circle cx="910.5" cy="557.5" r="2.5" fill="white"/>
<circle cx="970.5" cy="557.5" r="2.5" fill="white"/>
<circle cx="1030.5" cy="557.5" r="2.5" fill="white"/>
<circle cx="1090.5" cy="557.5" r="2.5" fill="white"/>
<circle cx="1150.5" cy="557.5" r="2.5" fill="white"/>
<circle cx="1210.5" cy="557.5" r="2.5" fill="white"/>
<circle cx="1270.5" cy="557.5" r="2.5" fill="white"/>
<circle cx="1330.5" cy="557.5" r="2.5" fill="white"/>
<circle cx="1390.5" cy="557.5" r="2.5" fill="white"/>
<circle cx="1450.5" cy="557.5" r="2.5" fill="white"/>
<circle cx="368.5" cy="495.5" r="2.5" fill="white"/>
<circle cx="429.5" cy="495.5" r="2.5" fill="white"/>
<circle cx="490.5" cy="495.5" r="2.5" fill="white"/>
<circle cx="550.5" cy="495.5" r="2.5" fill="white"/>
<circle cx="610.5" cy="495.5" r="2.5" fill="white"/>
<circle cx="670.5" cy="495.5" r="2.5" fill="white"/>
<circle cx="730.5" cy="495.5" r="2.5" fill="white"/>
<circle cx="790.5" cy="495.5" r="2.5" fill="white"/>
<circle cx="850.5" cy="495.5" r="2.5" fill="white"/>
<circle cx="910.5" cy="495.5" r="2.5" fill="white"/>
<circle cx="970.5" cy="495.5" r="2.5" fill="white"/>
<circle cx="1030.5" cy="495.5" r="2.5" fill="white"/>
<circle cx="1090.5" cy="495.5" r="2.5" fill="white"/>
<circle cx="1150.5" cy="495.5" r="2.5" fill="white"/>
<circle cx="1210.5" cy="495.5" r="2.5" fill="white"/>
<circle cx="1270.5" cy="495.5" r="2.5" fill="white"/>
<circle cx="1330.5" cy="495.5" r="2.5" fill="white"/>
<circle cx="1390.5" cy="495.5" r="2.5" fill="white"/>
<circle cx="1450.5" cy="495.5" r="2.5" fill="white"/>
<circle cx="368.5" cy="433.5" r="2.5" fill="white"/>
<circle cx="429.5" cy="433.5" r="2.5" fill="white"/>
<circle cx="490.5" cy="433.5" r="2.5" fill="white"/>
<circle cx="550.5" cy="433.5" r="2.5" fill="white"/>
<circle cx="610.5" cy="433.5" r="2.5" fill="white"/>
<circle cx="670.5" cy="433.5" r="2.5" fill="white"/>
<circle cx="730.5" cy="433.5" r="2.5" fill="white"/>
<circle cx="790.5" cy="433.5" r="2.5" fill="white"/>
<circle cx="850.5" cy="433.5" r="2.5" fill="white"/>
<circle cx="910.5" cy="433.5" r="2.5" fill="white"/>
<circle cx="970.5" cy="433.5" r="2.5" fill="white"/>
<circle cx="1030.5" cy="433.5" r="2.5" fill="white"/>
<circle cx="1090.5" cy="433.5" r="2.5" fill="white"/>
<circle cx="1150.5" cy="433.5" r="2.5" fill="white"/>
<circle cx="1210.5" cy="433.5" r="2.5" fill="white"/>
<circle cx="1270.5" cy="433.5" r="2.5" fill="white"/>
<circle cx="1330.5" cy="433.5" r="2.5" fill="white"/>
<circle cx="1390.5" cy="433.5" r="2.5" fill="white"/>
<circle cx="1450.5" cy="433.5" r="2.5" fill="white"/>
<circle cx="368.5" cy="372.5" r="2.5" fill="white"/>
<circle cx="429.5" cy="372.5" r="2.5" fill="white"/>
<circle cx="490.5" cy="372.5" r="2.5" fill="white"/>
<circle cx="550.5" cy="372.5" r="2.5" fill="white"/>
<circle cx="610.5" cy="372.5" r="2.5" fill="white"/>
<circle cx="670.5" cy="372.5" r="2.5" fill="white"/>
<circle cx="730.5" cy="372.5" r="2.5" fill="white"/>
<circle cx="790.5" cy="372.5" r="2.5" fill="white"/>
<circle cx="850.5" cy="372.5" r="2.5" fill="white"/>
<circle cx="910.5" cy="372.5" r="2.5" fill="white"/>
<circle cx="970.5" cy="372.5" r="2.5" fill="white"/>
<circle cx="1030.5" cy="372.5" r="2.5" fill="white"/>
<circle cx="1090.5" cy="372.5" r="2.5" fill="white"/>
<circle cx="1150.5" cy="372.5" r="2.5" fill="white"/>
<circle cx="1210.5" cy="372.5" r="2.5" fill="white"/>
<circle cx="1270.5" cy="372.5" r="2.5" fill="white"/>
<circle cx="1330.5" cy="372.5" r="2.5" fill="white"/>
<circle cx="1390.5" cy="372.5" r="2.5" fill="white"/>
<circle cx="1450.5" cy="372.5" r="2.5" fill="white"/>
<circle cx="368.5" cy="311.5" r="2.5" fill="white"/>
<circle cx="429.5" cy="311.5" r="2.5" fill="white"/>
<circle cx="490.5" cy="311.5" r="2.5" fill="white"/>
<circle cx="550.5" cy="311.5" r="2.5" fill="white"/>
<circle cx="610.5" cy="311.5" r="2.5" fill="white"/>
<circle cx="670.5" cy="311.5" r="2.5" fill="white"/>
<circle cx="730.5" cy="311.5" r="2.5" fill="white"/>
<circle cx="790.5" cy="311.5" r="2.5" fill="white"/>
<circle cx="850.5" cy="311.5" r="2.5" fill="white"/>
<circle cx="910.5" cy="311.5" r="2.5" fill="white"/>
<circle cx="970.5" cy="311.5" r="2.5" fill="white"/>
<circle cx="1030.5" cy="311.5" r="2.5" fill="white"/>
<circle cx="1090.5" cy="311.5" r="2.5" fill="white"/>
<circle cx="1150.5" cy="311.5" r="2.5" fill="white"/>
<circle cx="1210.5" cy="311.5" r="2.5" fill="white"/>
<circle cx="1270.5" cy="311.5" r="2.5" fill="white"/>
<circle cx="1330.5" cy="311.5" r="2.5" fill="white"/>
<circle cx="1390.5" cy="311.5" r="2.5" fill="white"/>
<circle cx="1450.5" cy="311.5" r="2.5" fill="white"/>
<circle cx="368.5" cy="250.5" r="2.5" fill="white"/>
<circle cx="429.5" cy="250.5" r="2.5" fill="white"/>
<circle cx="490.5" cy="250.5" r="2.5" fill="white"/>
<circle cx="550.5" cy="250.5" r="2.5" fill="white"/>
<circle cx="610.5" cy="250.5" r="2.5" fill="white"/>
<circle cx="670.5" cy="250.5" r="2.5" fill="white"/>
<circle cx="730.5" cy="250.5" r="2.5" fill="white"/>
<circle cx="790.5" cy="250.5" r="2.5" fill="white"/>
<circle cx="850.5" cy="250.5" r="2.5" fill="white"/>
<circle cx="910.5" cy="250.5" r="2.5" fill="white"/>
<circle cx="970.5" cy="250.5" r="2.5" fill="white"/>
<circle cx="1030.5" cy="250.5" r="2.5" fill="white"/>
<circle cx="1090.5" cy="250.5" r="2.5" fill="white"/>
<circle cx="1150.5" cy="250.5" r="2.5" fill="white"/>
<circle cx="1210.5" cy="250.5" r="2.5" fill="white"/>
<circle cx="1270.5" cy="250.5" r="2.5" fill="white"/>
<circle cx="1330.5" cy="250.5" r="2.5" fill="white"/>
<circle cx="1390.5" cy="250.5" r="2.5" fill="white"/>
<circle cx="1450.5" cy="250.5" r="2.5" fill="white"/>
</g>
</g>
</g>
<defs>
<filter id="filter0_b_1_9" x="-104.866" y="-84" width="1946.45" height="453.763" filterUnits="userSpaceOnUse" color-interpolation-filters="sRGB">
<feFlood flood-opacity="0" result="BackgroundImageFix"/>
<feGaussianBlur in="BackgroundImageFix" stdDeviation="20"/>
<feComposite in2="SourceAlpha" operator="in" result="effect1_backgroundBlur_1_9"/>
<feBlend mode="normal" in="SourceGraphic" in2="effect1_backgroundBlur_1_9" result="shape"/>
</filter>
<linearGradient id="paint0_linear_1_9" x1="0" y1="373" x2="1800" y2="373" gradientUnits="userSpaceOnUse">
<stop stop-color="#FFC368"/>
<stop offset="0.5" stop-color="#D569E1"/>
<stop offset="1" stop-color="#4164E1"/>
</linearGradient>
<linearGradient id="paint1_linear_1_9" x1="900" y1="-252" x2="900" y2="998" gradientUnits="userSpaceOnUse">
<stop stop-color="#FFF9F9"/>
<stop offset="1" stop-color="white" stop-opacity="0.1"/>
</linearGradient>
<linearGradient id="paint2_linear_1_9" x1="1776" y1="165" x2="-0.999875" y2="265" gradientUnits="userSpaceOnUse">
<stop stop-color="white"/>
<stop offset="0.372656" stop-color="white" stop-opacity="0"/>
<stop offset="1" stop-color="white"/>
</linearGradient>
<linearGradient id="paint3_linear_1_9" x1="1710" y1="100.701" x2="1535.44" y2="183.035" gradientUnits="userSpaceOnUse">
<stop stop-color="white"/>
<stop offset="1" stop-color="white" stop-opacity="0"/>
</linearGradient>
<radialGradient id="paint4_radial_1_9" cx="0" cy="0" r="1" gradientUnits="userSpaceOnUse" gradientTransform="translate(900 368.44) rotate(90) scale(407.56 917.339)">
<stop stop-color="#D9D9D9"/>
<stop offset="1" stop-color="#D9D9D9" stop-opacity="0"/>
</radialGradient>
</defs>
</svg>
