<svg width="111" height="112" viewBox="0 0 111 112" fill="none" xmlns="http://www.w3.org/2000/svg">
<path d="M17.4035 61.8031C16.9196 62.2997 16.3005 62.6426 15.6244 62.7887C14.9483 62.9348 14.2457 62.8774 13.6054 62.6238C12.9651 62.3703 12.4158 61.9319 12.0271 61.3641C11.6383 60.7963 11.4275 60.1247 11.4214 59.4341C11.4152 58.7435 11.614 58.065 11.9925 57.4843C12.371 56.9037 12.9123 56.447 13.5479 56.172C14.1835 55.8971 14.8849 55.8161 15.5634 55.9395C16.2419 56.0629 16.8669 56.385 17.3595 56.8651C18.0201 57.5089 18.3958 58.3909 18.4041 59.317C18.4123 60.243 18.0524 61.1373 17.4035 61.8031V61.8031Z" fill="#53E1F9"/>
<path d="M38.3723 64.4343C38.3703 64.3183 38.3442 64.2041 38.2957 64.099C38.2472 63.994 38.1773 63.9003 38.0905 63.8239C38.0122 63.7491 37.9191 63.6915 37.8171 63.6547C37.7117 63.614 37.6 63.5917 37.4867 63.5889C37.3749 63.5907 37.2645 63.6146 37.1615 63.6591C37.0586 63.7036 36.9653 63.7678 36.887 63.8482C36.8086 63.9286 36.7468 64.0235 36.705 64.1275C36.6631 64.2315 36.6421 64.3426 36.6432 64.4544C36.6454 64.6848 36.739 64.9042 36.9034 65.0644C37.0678 65.2246 37.2895 65.3125 37.5199 65.3089C37.6368 65.3092 37.7523 65.2829 37.8579 65.2319C37.9627 65.1852 38.0575 65.1185 38.137 65.0355C38.2138 64.9555 38.2741 64.8611 38.3145 64.758C38.3549 64.6548 38.3745 64.5448 38.3723 64.4343V64.4343Z" fill="#010101"/>
<path d="M48.2314 33.4411C48.1858 33.2235 48.0559 33.0335 47.8702 32.9123C47.6821 32.7897 47.4536 32.744 47.2317 32.7848C47.0099 32.8266 46.8131 32.9545 46.6845 33.1405C46.5558 33.3265 46.5057 33.5554 46.5452 33.7769C46.5652 33.8888 46.6073 33.9955 46.669 34.0906C46.7308 34.1858 46.811 34.2675 46.9049 34.331C46.9988 34.3946 47.1046 34.4388 47.216 34.4609C47.3275 34.483 47.4424 34.4826 47.5541 34.4598C47.6669 34.4417 47.7749 34.4006 47.8715 34.3391C47.9681 34.2776 48.0511 34.197 48.1155 34.1023C48.1799 34.0075 48.2242 33.9007 48.2457 33.7885C48.2671 33.6763 48.2654 33.561 48.2404 33.4498L48.2314 33.4411Z" fill="#010101"/>
<path d="M56.81 60.4216C56.7217 60.2121 56.5555 60.0455 56.3461 59.9567C56.1368 59.868 55.9006 59.8641 55.6871 59.9457C55.478 60.0318 55.3102 60.196 55.2195 60.4032C55.1289 60.6105 55.1227 60.8443 55.2023 61.0548C55.2942 61.2534 55.4585 61.4089 55.6619 61.4898C55.8653 61.5706 56.0924 61.5708 56.2971 61.4902C56.5019 61.4095 56.6688 61.2542 56.7641 61.0557C56.8594 60.8572 56.8758 60.6305 56.81 60.4216Z" fill="#010101"/>
<path d="M73.702 78.0154C73.5731 77.8396 73.3819 77.7198 73.167 77.6803C72.9521 77.6408 72.7296 77.6845 72.5445 77.8025C72.3593 77.9205 72.2254 78.1041 72.1696 78.3161C72.1138 78.5281 72.1404 78.7527 72.244 78.9447C72.302 79.0405 72.3788 79.1236 72.4699 79.1889C72.5609 79.2542 72.6643 79.3004 72.7739 79.3248C72.8835 79.3491 72.997 79.3512 73.1077 79.3307C73.2185 79.3103 73.3241 79.2678 73.4185 79.2058C73.5164 79.1468 73.6017 79.0689 73.6692 78.9766C73.7367 78.8844 73.7851 78.7796 73.8116 78.6686C73.838 78.5576 73.842 78.4425 73.8231 78.3303C73.8043 78.2181 73.7631 78.111 73.702 78.0154V78.0154Z" fill="#010101"/>
<path d="M27.0119 91.6659C26.8844 91.2467 26.5983 90.895 26.2143 90.6852C26.0326 90.5813 25.8317 90.5145 25.6234 90.489C25.4151 90.4634 25.2034 90.4795 25.0007 90.5362C24.5891 90.6429 24.2346 90.9065 24.0134 91.2704C23.7826 91.6404 23.705 92.0848 23.7971 92.5087C23.84 92.7249 23.9286 92.929 24.057 93.1075C24.1854 93.286 24.3507 93.4347 24.5417 93.5437C24.7341 93.6598 24.948 93.7361 25.1709 93.7682C25.3938 93.8004 25.6212 93.7877 25.8398 93.7309C26.0584 93.6741 26.2639 93.5744 26.4441 93.4375C26.6244 93.3006 26.7758 93.1294 26.8895 92.9338C27.0003 92.7432 27.0686 92.5311 27.0898 92.3122C27.1109 92.0933 27.0843 91.8728 27.0119 91.6659V91.6659Z" fill="#010101"/>
<path d="M97.0515 35.907C96.3079 36.6699 95.8056 37.6345 95.608 38.6787C95.4104 39.7229 95.5265 40.7998 95.9416 41.7732C96.3566 42.7466 97.0519 43.5727 97.9396 44.147C98.8273 44.7213 99.8674 45.0181 100.928 44.9996C101.989 44.9812 103.024 44.6485 103.9 44.0435C104.776 43.4386 105.456 42.5886 105.852 41.6011C106.249 40.6137 106.344 39.5331 106.127 38.4961C105.91 37.4591 105.389 36.5123 104.631 35.7754C103.616 34.7884 102.248 34.2478 100.827 34.2725C99.4053 34.2972 98.0475 34.8851 97.0515 35.907V35.907Z" fill="#FFBD4D"/>
</svg>
