<svg width="206" height="50" viewBox="0 0 206 50" fill="none" xmlns="http://www.w3.org/2000/svg">
<rect x="0.75" y="4.75" width="40.5" height="40.5" rx="20.25" stroke="white" stroke-opacity="0.14" stroke-width="1.5"/>
<path d="M19 32.7843H22V25.3921H24.7188L25 22.8511H22V21.5806C22 21.1956 22.0625 20.9261 22.1875 20.7721C22.3125 20.618 22.6146 20.541 23.0938 20.541H25V18H22.25C21 18 20.1458 18.2791 19.6875 18.8374C19.2292 19.3764 19 20.2138 19 21.3496V22.8511H17V25.3921H19V32.7843Z" fill="#979BA9"/>
<rect x="52" width="50" height="50" rx="25" fill="#5956E9"/>
<path d="M84.5625 19.2488C83.9167 19.6219 83.2188 19.8811 82.4688 20.0262C81.8229 19.3421 81.0208 19 80.0625 19C79.1667 19 78.3958 19.3213 77.75 19.964C77.1042 20.6067 76.7813 21.3737 76.7813 22.2652C76.7813 22.5139 76.8125 22.7627 76.875 23.0115C75.5417 22.9493 74.2813 22.6176 73.0938 22.0164C71.9271 21.4152 70.9375 20.6067 70.125 19.5908C69.8125 20.0884 69.6563 20.6378 69.6563 21.239C69.6563 22.3999 70.1458 23.3017 71.125 23.9444C70.6042 23.9444 70.1146 23.8096 69.6563 23.5401V23.6023C69.6563 24.3694 69.8958 25.0535 70.375 25.6547C70.875 26.2559 71.5104 26.6394 72.2813 26.8053C71.9896 26.8675 71.6979 26.8986 71.4063 26.8986C71.1979 26.8986 70.9896 26.8778 70.7813 26.8364C71.0104 27.4998 71.3958 28.0491 71.9375 28.4845C72.5 28.8991 73.1354 29.1064 73.8438 29.1064C72.6563 30.0393 71.3021 30.5058 69.7813 30.5058C69.5313 30.5058 69.2708 30.4954 69 30.4747C70.5417 31.4491 72.2188 31.9362 74.0313 31.9362C75.4896 31.9362 76.8229 31.6564 78.0313 31.0966C79.2396 30.5369 80.2188 29.8113 80.9688 28.9199C81.7396 28.0077 82.3333 27.0126 82.75 25.9346C83.1667 24.8358 83.375 23.7371 83.375 22.6383C83.375 22.4932 83.375 22.3584 83.375 22.2341C84.0208 21.7572 84.5625 21.1871 85 20.5237C84.3958 20.7932 83.7708 20.9695 83.125 21.0524C83.8333 20.617 84.3125 20.0158 84.5625 19.2488Z" fill="white"/>
<rect x="112.75" y="4.75" width="40.5" height="40.5" rx="20.25" stroke="white" stroke-opacity="0.16" stroke-width="1.5"/>
<path d="M127.029 22.2H129.81V31H127.029V22.2ZM135.517 22.2C135.38 22.2 135.243 22.2083 135.107 22.225C134.99 22.2417 134.873 22.2667 134.756 22.3C134.639 22.3333 134.541 22.3667 134.463 22.4C134.385 22.4167 134.287 22.4583 134.17 22.525C134.053 22.575 133.975 22.6083 133.936 22.625C133.917 22.6417 133.848 22.6917 133.731 22.775C133.614 22.8583 133.556 22.9 133.556 22.9V22.2H130.775V31H133.556V25.45C133.556 25.4333 133.556 25.4 133.556 25.35C133.556 25.3 133.575 25.2083 133.614 25.075C133.673 24.9417 133.741 24.8333 133.819 24.75C133.917 24.65 134.063 24.5583 134.258 24.475C134.473 24.3917 134.717 24.35 134.99 24.35C135.458 24.35 135.799 24.45 136.014 24.65C136.248 24.85 136.365 25.1167 136.365 25.45V31H139.321V25.55C139.321 24.9667 139.214 24.4667 138.999 24.05C138.785 23.6167 138.531 23.2917 138.238 23.075C137.965 22.8417 137.633 22.6583 137.243 22.525C136.873 22.375 136.551 22.2833 136.277 22.25C136.024 22.2167 135.77 22.2 135.517 22.2ZM127.41 19.35C127.137 19.5833 127 19.8667 127 20.2C127 20.5333 127.137 20.8167 127.41 21.05C127.683 21.2833 128.015 21.4 128.405 21.4C128.795 21.4 129.127 21.2833 129.4 21.05C129.673 20.8167 129.81 20.5333 129.81 20.2C129.81 19.8667 129.673 19.5833 129.4 19.35C129.127 19.1167 128.795 19 128.405 19C128.015 19 127.683 19.1167 127.41 19.35Z" fill="#979BA9"/>
<rect x="164.75" y="4.75" width="40.5" height="40.5" rx="20.25" stroke="white" stroke-opacity="0.16" stroke-width="1.5"/>
<path d="M186.042 22.3008C186.553 21.9927 186.99 21.902 187.355 22.0289C187.72 22.1558 187.92 22.4186 187.957 22.8173C188.011 23.2161 187.911 23.6783 187.656 24.2039C186.762 25.8714 186.115 26.7052 185.714 26.7052C185.531 26.7052 185.358 26.4967 185.194 26.0799C185.03 25.6449 184.82 24.9289 184.565 23.932C184.51 23.6602 184.437 23.2524 184.346 22.7086C184.255 22.1648 184.164 21.7027 184.073 21.322C184 20.9414 183.89 20.5517 183.745 20.153C183.599 19.7542 183.389 19.4733 183.116 19.3101C182.86 19.1289 182.55 19.0745 182.186 19.147C181.657 19.2558 181.046 19.582 180.353 20.1258C179.66 20.6514 179.086 21.1498 178.63 21.6211C178.193 22.0742 177.983 22.3098 178.001 22.328L178.575 23.062C178.612 23.0439 178.648 23.0167 178.685 22.9805C178.74 22.9442 178.84 22.8808 178.986 22.7902C179.15 22.6995 179.296 22.627 179.423 22.5727C179.551 22.5183 179.679 22.4911 179.806 22.4911C179.952 22.4911 180.061 22.5364 180.134 22.627C180.28 22.7902 180.672 23.923 181.31 26.0255C181.967 28.128 182.368 29.3333 182.514 29.6414C182.678 29.9858 182.897 30.294 183.17 30.5658C183.462 30.8196 183.808 31.0099 184.21 31.1368C184.611 31.2636 185.03 31.1821 185.468 30.8921C185.869 30.6202 186.361 30.2305 186.945 29.723C187.528 29.1974 188.175 28.5449 188.886 27.7655C189.598 26.9861 190.236 26.0799 190.801 25.0467C191.366 23.9955 191.74 22.9623 191.922 21.9473C192.178 20.5155 191.804 19.6001 190.801 19.2014C189.926 18.8389 188.968 18.9658 187.929 19.582C186.853 20.2164 186.224 21.1227 186.042 22.3008Z" fill="#979BA9"/>
</svg>
