<svg width="46" height="44" viewBox="0 0 46 44" fill="none" xmlns="http://www.w3.org/2000/svg">
<path opacity="0.3" d="M38.1204 39.6111C37.6944 39.6111 37.2685 39.3982 37.0556 39.1852C36.4167 38.5463 36.4167 37.4815 37.0556 36.8426C40.6759 33.2222 42.5926 28.3241 42.5926 23C42.5926 12.1389 33.8611 3.40741 23 3.40741C12.1389 3.40741 3.40741 12.1389 3.40741 23C3.40741 28.1111 5.32407 33.0093 8.94444 36.8426C9.58333 37.4815 9.58333 38.5463 8.94444 39.1852C8.30556 39.8241 7.24074 39.8241 6.60185 39.1852C2.34259 34.9259 0 29.1759 0 23.213C0 10.4352 10.4352 0 23 0C35.5648 0 46 10.2222 46 23C46 28.963 43.6574 34.713 39.3982 38.9722C38.9722 39.3982 38.5463 39.6111 38.1204 39.6111Z" fill="#FF75F9"/>
<path d="M23.0001 43.2317C27.5871 43.2317 31.3056 39.5132 31.3056 34.9262C31.3056 30.3391 27.5871 26.6206 23.0001 26.6206C18.413 26.6206 14.6945 30.3391 14.6945 34.9262C14.6945 39.5132 18.413 43.2317 23.0001 43.2317Z" fill="#FF75F9"/>
<path d="M31.5186 14.4814C29.176 14.4814 27.2593 16.3981 27.2593 18.7407V20.4444C27.2593 21.9352 28.5371 23 29.8149 23H31.5186C33.8612 23 35.7779 21.0833 35.7779 18.7407C35.7779 16.3981 33.8612 14.4814 31.5186 14.4814Z" fill="#FF75F9"/>
</svg>
