<svg width="198" height="30" viewBox="0 0 198 30" fill="none" xmlns="http://www.w3.org/2000/svg">
<path d="M17.6007 2.16169L20.2414 7.48279C20.6015 8.20839 21.5617 8.93399 22.3619 9.05493L27.1432 9.86114C30.204 10.3852 30.9242 12.6023 28.7236 14.8194L25.0027 18.5684C24.3825 19.1932 24.0224 20.4227 24.2224 21.3096L25.2828 25.9655C26.123 29.6339 24.1825 31.0649 20.9616 29.1501L16.4804 26.4694C15.6602 25.9857 14.3398 25.9857 13.5196 26.4694L9.0384 29.1501C5.81755 31.0649 3.87702 29.6339 4.71725 25.9655L5.77759 21.3096C5.97764 20.4429 5.61751 19.2134 4.99735 18.5684L1.27639 14.8194C-0.92419 12.6023 -0.204043 10.365 2.85677 9.86114L7.63806 9.05493C8.43828 8.91384 9.39853 8.20839 9.75862 7.48279L12.3993 2.16169C13.8197 -0.720565 16.1803 -0.720565 17.6007 2.16169Z" fill="url(#paint0_linear_1_1251)" fill-opacity="0.2"/>
<path d="M59.6007 2.16169L62.2414 7.48279C62.6015 8.20839 63.5617 8.93399 64.3619 9.05493L69.1432 9.86114C72.204 10.3852 72.9242 12.6023 70.7236 14.8194L67.0027 18.5684C66.3825 19.1932 66.0224 20.4227 66.2224 21.3096L67.2828 25.9655C68.123 29.6339 66.1825 31.0649 62.9616 29.1501L58.4804 26.4694C57.6602 25.9857 56.3398 25.9857 55.5196 26.4694L51.0384 29.1501C47.8175 31.0649 45.877 29.6339 46.7172 25.9655L47.7776 21.3096C47.9776 20.4429 47.6175 19.2134 46.9973 18.5684L43.2764 14.8194C41.0758 12.6023 41.796 10.365 44.8568 9.86114L49.6381 9.05493C50.4383 8.91384 51.3985 8.20839 51.7586 7.48279L54.3993 2.16169C55.8197 -0.720565 58.1803 -0.720565 59.6007 2.16169Z" fill="url(#paint1_linear_1_1251)" fill-opacity="0.2"/>
<path d="M101.601 2.16169L104.241 7.48279C104.601 8.20839 105.562 8.93399 106.362 9.05493L111.143 9.86114C114.204 10.3852 114.924 12.6023 112.724 14.8194L109.003 18.5684C108.382 19.1932 108.022 20.4227 108.222 21.3096L109.283 25.9655C110.123 29.6339 108.182 31.0649 104.962 29.1501L100.48 26.4694C99.6602 25.9857 98.3398 25.9857 97.5196 26.4694L93.0384 29.1501C89.8175 31.0649 87.877 29.6339 88.7172 25.9655L89.7776 21.3096C89.9776 20.4429 89.6175 19.2134 88.9973 18.5684L85.2764 14.8194C83.0758 12.6023 83.796 10.365 86.8568 9.86114L91.6381 9.05493C92.4383 8.91384 93.3985 8.20839 93.7586 7.48279L96.3993 2.16169C97.8197 -0.720565 100.18 -0.720565 101.601 2.16169Z" fill="url(#paint2_linear_1_1251)" fill-opacity="0.2"/>
<path d="M143.601 2.16169L146.241 7.48279C146.601 8.20839 147.562 8.93399 148.362 9.05493L153.143 9.86114C156.204 10.3852 156.924 12.6023 154.724 14.8194L151.003 18.5684C150.382 19.1932 150.022 20.4227 150.222 21.3096L151.283 25.9655C152.123 29.6339 150.182 31.0649 146.962 29.1501L142.48 26.4694C141.66 25.9857 140.34 25.9857 139.52 26.4694L135.038 29.1501C131.818 31.0649 129.877 29.6339 130.717 25.9655L131.778 21.3096C131.978 20.4429 131.618 19.2134 130.997 18.5684L127.276 14.8194C125.076 12.6023 125.796 10.365 128.857 9.86114L133.638 9.05493C134.438 8.91384 135.399 8.20839 135.759 7.48279L138.399 2.16169C139.82 -0.720565 142.18 -0.720565 143.601 2.16169Z" fill="url(#paint3_linear_1_1251)" fill-opacity="0.2"/>
<path d="M185.601 2.16169L188.241 7.48279C188.601 8.20839 189.562 8.93399 190.362 9.05493L195.143 9.86114C198.204 10.3852 198.924 12.6023 196.724 14.8194L193.003 18.5684C192.382 19.1932 192.022 20.4227 192.222 21.3096L193.283 25.9655C194.123 29.6339 192.182 31.0649 188.962 29.1501L184.48 26.4694C183.66 25.9857 182.34 25.9857 181.52 26.4694L177.038 29.1501C173.818 31.0649 171.877 29.6339 172.717 25.9655L173.778 21.3096C173.978 20.4429 173.618 19.2134 172.997 18.5684L169.276 14.8194C167.076 12.6023 167.796 10.365 170.857 9.86114L175.638 9.05493C176.438 8.91384 177.399 8.20839 177.759 7.48279L180.399 2.16169C181.82 -0.720565 184.18 -0.720565 185.601 2.16169Z" fill="url(#paint4_linear_1_1251)" fill-opacity="0.2"/>
<defs>
<linearGradient id="paint0_linear_1_1251" x1="15" y1="0" x2="15" y2="29.9921" gradientUnits="userSpaceOnUse">
<stop stop-color="#6360F3"/>
<stop offset="1" stop-color="#625FF1" stop-opacity="0"/>
</linearGradient>
<linearGradient id="paint1_linear_1_1251" x1="57" y1="0" x2="57" y2="29.9921" gradientUnits="userSpaceOnUse">
<stop stop-color="#6360F3"/>
<stop offset="1" stop-color="#625FF1" stop-opacity="0"/>
</linearGradient>
<linearGradient id="paint2_linear_1_1251" x1="99" y1="0" x2="99" y2="29.9921" gradientUnits="userSpaceOnUse">
<stop stop-color="#6360F3"/>
<stop offset="1" stop-color="#625FF1" stop-opacity="0"/>
</linearGradient>
<linearGradient id="paint3_linear_1_1251" x1="141" y1="0" x2="141" y2="29.9921" gradientUnits="userSpaceOnUse">
<stop stop-color="#6360F3"/>
<stop offset="1" stop-color="#625FF1" stop-opacity="0"/>
</linearGradient>
<linearGradient id="paint4_linear_1_1251" x1="183" y1="0" x2="183" y2="29.9921" gradientUnits="userSpaceOnUse">
<stop stop-color="#6360F3"/>
<stop offset="1" stop-color="#625FF1" stop-opacity="0"/>
</linearGradient>
</defs>
</svg>
